AbonnerBold.ufo
<glyph name="exclam" format="1">
  <advance width="319"/>
  <unicode hex="0021"/>
  <outline>
    <contour>
      <point x="233" y="652" type="curve"/>
      <point x="233" y="652"/>
      <point x="91" y="652"/>
      <point x="91" y="652" type="curve"/>
      <point x="97" y="553"/>
      <point x="120" y="354"/>
      <point x="131" y="190" type="curve"/>
      <point x="194" y="190" type="line"/>
      <point x="207" y="370"/>
      <point x="226" y="536"/>
    </contour>
    <contour>
      <point x="235" y="64" type="curve" smooth="yes"/>
      <point x="235" y="109"/>
      <point x="207" y="143"/>
      <point x="160" y="143" type="curve" smooth="yes"/>
      <point x="113" y="143"/>
      <point x="84" y="109"/>
      <point x="84" y="64" type="curve" smooth="yes"/>
      <point x="84" y="20"/>
      <point x="113" y="-13"/>
      <point x="160" y="-13" type="curve" smooth="yes"/>
      <point x="207" y="-13"/>
      <point x="235" y="20"/>
    </contour>
  </outline>
</glyph>
<glyph name="quotedbl" format="1">
  <advance width="454"/>
  <unicode hex="0022"/>
  <outline>
    <contour>
      <point x="208" y="693" type="curve"/>
      <point x="186" y="711"/>
      <point x="157" y="719"/>
      <point x="117" y="719" type="curve"/>
      <point x="102" y="707"/>
      <point x="95" y="690"/>
      <point x="95" y="665" type="curve" smooth="yes"/>
      <point x="95" y="653"/>
      <point x="95" y="647"/>
      <point x="98" y="619" type="curve" smooth="yes"/>
      <point x="109" y="524" type="line" smooth="yes"/>
      <point x="112" y="495"/>
      <point x="119" y="480"/>
      <point x="132" y="467" type="curve"/>
      <point x="154" y="467"/>
      <point x="171" y="471"/>
      <point x="184" y="487" type="curve"/>
      <point x="200" y="619" type="line" smooth="yes"/>
      <point x="204" y="651"/>
      <point x="205" y="673"/>
    </contour>
    <contour>
      <point x="377" y="693" type="curve"/>
      <point x="356" y="711"/>
      <point x="326" y="719"/>
      <point x="286" y="719" type="curve"/>
      <point x="268" y="706"/>
      <point x="264" y="686"/>
      <point x="264" y="656" type="curve" smooth="yes"/>
      <point x="264" y="648"/>
      <point x="265" y="639"/>
      <point x="267" y="619" type="curve" smooth="yes"/>
      <point x="278" y="524" type="line" smooth="yes"/>
      <point x="281" y="495"/>
      <point x="289" y="480"/>
      <point x="301" y="467" type="curve"/>
      <point x="324" y="467"/>
      <point x="340" y="471"/>
      <point x="353" y="487" type="curve"/>
      <point x="369" y="619" type="line" smooth="yes"/>
      <point x="373" y="651"/>
      <point x="376" y="673"/>
    </contour>
  </outline>
</glyph>
<glyph name="numbersign" format="1">
  <advance width="538"/>
  <unicode hex="0023"/>
  <outline>
    <contour>
      <point x="510" y="413" type="line"/>
      <point x="510" y="488" type="line"/>
      <point x="430" y="488" type="line"/>
      <point x="462" y="667" type="line"/>
      <point x="383" y="667" type="line"/>
      <point x="351" y="488" type="line"/>
      <point x="245" y="488" type="line"/>
      <point x="277" y="667" type="line"/>
      <point x="198" y="667" type="line"/>
      <point x="166" y="488" type="line"/>
      <point x="68" y="488" type="line"/>
      <point x="68" y="413" type="line"/>
      <point x="151" y="413" type="line"/>
      <point x="122" y="258" type="line"/>
      <point x="27" y="258" type="line"/>
      <point x="27" y="184" type="line"/>
      <point x="108" y="184" type="line"/>
      <point x="75" y="0" type="line"/>
      <point x="154" y="0" type="line"/>
      <point x="187" y="184" type="line"/>
      <point x="293" y="184" type="line"/>
      <point x="260" y="0" type="line"/>
      <point x="339" y="0" type="line"/>
      <point x="372" y="184" type="line"/>
      <point x="469" y="184" type="line"/>
      <point x="469" y="258" type="line"/>
      <point x="387" y="258" type="line"/>
      <point x="416" y="413" type="line"/>
    </contour>
    <contour>
      <point x="336" y="413" type="line"/>
      <point x="307" y="258" type="line"/>
      <point x="202" y="258" type="line"/>
      <point x="231" y="413" type="line"/>
    </contour>
  </outline>
</glyph>
<glyph name="dollar" format="1">
  <advance width="538"/>
  <unicode hex="0024"/>
  <outline>
    <contour>
      <point x="234" y="417" type="line"/>
      <point x="190" y="437"/>
      <point x="158" y="464"/>
      <point x="158" y="510" type="curve" smooth="yes"/>
      <point x="158" y="558"/>
      <point x="187" y="591"/>
      <point x="234" y="605" type="curve"/>
    </contour>
    <contour>
      <point x="306" y="259" type="line"/>
      <point x="355" y="236"/>
      <point x="391" y="207"/>
      <point x="391" y="156" type="curve" smooth="yes"/>
      <point x="391" y="94"/>
      <point x="352" y="61"/>
      <point x="306" y="48" type="curve"/>
    </contour>
    <contour>
      <point x="306" y="-82" type="line"/>
      <point x="306" y="-15" type="line"/>
      <point x="424" y="-1"/>
      <point x="519" y="62"/>
      <point x="519" y="184" type="curve" smooth="yes"/>
      <point x="519" y="313"/>
      <point x="406" y="351"/>
      <point x="306" y="388" type="curve"/>
      <point x="306" y="611" type="line"/>
      <point x="376" y="605"/>
      <point x="389" y="562"/>
      <point x="395" y="471" type="curve"/>
      <point x="485" y="471" type="line"/>
      <point x="485" y="627" type="line"/>
      <point x="425" y="653"/>
      <point x="371" y="667"/>
      <point x="306" y="669" type="curve"/>
      <point x="306" y="725" type="line"/>
      <point x="234" y="725" type="line"/>
      <point x="234" y="667" type="line"/>
      <point x="101" y="651"/>
      <point x="36" y="576"/>
      <point x="36" y="474" type="curve" smooth="yes"/>
      <point x="36" y="357"/>
      <point x="140" y="321"/>
      <point x="234" y="287" type="curve"/>
      <point x="234" y="42" type="line"/>
      <point x="132" y="48"/>
      <point x="132" y="114"/>
      <point x="132" y="197" type="curve"/>
      <point x="36" y="197" type="line"/>
      <point x="36" y="25" type="line"/>
      <point x="76" y="6"/>
      <point x="154" y="-14"/>
      <point x="234" y="-17" type="curve"/>
      <point x="234" y="-82" type="line"/>
    </contour>
  </outline>
</glyph>
<glyph name="ampersand" format="1">
  <advance width="768"/>
  <unicode hex="0026"/>
  <outline>
    <contour>
      <point x="661" y="117" type="curve"/>
      <point x="588" y="237" type="line"/>
      <point x="622" y="262"/>
      <point x="651" y="297"/>
      <point x="661" y="328" type="curve"/>
      <point x="681" y="325"/>
      <point x="692" y="315"/>
      <point x="702" y="290" type="curve"/>
      <point x="744" y="330" type="line"/>
      <point x="665" y="410" type="line"/>
      <point x="596" y="371"/>
      <point x="519" y="334"/>
      <point x="435" y="304" type="curve"/>
      <point x="316" y="385"/>
      <point x="261" y="441"/>
      <point x="261" y="515" type="curve" smooth="yes"/>
      <point x="261" y="571"/>
      <point x="293" y="616"/>
      <point x="357" y="616" type="curve" smooth="yes"/>
      <point x="388" y="616"/>
      <point x="416" y="602"/>
      <point x="422" y="573" type="curve"/>
      <point x="429" y="495" type="line"/>
      <point x="514" y="501" type="line"/>
      <point x="519" y="658" type="line"/>
      <point x="482" y="671"/>
      <point x="427" y="679"/>
      <point x="382" y="679" type="curve" smooth="yes"/>
      <point x="228" y="679"/>
      <point x="130" y="622"/>
      <point x="130" y="496" type="curve" smooth="yes"/>
      <point x="130" y="437"/>
      <point x="164" y="392"/>
      <point x="220" y="368" type="curve"/>
      <point x="96" y="341"/>
      <point x="45" y="266"/>
      <point x="45" y="179" type="curve" smooth="yes"/>
      <point x="45" y="49"/>
      <point x="144" y="-13"/>
      <point x="304" y="-13" type="curve" smooth="yes"/>
      <point x="402" y="-13"/>
      <point x="481" y="15"/>
      <point x="534" y="75" type="curve"/>
      <point x="560" y="64"/>
      <point x="584" y="54"/>
      <point x="609" y="45" type="curve"/>
      <point x="629" y="65"/>
      <point x="647" y="89"/>
    </contour>
    <contour>
      <point x="467" y="184" type="line"/>
      <point x="447" y="106"/>
      <point x="400" y="60"/>
      <point x="318" y="60" type="curve" smooth="yes"/>
      <point x="240" y="60"/>
      <point x="188" y="107"/>
      <point x="188" y="191" type="curve" smooth="yes"/>
      <point x="188" y="255"/>
      <point x="228" y="306"/>
      <point x="301" y="315" type="curve"/>
      <point x="335" y="300"/>
      <point x="372" y="284"/>
      <point x="414" y="267" type="curve"/>
    </contour>
  </outline>
</glyph>
<glyph name="parenleft" format="1">
  <advance width="330"/>
  <unicode hex="0028"/>
  <outline>
    <contour>
      <point x="302" y="-167" type="line"/>
      <point x="223" y="-114"/>
      <point x="182" y="47"/>
      <point x="182" y="265" type="curve" smooth="yes"/>
      <point x="182" y="530"/>
      <point x="251" y="650"/>
      <point x="302" y="697" type="curve"/>
      <point x="241" y="719" type="line"/>
      <point x="136" y="656"/>
      <point x="52" y="491"/>
      <point x="52" y="265" type="curve" smooth="yes"/>
      <point x="52" y="51"/>
      <point x="116" y="-131"/>
      <point x="241" y="-190" type="curve"/>
    </contour>
  </outline>
</glyph>
<glyph name="parenright" format="1">
  <advance width="330"/>
  <unicode hex="0029"/>
  <outline>
    <contour>
      <point x="10.0" y="696.0" type="line"/>
      <point x="89.0" y="643.0"/>
      <point x="130.0" y="483.0"/>
      <point x="130.0" y="265.0" type="curve" smooth="yes"/>
      <point x="130.0" y="0.0"/>
      <point x="61.0" y="-120.0"/>
      <point x="10.0" y="-168.0" type="curve"/>
      <point x="71.0" y="-190.0" type="line"/>
      <point x="176.0" y="-125.0"/>
      <point x="260.0" y="37.0"/>
      <point x="260.0" y="265.0" type="curve" smooth="yes"/>
      <point x="260.0" y="478.0"/>
      <point x="196.0" y="660.0"/>
      <point x="71.0" y="719.0" type="curve"/>
    </contour>
  </outline>
</glyph>
<glyph name="asterisk" format="1">
  <advance width="413"/>
  <unicode hex="002A"/>
  <outline>
    <contour>
      <point x="55" y="436" type="line"/>
      <point x="171" y="453" type="line"/>
      <point x="97" y="360" type="line"/>
      <point x="179" y="313" type="line"/>
      <point x="222" y="425" type="line"/>
      <point x="263" y="313" type="line"/>
      <point x="345" y="360" type="line"/>
      <point x="271" y="453" type="line"/>
      <point x="389" y="436" type="line"/>
      <point x="389" y="528" type="line"/>
      <point x="271" y="511" type="line"/>
      <point x="345" y="605" type="line"/>
      <point x="263" y="652" type="line"/>
      <point x="222" y="541" type="line"/>
      <point x="179" y="652" type="line"/>
      <point x="97" y="605" type="line"/>
      <point x="171" y="511" type="line"/>
      <point x="55" y="528" type="line"/>
    </contour>
  </outline>
</glyph>
<glyph name="plus" format="1">
  <advance width="550"/>
  <unicode hex="002B"/>
  <outline>
    <contour>
      <point x="507" y="198" type="line"/>
      <point x="507" y="294" type="line"/>
      <point x="325" y="294" type="line"/>
      <point x="325" y="486" type="line"/>
      <point x="225" y="486" type="line"/>
      <point x="225" y="294" type="line"/>
      <point x="42" y="294" type="line"/>
      <point x="42" y="198" type="line"/>
      <point x="225" y="198" type="line"/>
      <point x="225" y="5" type="line"/>
      <point x="325" y="5" type="line"/>
      <point x="325" y="198" type="line"/>
    </contour>
  </outline>
</glyph>
<glyph name="period" format="1">
  <advance width="264"/>
  <unicode hex="002E"/>
  <outline>
    <contour>
      <point x="207" y="64" type="curve" smooth="yes"/>
      <point x="207" y="109"/>
      <point x="179" y="143"/>
      <point x="132" y="143" type="curve" smooth="yes"/>
      <point x="85" y="143"/>
      <point x="56" y="109"/>
      <point x="56" y="64" type="curve" smooth="yes"/>
      <point x="56" y="20"/>
      <point x="85" y="-13"/>
      <point x="132" y="-13" type="curve" smooth="yes"/>
      <point x="179" y="-13"/>
      <point x="207" y="20"/>
    </contour>
  </outline>
</glyph>
<glyph name="slash" format="1">
  <advance width="378"/>
  <unicode hex="002F"/>
  <outline>
    <contour>
      <point x="382" y="688" type="line"/>
      <point x="269" y="688" type="line"/>
      <point x="1" y="-9" type="line"/>
      <point x="114" y="-9" type="line"/>
    </contour>
  </outline>
</glyph>
<glyph name="zero" format="1">
  <advance width="538"/>
  <unicode hex="0030"/>
  <outline>
    <contour>
      <point x="503" y="288" type="curve" smooth="yes"/>
      <point x="503" y="461"/>
      <point x="445" y="589"/>
      <point x="271" y="589" type="curve" smooth="yes"/>
      <point x="96" y="589"/>
      <point x="34" y="460"/>
      <point x="34" y="288" type="curve" smooth="yes"/>
      <point x="34" y="112"/>
      <point x="92" y="-14"/>
      <point x="267" y="-14" type="curve" smooth="yes"/>
      <point x="442" y="-14"/>
      <point x="503" y="115"/>
    </contour>
    <contour>
      <point x="366" y="289" type="curve" smooth="yes"/>
      <point x="366" y="122"/>
      <point x="340" y="53"/>
      <point x="268" y="53" type="curve" smooth="yes"/>
      <point x="197" y="53"/>
      <point x="171" y="112"/>
      <point x="171" y="289" type="curve" smooth="yes"/>
      <point x="171" y="464"/>
      <point x="199" y="523"/>
      <point x="268" y="523" type="curve" smooth="yes"/>
      <point x="338" y="523"/>
      <point x="366" y="471"/>
    </contour>
  </outline>
</glyph>
<glyph name="two" format="1">
  <advance width="538"/>
  <unicode hex="0032"/>
  <outline>
    <contour>
      <point x="44" y="0" type="line"/>
      <point x="474" y="0" type="line"/>
      <point x="474" y="114" type="line"/>
      <point x="474" y="114"/>
      <point x="412" y="114"/>
      <point x="373" y="114" type="curve" smooth="yes"/>
      <point x="204" y="114" type="line"/>
      <point x="377" y="245"/>
      <point x="474" y="296"/>
      <point x="474" y="412" type="curve" smooth="yes"/>
      <point x="474.0" y="505.722996111"/>
      <point x="403.549639584" y="589.0"/>
      <point x="270" y="589" type="curve" smooth="yes"/>
      <point x="165" y="589"/>
      <point x="123" y="556"/>
      <point x="70" y="523" type="curve"/>
      <point x="70" y="523"/>
      <point x="70" y="426"/>
      <point x="70" y="400" type="curve"/>
      <point x="166" y="400" type="line"/>
      <point x="172.193103337" y="475.349423929"/>
      <point x="191.857106936" y="517.0"/>
      <point x="256" y="517" type="curve" smooth="yes"/>
      <point x="308" y="517"/>
      <point x="345.0" y="478.341259273"/>
      <point x="345" y="406" type="curve" smooth="yes"/>
      <point x="345" y="312"/>
      <point x="226" y="253"/>
      <point x="44" y="99" type="curve"/>
    </contour>
  </outline>
</glyph>
<glyph name="four" format="1">
  <advance width="538"/>
  <unicode hex="0034"/>
  <outline>
    <contour>
      <point x="20" y="283" type="line"/>
      <point x="20" y="181" type="line"/>
      <point x="325" y="181" type="line"/>
      <point x="325" y="95" type="line" smooth="yes"/>
      <point x="325" y="60"/>
      <point x="311" y="55"/>
      <point x="276" y="55" type="curve" smooth="yes"/>
      <point x="228" y="55" type="line"/>
      <point x="228" y="0" type="line"/>
      <point x="536" y="0" type="line"/>
      <point x="536" y="55" type="line"/>
      <point x="496" y="55" type="line" smooth="yes"/>
      <point x="461" y="55"/>
      <point x="447" y="60"/>
      <point x="447" y="95" type="curve" smooth="yes"/>
      <point x="447" y="181" type="line"/>
      <point x="536" y="181" type="line"/>
      <point x="536" y="253" type="line"/>
      <point x="447" y="253" type="line"/>
      <point x="447" y="652" type="line"/>
      <point x="287" y="652" type="line"/>
    </contour>
    <contour>
      <point x="110" y="253" type="line"/>
      <point x="323" y="550" type="line"/>
      <point x="325" y="550" type="line"/>
      <point x="325" y="253" type="line"/>
    </contour>
  </outline>
</glyph>
<glyph name="six" format="1">
  <advance width="538"/>
  <unicode hex="0036"/>
  <outline>
    <contour>
      <point x="413" y="-14"/>
      <point x="496" y="69"/>
      <point x="496" y="208" type="curve" smooth="yes"/>
      <point x="496" y="341"/>
      <point x="418" y="414"/>
      <point x="303" y="414" type="curve" smooth="yes"/>
      <point x="246" y="414"/>
      <point x="205" y="395"/>
      <point x="174" y="363" type="curve"/>
      <point x="180" y="514"/>
      <point x="252" y="598"/>
      <point x="338" y="598" type="curve" smooth="yes"/>
      <point x="365" y="598"/>
      <point x="394" y="589"/>
      <point x="422" y="572" type="curve"/>
      <point x="450" y="619" type="line"/>
      <point x="450" y="619"/>
      <point x="409" y="670"/>
      <point x="323" y="670" type="curve" smooth="yes"/>
      <point x="152" y="670"/>
      <point x="35" y="536"/>
      <point x="35" y="282" type="curve" smooth="yes"/>
      <point x="35" y="89"/>
      <point x="113" y="-14"/>
      <point x="275" y="-14" type="curve" smooth="yes"/>
    </contour>
    <contour>
      <point x="318" y="343"/>
      <point x="360" y="306"/>
      <point x="360" y="204" type="curve" smooth="yes"/>
      <point x="360" y="95"/>
      <point x="319" y="57"/>
      <point x="264" y="57" type="curve" smooth="yes"/>
      <point x="208" y="57"/>
      <point x="171" y="101"/>
      <point x="171" y="198" type="curve" smooth="yes"/>
      <point x="171" y="299"/>
      <point x="216" y="343"/>
      <point x="266" y="343" type="curve" smooth="yes"/>
    </contour>
  </outline>
</glyph>
<glyph name="seven" format="1">
  <advance width="538"/>
  <unicode hex="0037"/>
  <outline>
    <contour>
      <point x="494" y="478" type="line"/>
      <point x="494" y="575" type="line"/>
      <point x="42" y="575" type="line"/>
      <point x="42" y="371" type="line"/>
      <point x="115" y="371" type="line"/>
      <point x="119" y="404" type="line" smooth="yes"/>
      <point x="121" y="420"/>
      <point x="124" y="435"/>
      <point x="128" y="449" type="curve"/>
      <point x="143" y="455"/>
      <point x="160" y="458"/>
      <point x="182" y="458" type="curve" smooth="yes"/>
      <point x="380" y="458" type="line"/>
      <point x="328" y="361"/>
      <point x="279" y="263"/>
      <point x="228" y="167" type="curve" smooth="yes"/>
      <point x="91" y="-94" type="line"/>
      <point x="201" y="-94" type="line"/>
    </contour>
  </outline>
</glyph>
<glyph name="colon" format="1">
  <advance width="264"/>
  <unicode hex="003A"/>
  <outline>
    <contour>
      <point x="206" y="64" type="curve" smooth="yes"/>
      <point x="206" y="109"/>
      <point x="178" y="143"/>
      <point x="131" y="143" type="curve" smooth="yes"/>
      <point x="84" y="143"/>
      <point x="56" y="109"/>
      <point x="56" y="64" type="curve" smooth="yes"/>
      <point x="56" y="20"/>
      <point x="84" y="-13"/>
      <point x="131" y="-13" type="curve" smooth="yes"/>
      <point x="178" y="-13"/>
      <point x="206" y="20"/>
    </contour>
    <contour>
      <point x="206" y="383" type="curve" smooth="yes"/>
      <point x="206" y="428"/>
      <point x="178" y="462"/>
      <point x="131" y="462" type="curve" smooth="yes"/>
      <point x="84" y="462"/>
      <point x="56" y="428"/>
      <point x="56" y="383" type="curve" smooth="yes"/>
      <point x="56" y="338"/>
      <point x="84" y="306"/>
      <point x="131" y="306" type="curve" smooth="yes"/>
      <point x="178" y="306"/>
      <point x="206" y="338"/>
    </contour>
  </outline>
</glyph>
<glyph name="semicolon" format="1">
  <advance width="264"/>
  <unicode hex="003B"/>
  <outline>
    <contour>
      <point x="207" y="386" type="curve" smooth="yes"/>
      <point x="207" y="431"/>
      <point x="179" y="465"/>
      <point x="132" y="465" type="curve" smooth="yes"/>
      <point x="85" y="465"/>
      <point x="56" y="431"/>
      <point x="56" y="386" type="curve" smooth="yes"/>
      <point x="56" y="341"/>
      <point x="85" y="308"/>
      <point x="132" y="308" type="curve" smooth="yes"/>
      <point x="179" y="308"/>
      <point x="207" y="341"/>
    </contour>
  </outline>
</glyph>
<glyph name="less" format="1">
  <advance width="550"/>
  <unicode hex="003C"/>
  <outline>
    <contour>
      <point x="506" y="43" type="line"/>
      <point x="172" y="247" type="line"/>
      <point x="506" y="442" type="line"/>
      <point x="420" y="484" type="line"/>
      <point x="62" y="284" type="line"/>
      <point x="36" y="226" type="line"/>
      <point x="420" y="1" type="line"/>
    </contour>
  </outline>
</glyph>
<glyph name="equal" format="1">
  <advance width="550"/>
  <unicode hex="003D"/>
  <outline>
    <contour>
      <point x="506" y="200" type="line"/>
      <point x="506" y="295" type="line"/>
      <point x="44" y="295" type="line"/>
      <point x="44" y="200" type="line"/>
    </contour>
    <contour>
      <point x="506" y="201" type="line"/>
      <point x="506" y="297" type="line"/>
      <point x="44" y="297" type="line"/>
      <point x="44" y="201" type="line"/>
    </contour>
  </outline>
</glyph>
<glyph name="greater" format="1">
  <advance width="550"/>
  <unicode hex="003E"/>
  <outline>
    <contour>
      <point x="42" y="442" type="line"/>
      <point x="377" y="239" type="line"/>
      <point x="42" y="43" type="line"/>
      <point x="128" y="1" type="line"/>
      <point x="486" y="202" type="line"/>
      <point x="512" y="260" type="line"/>
      <point x="129" y="484" type="line"/>
    </contour>
  </outline>
</glyph>
<glyph name="question" format="1">
  <advance width="447"/>
  <unicode hex="003F"/>
  <outline>
    <contour>
      <point x="406" y="618"/>
      <point x="329" y="682"/>
      <point x="210" y="682" type="curve" smooth="yes"/>
      <point x="119" y="682"/>
      <point x="72" y="645"/>
      <point x="46" y="622" type="curve"/>
      <point x="46" y="484" type="line"/>
      <point x="46" y="484"/>
      <point x="151" y="484"/>
      <point x="151" y="484" type="curve"/>
      <point x="151" y="564"/>
      <point x="184" y="589"/>
      <point x="208" y="589" type="curve" smooth="yes"/>
      <point x="246" y="589"/>
      <point x="272" y="569"/>
      <point x="276" y="513" type="curve" smooth="yes"/>
      <point x="276.0" y="437.0"/>
      <point x="114.0" y="312.0"/>
      <point x="114" y="312" type="curve"/>
      <point x="155" y="186" type="line"/>
      <point x="232" y="186" type="line"/>
      <point x="232" y="265" type="line"/>
      <point x="276" y="326"/>
      <point x="406" y="382"/>
      <point x="406" y="510" type="curve" smooth="yes"/>
    </contour>
    <contour>
      <point x="274" y="109"/>
      <point x="246" y="143"/>
      <point x="199" y="143" type="curve" smooth="yes"/>
      <point x="152" y="143"/>
      <point x="124" y="109"/>
      <point x="124" y="64" type="curve" smooth="yes"/>
      <point x="124" y="20"/>
      <point x="152" y="-13"/>
      <point x="199" y="-13" type="curve" smooth="yes"/>
      <point x="246" y="-13"/>
      <point x="274" y="20"/>
      <point x="274" y="64" type="curve" smooth="yes"/>
    </contour>
  </outline>
</glyph>
<glyph name="A" format="1">
  <advance width="722"/>
  <unicode hex="0041"/>
  <outline>
    <contour>
      <point x="447" y="201" type="line"/>
      <point x="474" y="125"/>
      <point x="482" y="107"/>
      <point x="490" y="82" type="curve"/>
      <point x="483" y="71"/>
      <point x="469" y="70"/>
      <point x="444" y="68" type="curve" smooth="yes"/>
      <point x="402" y="65" type="line"/>
      <point x="402" y="0" type="line"/>
      <point x="719" y="0" type="line"/>
      <point x="719" y="64" type="line"/>
      <point x="671" y="70"/>
      <point x="655" y="65"/>
      <point x="632" y="122" type="curve" smooth="yes"/>
      <point x="563" y="295"/>
      <point x="424" y="667"/>
      <point x="424" y="667" type="curve"/>
      <point x="287" y="667" type="line"/>
      <point x="266" y="607"/>
      <point x="138" y="258"/>
      <point x="77" y="107" type="curve" smooth="yes"/>
      <point x="72" y="94"/>
      <point x="65" y="83"/>
      <point x="58" y="74" type="curve"/>
      <point x="43" y="70"/>
      <point x="14" y="67"/>
      <point x="-7" y="64" type="curve"/>
      <point x="-7" y="0" type="line"/>
      <point x="256" y="0" type="line"/>
      <point x="256" y="65" type="line"/>
      <point x="204" y="68" type="line" smooth="yes"/>
      <point x="189" y="69"/>
      <point x="177" y="72"/>
      <point x="170" y="78" type="curve"/>
      <point x="177" y="101"/>
      <point x="189" y="128"/>
      <point x="215" y="201" type="curve"/>
    </contour>
    <contour>
      <point x="238" y="272" type="line"/>
      <point x="264" y="346"/>
      <point x="304" y="465"/>
      <point x="330" y="547" type="curve"/>
      <point x="334" y="547" type="line"/>
      <point x="360" y="465"/>
      <point x="394" y="362"/>
      <point x="425" y="272" type="curve"/>
    </contour>
  </outline>
</glyph>
<glyph name="B" format="1">
  <advance width="675"/>
  <unicode hex="0042"/>
  <outline>
    <contour>
      <point x="277" y="304" type="line"/>
      <point x="334" y="304" type="line" smooth="yes"/>
      <point x="434" y="304"/>
      <point x="473" y="250"/>
      <point x="473" y="184" type="curve" smooth="yes"/>
      <point x="473" y="104"/>
      <point x="412" y="71"/>
      <point x="344" y="71" type="curve" smooth="yes"/>
      <point x="325" y="71"/>
      <point x="297" y="71"/>
      <point x="277" y="72" type="curve"/>
    </contour>
    <contour>
      <point x="277" y="596" type="line"/>
      <point x="295" y="597"/>
      <point x="316" y="597"/>
      <point x="334" y="597" type="curve" smooth="yes"/>
      <point x="402" y="597"/>
      <point x="447" y="562"/>
      <point x="447" y="491" type="curve" smooth="yes"/>
      <point x="447" y="419"/>
      <point x="399" y="376"/>
      <point x="323" y="376" type="curve" smooth="yes"/>
      <point x="277" y="376" type="line"/>
    </contour>
    <contour>
      <point x="39" y="0" type="line"/>
      <point x="210" y="0" type="line" smooth="yes"/>
      <point x="238" y="0"/>
      <point x="336" y="-3"/>
      <point x="383" y="-3" type="curve" smooth="yes"/>
      <point x="526" y="-3"/>
      <point x="619" y="59"/>
      <point x="619" y="179" type="curve" smooth="yes"/>
      <point x="619" y="290"/>
      <point x="534" y="337"/>
      <point x="430" y="345" type="curve"/>
      <point x="430" y="350" type="line"/>
      <point x="521" y="363"/>
      <point x="587" y="416"/>
      <point x="587" y="503" type="curve" smooth="yes"/>
      <point x="587" y="610"/>
      <point x="511" y="669"/>
      <point x="372" y="669" type="curve" smooth="yes"/>
      <point x="320" y="669"/>
      <point x="236" y="667"/>
      <point x="208" y="667" type="curve" smooth="yes"/>
      <point x="39" y="667" type="line"/>
      <point x="36" y="602" type="line"/>
      <point x="69" y="599"/>
      <point x="111" y="599"/>
      <point x="133" y="591" type="curve"/>
      <point x="136" y="579"/>
      <point x="137" y="565"/>
      <point x="137" y="547" type="curve" smooth="yes"/>
      <point x="137" y="120" type="line" smooth="yes"/>
      <point x="137" y="102"/>
      <point x="136" y="88"/>
      <point x="133" y="75" type="curve"/>
      <point x="123" y="71"/>
      <point x="109" y="69"/>
      <point x="93" y="68" type="curve" smooth="yes"/>
      <point x="39" y="64" type="line"/>
    </contour>
  </outline>
</glyph>
<glyph name="C" format="1">
  <advance width="699"/>
  <unicode hex="0043"/>
  <outline>
    <contour>
      <point x="621" y="223" type="line"/>
      <point x="535" y="223" type="line"/>
      <point x="529" y="175"/>
      <point x="517" y="87"/>
      <point x="517" y="87" type="curve"/>
      <point x="497" y="73"/>
      <point x="447" y="61"/>
      <point x="406" y="61" type="curve" smooth="yes"/>
      <point x="272" y="61"/>
      <point x="209" y="160"/>
      <point x="209" y="324" type="curve" smooth="yes"/>
      <point x="209" y="545"/>
      <point x="302" y="607"/>
      <point x="404" y="607" type="curve" smooth="yes"/>
      <point x="456" y="607"/>
      <point x="499" y="593"/>
      <point x="513" y="578" type="curve"/>
      <point x="525" y="452" type="line"/>
      <point x="608" y="452" type="line"/>
      <point x="618" y="647" type="line"/>
      <point x="562" y="668"/>
      <point x="467" y="682"/>
      <point x="403" y="682" type="curve" smooth="yes"/>
      <point x="189" y="682"/>
      <point x="52" y="550"/>
      <point x="52" y="320" type="curve" smooth="yes"/>
      <point x="52" y="96"/>
      <point x="194" y="-14"/>
      <point x="397" y="-14" type="curve" smooth="yes"/>
      <point x="466" y="-14"/>
      <point x="572" y="0"/>
      <point x="621" y="24" type="curve"/>
    </contour>
  </outline>
</glyph>
<glyph name="D" format="1">
  <advance width="770"/>
  <unicode hex="0044"/>
  <outline>
    <contour>
      <point x="280.0" y="594.0" type="line"/>
      <point x="304.0" y="595.0"/>
      <point x="327.0" y="596.0"/>
      <point x="353.0" y="596.0" type="curve" smooth="yes"/>
      <point x="475.0" y="596.0"/>
      <point x="568.0" y="539.0"/>
      <point x="568.0" y="335.0" type="curve" smooth="yes"/>
      <point x="568.0" y="150.0"/>
      <point x="491.0" y="70.0"/>
      <point x="363.0" y="70.0" type="curve" smooth="yes"/>
      <point x="335.0" y="70.0"/>
      <point x="306.0" y="72.0"/>
      <point x="280.0" y="73.0" type="curve"/>
    </contour>
    <contour>
      <point x="137.0" y="92.0" type="line" smooth="yes"/>
      <point x="137.0" y="71.0"/>
      <point x="119.0" y="70.0"/>
      <point x="93.0" y="68.0" type="curve" smooth="yes"/>
      <point x="39.0" y="64.0" type="line"/>
      <point x="39.0" y="0.0" type="line"/>
      <point x="197.0" y="0.0" type="line" smooth="yes"/>
      <point x="222.0" y="0.0"/>
      <point x="321.0" y="-4.0"/>
      <point x="374.0" y="-4.0" type="curve" smooth="yes"/>
      <point x="570.0" y="-4.0"/>
      <point x="724.0" y="98.0"/>
      <point x="724.0" y="341.0" type="curve" smooth="yes"/>
      <point x="724.0" y="569.0"/>
      <point x="578.0" y="670.0"/>
      <point x="382.0" y="670.0" type="curve" smooth="yes"/>
      <point x="317.0" y="670.0"/>
      <point x="209.0" y="667.0"/>
      <point x="172.0" y="667.0" type="curve" smooth="yes"/>
      <point x="39.0" y="667.0" type="line"/>
      <point x="36.0" y="602.0" type="line"/>
      <point x="69.0" y="599.0"/>
      <point x="111" y="599"/>
      <point x="133" y="591" type="curve"/>
      <point x="136" y="576"/>
      <point x="137.0" y="559.0"/>
      <point x="137.0" y="539.0" type="curve" smooth="yes"/>
    </contour>
  </outline>
</glyph>
<glyph name="E" format="1">
  <advance width="672"/>
  <unicode hex="0045"/>
  <outline>
    <contour>
      <point x="603" y="179" type="curve"/>
      <point x="524" y="179" type="line"/>
      <point x="518" y="134"/>
      <point x="512" y="106"/>
      <point x="502" y="80" type="curve"/>
      <point x="488" y="73"/>
      <point x="468" y="73"/>
      <point x="439" y="73" type="curve" smooth="yes"/>
      <point x="278" y="73" type="line"/>
      <point x="278" y="308" type="line"/>
      <point x="372" y="308" type="line" smooth="yes"/>
      <point x="389" y="308"/>
      <point x="403" y="308"/>
      <point x="416" y="305" type="curve"/>
      <point x="428" y="286"/>
      <point x="434" y="261"/>
      <point x="437" y="220" type="curve"/>
      <point x="512" y="220" type="line"/>
      <point x="512" y="355" type="line"/>
      <point x="512" y="460" type="line"/>
      <point x="437" y="460" type="line"/>
      <point x="434" y="421"/>
      <point x="427" y="399"/>
      <point x="416" y="381" type="curve"/>
      <point x="403" y="378"/>
      <point x="390" y="378"/>
      <point x="374" y="378" type="curve" smooth="yes"/>
      <point x="278" y="378" type="line"/>
      <point x="278" y="593" type="line"/>
      <point x="423" y="593" type="line" smooth="yes"/>
      <point x="448" y="593"/>
      <point x="466" y="593"/>
      <point x="481" y="587" type="curve"/>
      <point x="489" y="564"/>
      <point x="492" y="541"/>
      <point x="495" y="501" type="curve"/>
      <point x="575" y="501" type="line"/>
      <point x="575" y="667" type="line"/>
      <point x="39" y="667" type="line"/>
      <point x="36" y="602" type="line"/>
      <point x="69" y="599"/>
      <point x="111" y="599"/>
      <point x="133" y="591" type="curve"/>
      <point x="136" y="579"/>
      <point x="137" y="565"/>
      <point x="137" y="547" type="curve" smooth="yes"/>
      <point x="137" y="120" type="line" smooth="yes"/>
      <point x="137" y="102"/>
      <point x="136" y="88"/>
      <point x="133" y="75" type="curve"/>
      <point x="123" y="71"/>
      <point x="109" y="69"/>
      <point x="93" y="68" type="curve" smooth="yes"/>
      <point x="39" y="64" type="line"/>
      <point x="39" y="0" type="line"/>
      <point x="471" y="0" type="line" smooth="yes"/>
      <point x="510" y="0"/>
      <point x="570" y="-3"/>
      <point x="603" y="-3" type="curve"/>
      <point x="603" y="58"/>
      <point x="603" y="118"/>
    </contour>
  </outline>
</glyph>
<glyph name="F" format="1">
  <advance width="624"/>
  <unicode hex="0046"/>
  <outline>
    <contour>
      <point x="385" y="64" type="line"/>
      <point x="329" y="68" type="line" smooth="yes"/>
      <point x="290" y="71"/>
      <point x="281" y="68"/>
      <point x="281" y="115" type="curve" smooth="yes"/>
      <point x="281" y="285" type="line"/>
      <point x="362" y="285" type="line" smooth="yes"/>
      <point x="383" y="285"/>
      <point x="403" y="285"/>
      <point x="420" y="283" type="curve"/>
      <point x="431" y="263"/>
      <point x="437" y="238"/>
      <point x="441" y="194" type="curve"/>
      <point x="516" y="196" type="line"/>
      <point x="516" y="322" type="line"/>
      <point x="516" y="443" type="line"/>
      <point x="441" y="446" type="line"/>
      <point x="436" y="409"/>
      <point x="431" y="384"/>
      <point x="423" y="364" type="curve"/>
      <point x="403" y="358"/>
      <point x="380" y="358"/>
      <point x="347" y="358" type="curve" smooth="yes"/>
      <point x="281" y="358" type="line"/>
      <point x="281" y="593" type="line"/>
      <point x="429" y="593" type="line" smooth="yes"/>
      <point x="451" y="593"/>
      <point x="467" y="592"/>
      <point x="479" y="585" type="curve"/>
      <point x="486" y="559"/>
      <point x="490" y="527"/>
      <point x="493" y="484" type="curve"/>
      <point x="576" y="489" type="line"/>
      <point x="576" y="667" type="line"/>
      <point x="39" y="667" type="line"/>
      <point x="36" y="602" type="line"/>
      <point x="69" y="599"/>
      <point x="111" y="599"/>
      <point x="133" y="591" type="curve"/>
      <point x="136" y="580"/>
      <point x="137" y="566"/>
      <point x="137" y="549" type="curve" smooth="yes"/>
      <point x="137" y="117" type="line" smooth="yes"/>
      <point x="137" y="100"/>
      <point x="136" y="87"/>
      <point x="133" y="75" type="curve"/>
      <point x="123" y="71"/>
      <point x="109" y="69"/>
      <point x="93" y="68" type="curve" smooth="yes"/>
      <point x="39" y="64" type="line"/>
      <point x="39" y="0" type="line"/>
      <point x="385" y="0" type="line"/>
    </contour>
  </outline>
</glyph>
<glyph name="H" format="1">
  <advance width="839"/>
  <unicode hex="0048"/>
  <outline>
    <contour>
      <point x="380" y="0" type="line"/>
      <point x="380" y="55" type="line"/>
      <point x="319" y="71"/>
      <point x="277" y="92"/>
      <point x="277" y="92" type="curve"/>
      <point x="277" y="303" type="line"/>
      <point x="557" y="303" type="line"/>
      <point x="557" y="93" type="line"/>
      <point x="557" y="93"/>
      <point x="545" y="81"/>
      <point x="466" y="55" type="curve"/>
      <point x="466" y="0" type="line"/>
      <point x="800" y="0" type="line"/>
      <point x="800" y="55" type="line"/>
      <point x="739" y="71"/>
      <point x="697" y="92"/>
      <point x="697" y="92" type="curve"/>
      <point x="697" y="574" type="line"/>
      <point x="697" y="574"/>
      <point x="709" y="586"/>
      <point x="788" y="612" type="curve"/>
      <point x="788" y="667" type="line"/>
      <point x="454" y="667" type="line"/>
      <point x="454" y="612" type="line"/>
      <point x="515" y="596"/>
      <point x="557" y="575"/>
      <point x="557" y="575" type="curve"/>
      <point x="557" y="382" type="line"/>
      <point x="277" y="382" type="line"/>
      <point x="277" y="574" type="line"/>
      <point x="277" y="574"/>
      <point x="289" y="586"/>
      <point x="368" y="612" type="curve"/>
      <point x="368" y="667" type="line"/>
      <point x="34" y="667" type="line"/>
      <point x="34" y="612" type="line"/>
      <point x="95" y="596"/>
      <point x="137" y="575"/>
      <point x="137" y="575" type="curve"/>
      <point x="137" y="93" type="line"/>
      <point x="137" y="93"/>
      <point x="125" y="81"/>
      <point x="46" y="55" type="curve"/>
      <point x="46" y="0" type="line"/>
    </contour>
  </outline>
</glyph>
<glyph name="I" format="1">
  <advance width="416"/>
  <unicode hex="0049"/>
  <outline>
    <contour>
      <point x="384" y="0" type="line"/>
      <point x="384" y="55" type="line"/>
      <point x="316" y="74"/>
      <point x="283.0" y="92.0"/>
      <point x="283.0" y="92.0" type="curve"/>
      <point x="283.0" y="574.0" type="line"/>
      <point x="283.0" y="574.0"/>
      <point x="296" y="586"/>
      <point x="375" y="612" type="curve"/>
      <point x="375" y="667" type="line"/>
      <point x="40" y="667" type="line"/>
      <point x="40" y="612" type="line"/>
      <point x="101" y="596"/>
      <point x="143.0" y="575.0"/>
      <point x="143.0" y="575.0" type="curve"/>
      <point x="143.0" y="93.0" type="line"/>
      <point x="143.0" y="93.0"/>
      <point x="112" y="73"/>
      <point x="49" y="55" type="curve"/>
      <point x="49" y="0" type="line"/>
    </contour>
  </outline>
</glyph>
<glyph name="J" format="1">
  <advance width="491"/>
  <unicode hex="004A"/>
  <outline>
    <contour>
      <point x="462" y="667" type="line"/>
      <point x="119" y="667" type="line"/>
      <point x="119" y="602" type="line"/>
      <point x="206" y="595" type="line"/>
      <point x="224" y="573"/>
      <point x="227" y="548"/>
      <point x="227" y="509" type="curve" smooth="yes"/>
      <point x="227" y="146" type="line" smooth="yes"/>
      <point x="227" y="46"/>
      <point x="221" y="-11"/>
      <point x="143" y="-11" type="curve" smooth="yes"/>
      <point x="118" y="-11"/>
      <point x="100" y="0"/>
      <point x="100" y="0" type="curve"/>
      <point x="100" y="0"/>
      <point x="84" y="64"/>
      <point x="76" y="109" type="curve"/>
      <point x="54" y="109"/>
      <point x="21" y="108"/>
      <point x="-2" y="109" type="curve"/>
      <point x="-2" y="-77" type="line"/>
      <point x="30" y="-85"/>
      <point x="97" y="-101"/>
      <point x="132" y="-101" type="curve" smooth="yes"/>
      <point x="356" y="-101"/>
      <point x="372" y="39"/>
      <point x="372" y="170" type="curve" smooth="yes"/>
      <point x="372" y="542" type="line" smooth="yes"/>
      <point x="372" y="561"/>
      <point x="373" y="577"/>
      <point x="376" y="591" type="curve"/>
      <point x="393" y="598"/>
      <point x="428" y="599"/>
      <point x="459" y="602" type="curve"/>
    </contour>
  </outline>
</glyph>
<glyph name="N" format="1">
  <advance width="822"/>
  <unicode hex="004E"/>
  <outline>
    <contour>
      <point x="585" y="-6" type="curve"/>
      <point x="700" y="1" type="line"/>
      <point x="700" y="533" type="line" smooth="yes"/>
      <point x="700" y="555"/>
      <point x="701" y="574"/>
      <point x="704" y="591" type="curve"/>
      <point x="722" y="598"/>
      <point x="757" y="599"/>
      <point x="788" y="602" type="curve"/>
      <point x="790" y="667" type="line"/>
      <point x="497" y="667" type="line"/>
      <point x="494" y="602" type="line"/>
      <point x="533" y="599"/>
      <point x="582" y="599"/>
      <point x="609" y="591" type="curve"/>
      <point x="612" y="576"/>
      <point x="613" y="560"/>
      <point x="614" y="539" type="curve"/>
      <point x="616" y="196" type="line"/>
      <point x="520" y="347"/>
      <point x="390" y="531"/>
      <point x="296" y="667" type="curve"/>
      <point x="37" y="667" type="line"/>
      <point x="34" y="602" type="line"/>
      <point x="67" y="599"/>
      <point x="111" y="599"/>
      <point x="132" y="591" type="curve"/>
      <point x="135" y="574"/>
      <point x="136" y="555"/>
      <point x="136" y="533" type="curve" smooth="yes"/>
      <point x="136" y="134" type="line" smooth="yes"/>
      <point x="136" y="111"/>
      <point x="135" y="92"/>
      <point x="132" y="75" type="curve"/>
      <point x="122" y="71"/>
      <point x="109" y="69"/>
      <point x="92" y="68" type="curve" smooth="yes"/>
      <point x="37" y="64" type="line"/>
      <point x="37" y="0" type="line"/>
      <point x="340" y="0" type="line"/>
      <point x="340" y="65" type="line"/>
      <point x="275" y="68" type="line" smooth="yes"/>
      <point x="256" y="69"/>
      <point x="240" y="71"/>
      <point x="227" y="75" type="curve"/>
      <point x="224" y="92"/>
      <point x="223" y="112"/>
      <point x="223" y="134" type="curve" smooth="yes"/>
      <point x="220" y="536" type="line"/>
      <point x="221" y="536"/>
      <point x="221" y="536"/>
      <point x="221" y="536" type="curve"/>
      <point x="321" y="392"/>
      <point x="476" y="169"/>
    </contour>
  </outline>
</glyph>
<glyph name="O" format="1">
  <advance width="765"/>
  <unicode hex="004F"/>
  <outline>
    <contour>
      <point x="377" y="-14" type="curve" smooth="yes"/>
      <point x="582" y="-14"/>
      <point x="716" y="113"/>
      <point x="716" y="340" type="curve" smooth="yes"/>
      <point x="716" y="549"/>
      <point x="587" y="682"/>
      <point x="387" y="682" type="curve" smooth="yes"/>
      <point x="178" y="682"/>
      <point x="49" y="547"/>
      <point x="49" y="326" type="curve" smooth="yes"/>
      <point x="49" y="111"/>
      <point x="183" y="-14"/>
    </contour>
    <contour>
      <point x="382" y="60" type="curve" smooth="yes"/>
      <point x="268" y="60"/>
      <point x="206" y="144"/>
      <point x="206" y="333" type="curve" smooth="yes"/>
      <point x="206" y="527"/>
      <point x="274" y="608"/>
      <point x="385" y="608" type="curve" smooth="yes"/>
      <point x="494" y="608"/>
      <point x="559" y="527"/>
      <point x="559" y="335" type="curve" smooth="yes"/>
      <point x="559" y="152"/>
      <point x="497" y="60"/>
    </contour>
  </outline>
</glyph>
<glyph name="P" format="1">
  <advance width="637"/>
  <unicode hex="0050"/>
  <outline>
    <contour>
      <point x="270" y="358" type="line"/>
      <point x="270" y="603" type="line"/>
      <point x="331" y="603" type="line" smooth="yes"/>
      <point x="406" y="603"/>
      <point x="449" y="558"/>
      <point x="449" y="485" type="curve" smooth="yes"/>
      <point x="449" y="398"/>
      <point x="392" y="358"/>
      <point x="315" y="358" type="curve" smooth="yes"/>
    </contour>
    <contour>
      <point x="373" y="0" type="line"/>
      <point x="373" y="55" type="line"/>
      <point x="312" y="71"/>
      <point x="270" y="92"/>
      <point x="270" y="92" type="curve"/>
      <point x="270" y="294" type="line"/>
      <point x="323" y="294" type="line" smooth="yes"/>
      <point x="496" y="294"/>
      <point x="583" y="364"/>
      <point x="583" y="486" type="curve" smooth="yes"/>
      <point x="583" y="608"/>
      <point x="509" y="667"/>
      <point x="355" y="667" type="curve" smooth="yes"/>
      <point x="39" y="667" type="line"/>
      <point x="39" y="612" type="line"/>
      <point x="98" y="593"/>
      <point x="130" y="567"/>
      <point x="130" y="567" type="curve" smooth="yes"/>
      <point x="130" y="93" type="line"/>
      <point x="130" y="93"/>
      <point x="118" y="81"/>
      <point x="39" y="55" type="curve"/>
      <point x="39" y="0" type="line"/>
    </contour>
  </outline>
</glyph>
<glyph name="Q" format="1">
  <advance width="765"/>
  <unicode hex="0051"/>
  <outline>
    <contour>
      <point x="669" y="-139" type="line"/>
      <point x="734" y="-48" type="line"/>
      <point x="670" y="-27"/>
      <point x="598" y="15"/>
      <point x="537" y="26" type="curve"/>
      <point x="657" y="61"/>
      <point x="710" y="196"/>
      <point x="710" y="330" type="curve" smooth="yes"/>
      <point x="710" y="551"/>
      <point x="561" y="682"/>
      <point x="387" y="682" type="curve" smooth="yes"/>
      <point x="198" y="682"/>
      <point x="51" y="568"/>
      <point x="51" y="334" type="curve" smooth="yes"/>
      <point x="51" y="130"/>
      <point x="162" y="-9"/>
      <point x="355" y="-12" type="curve"/>
      <point x="410" y="-26"/>
      <point x="470" y="-44"/>
      <point x="532" y="-74" type="curve" smooth="yes"/>
    </contour>
    <contour>
      <point x="281" y="62"/>
      <point x="206" y="132"/>
      <point x="206" y="333" type="curve" smooth="yes"/>
      <point x="206" y="534"/>
      <point x="282" y="608"/>
      <point x="382" y="608" type="curve" smooth="yes"/>
      <point x="480" y="608"/>
      <point x="553" y="529"/>
      <point x="553" y="335" type="curve" smooth="yes"/>
      <point x="553" y="158"/>
      <point x="487" y="62"/>
      <point x="386" y="62" type="curve" smooth="yes"/>
    </contour>
  </outline>
</glyph>
<glyph name="R" format="1">
  <advance width="732"/>
  <unicode hex="0052"/>
  <outline>
    <contour>
      <point x="262" y="603" type="line"/>
      <point x="330" y="603" type="line" smooth="yes"/>
      <point x="389" y="603"/>
      <point x="443" y="570"/>
      <point x="443" y="500" type="curve" smooth="yes"/>
      <point x="443" y="415"/>
      <point x="383" y="375"/>
      <point x="294" y="375" type="curve" smooth="yes"/>
      <point x="262" y="375" type="line"/>
    </contour>
    <contour>
    </contour>
    <contour>
      <point x="363" y="55" type="line"/>
      <point x="295" y="74"/>
      <point x="262" y="92"/>
      <point x="262" y="92" type="curve"/>
      <point x="262" y="311" type="line"/>
      <point x="302" y="311" type="line" smooth="yes"/>
      <point x="341" y="311"/>
      <point x="346" y="311"/>
      <point x="346" y="312" type="curve" smooth="yes"/>
      <point x="346" y="313"/>
      <point x="497" y="0"/>
      <point x="497" y="0" type="curve"/>
      <point x="669" y="0" type="line"/>
      <point x="669" y="62" type="line"/>
      <point x="621" y="78" type="line"/>
      <point x="601" y="100"/>
      <point x="575" y="141"/>
      <point x="563" y="160" type="curve" smooth="yes"/>
      <point x="559" y="167"/>
      <point x="484" y="309"/>
      <point x="461" y="354" type="curve"/>
      <point x="461" y="356"/>
      <point x="462" y="356"/>
      <point x="463" y="357" type="curve"/>
      <point x="529" y="377"/>
      <point x="580" y="423"/>
      <point x="580" y="508" type="curve" smooth="yes"/>
      <point x="580" y="610"/>
      <point x="504" y="667"/>
      <point x="357" y="667" type="curve" smooth="yes"/>
      <point x="19" y="667" type="line"/>
      <point x="19" y="612" type="line"/>
      <point x="80" y="596"/>
      <point x="122" y="575"/>
      <point x="122" y="575" type="curve"/>
      <point x="122" y="93" type="line"/>
      <point x="122" y="93"/>
      <point x="91" y="73"/>
      <point x="28" y="55" type="curve"/>
      <point x="28" y="0" type="line"/>
      <point x="363" y="0" type="line"/>
    </contour>
  </outline>
</glyph>
<glyph name="S" format="1">
  <advance width="600"/>
  <unicode hex="0053"/>
  <outline>
    <contour>
      <point x="281" y="-14" type="curve" smooth="yes"/>
      <point x="420" y="-14"/>
      <point x="539" y="56"/>
      <point x="539" y="188" type="curve" smooth="yes"/>
      <point x="539" y="400"/>
      <point x="209" y="386"/>
      <point x="209" y="521" type="curve" smooth="yes"/>
      <point x="209" y="582"/>
      <point x="258" y="614"/>
      <point x="323" y="614" type="curve" smooth="yes"/>
      <point x="350" y="614"/>
      <point x="375" y="607"/>
      <point x="393" y="597" type="curve"/>
      <point x="410" y="566"/>
      <point x="417" y="526"/>
      <point x="421" y="473" type="curve"/>
      <point x="503" y="479" type="line"/>
      <point x="507" y="649" type="line"/>
      <point x="450" y="671"/>
      <point x="385" y="682"/>
      <point x="317" y="682" type="curve" smooth="yes"/>
      <point x="170" y="682"/>
      <point x="70" y="605"/>
      <point x="70" y="485" type="curve" smooth="yes"/>
      <point x="70" y="283"/>
      <point x="392" y="308"/>
      <point x="392" y="156" type="curve" smooth="yes"/>
      <point x="392" y="86"/>
      <point x="329" y="58"/>
      <point x="272" y="58" type="curve" smooth="yes"/>
      <point x="143" y="58"/>
      <point x="156" y="138"/>
      <point x="151" y="215" type="curve"/>
      <point x="65" y="208" type="line"/>
      <point x="64" y="32" type="line"/>
      <point x="111" y="4"/>
      <point x="196" y="-14"/>
    </contour>
  </outline>
</glyph>
<glyph name="T" format="1">
  <advance width="682"/>
  <unicode hex="0054"/>
  <outline>
    <contour>
      <point x="171" y="0" type="line"/>
      <point x="515" y="0" type="line"/>
      <point x="515" y="64" type="line"/>
      <point x="458" y="68" type="line" smooth="yes"/>
      <point x="441" y="69"/>
      <point x="428" y="71"/>
      <point x="418" y="75" type="curve"/>
      <point x="415" y="89"/>
      <point x="414" y="104"/>
      <point x="414" y="123" type="curve" smooth="yes"/>
      <point x="414" y="588" type="line"/>
      <point x="498" y="590" type="line" smooth="yes"/>
      <point x="501" y="590"/>
      <point x="505" y="590"/>
      <point x="508" y="590" type="curve" smooth="yes"/>
      <point x="555" y="590"/>
      <point x="553" y="576"/>
      <point x="556" y="539" type="curve" smooth="yes"/>
      <point x="562" y="454" type="line"/>
      <point x="644" y="459" type="line"/>
      <point x="644" y="668" type="line"/>
      <point x="323" y="668" type="line"/>
      <point x="36" y="668" type="line"/>
      <point x="36" y="459" type="line"/>
      <point x="121" y="454" type="line"/>
      <point x="125" y="499"/>
      <point x="127" y="554"/>
      <point x="139" y="585" type="curve"/>
      <point x="154" y="588"/>
      <point x="173" y="591"/>
      <point x="198" y="590" type="curve" smooth="yes"/>
      <point x="269" y="588" type="line"/>
      <point x="269" y="123" type="line" smooth="yes"/>
      <point x="269" y="104"/>
      <point x="268" y="89"/>
      <point x="265" y="75" type="curve"/>
      <point x="255" y="71"/>
      <point x="241" y="69"/>
      <point x="225" y="68" type="curve" smooth="yes"/>
      <point x="171" y="64" type="line"/>
    </contour>
  </outline>
</glyph>
<glyph name="V" format="1">
  <advance width="735"/>
  <unicode hex="0056"/>
  <outline>
    <contour>
      <point x="724" y="667" type="line"/>
      <point x="449" y="667" type="line"/>
      <point x="446" y="603" type="line"/>
      <point x="481" y="600"/>
      <point x="528" y="601"/>
      <point x="547" y="587" type="curve"/>
      <point x="545" y="576"/>
      <point x="540" y="565"/>
      <point x="535" y="552" type="curve" smooth="yes"/>
      <point x="518" y="504" type="line"/>
      <point x="489" y="430"/>
      <point x="415" y="182"/>
      <point x="392" y="130" type="curve"/>
      <point x="356" y="247"/>
      <point x="305" y="385"/>
      <point x="263" y="502" type="curve" smooth="yes"/>
      <point x="244" y="554" type="line" smooth="yes"/>
      <point x="240" y="565"/>
      <point x="236" y="576"/>
      <point x="233" y="587" type="curve"/>
      <point x="241" y="595"/>
      <point x="258" y="597"/>
      <point x="281" y="599" type="curve" smooth="yes"/>
      <point x="332" y="603" type="line"/>
      <point x="332" y="667" type="line"/>
      <point x="-1" y="667" type="line"/>
      <point x="-1" y="603" type="line"/>
      <point x="40" y="599" type="line" smooth="yes"/>
      <point x="53" y="597"/>
      <point x="64" y="594"/>
      <point x="74" y="590" type="curve"/>
      <point x="100" y="554"/>
      <point x="128" y="465"/>
      <point x="153" y="398" type="curve" smooth="yes"/>
      <point x="204" y="262"/>
      <point x="263" y="113"/>
      <point x="300" y="-5" type="curve"/>
      <point x="437" y="-5" type="line"/>
      <point x="492" y="167"/>
      <point x="573" y="384"/>
      <point x="636" y="551" type="curve" smooth="yes"/>
      <point x="657" y="606"/>
      <point x="678" y="598"/>
      <point x="721" y="603" type="curve"/>
    </contour>
  </outline>
</glyph>
<glyph name="W" format="1">
  <advance width="1090"/>
  <unicode hex="0057"/>
  <outline>
    <contour>
      <point x="707" y="-3" type="line"/>
      <point x="842" y="-3" type="line"/>
      <point x="884" y="176"/>
      <point x="940" y="369"/>
      <point x="988" y="531" type="curve" smooth="yes"/>
      <point x="995" y="557"/>
      <point x="1000" y="575"/>
      <point x="1009" y="589" type="curve"/>
      <point x="1028" y="597"/>
      <point x="1058" y="599"/>
      <point x="1084" y="602" type="curve"/>
      <point x="1084" y="667" type="line"/>
      <point x="815" y="667" type="line"/>
      <point x="809" y="602" type="line"/>
      <point x="847" y="599"/>
      <point x="883" y="601"/>
      <point x="904" y="587" type="curve"/>
      <point x="891" y="513"/>
      <point x="792" y="148"/>
      <point x="792" y="148" type="curve"/>
      <point x="639" y="667" type="line"/>
      <point x="491" y="667" type="line"/>
      <point x="337" y="148" type="line"/>
      <point x="337" y="148"/>
      <point x="239" y="534"/>
      <point x="239" y="534" type="curve"/>
      <point x="234" y="554"/>
      <point x="229" y="571"/>
      <point x="226" y="584" type="curve"/>
      <point x="246" y="598"/>
      <point x="276" y="599"/>
      <point x="318" y="602" type="curve"/>
      <point x="320" y="667" type="line"/>
      <point x="2" y="667" type="line"/>
      <point x="2" y="602" type="line"/>
      <point x="24" y="599"/>
      <point x="57" y="597"/>
      <point x="76" y="589" type="curve"/>
      <point x="105" y="531"/>
      <point x="142" y="380"/>
      <point x="171" y="277" type="curve" smooth="yes"/>
      <point x="199" y="177"/>
      <point x="226" y="79"/>
      <point x="245" y="-3" type="curve"/>
      <point x="377" y="-3" type="line"/>
      <point x="543" y="520" type="line"/>
      <point x="546" y="520" type="line"/>
    </contour>
  </outline>
</glyph>
<glyph name="Z" format="1">
  <advance width="659"/>
  <unicode hex="005A"/>
  <outline>
    <contour>
      <point x="56" y="0" type="line"/>
      <point x="602" y="0" type="line"/>
      <point x="602" y="214" type="line"/>
      <point x="515" y="214" type="line"/>
      <point x="506" y="164" type="line"/>
      <point x="503" y="132"/>
      <point x="498" y="107"/>
      <point x="491" y="87" type="curve"/>
      <point x="473" y="80"/>
      <point x="453" y="78"/>
      <point x="432" y="78" type="curve" smooth="yes"/>
      <point x="199" y="78" type="line"/>
      <point x="310" y="243"/>
      <point x="474" y="443"/>
      <point x="597" y="584" type="curve"/>
      <point x="588" y="667" type="line"/>
      <point x="75" y="667" type="line"/>
      <point x="75" y="474" type="line"/>
      <point x="159" y="474" type="line"/>
      <point x="166" y="510" type="line"/>
      <point x="168" y="553"/>
      <point x="178" y="578"/>
      <point x="198" y="590" type="curve"/>
      <point x="422" y="590" type="line"/>
      <point x="304" y="453"/>
      <point x="153" y="253"/>
      <point x="49" y="99" type="curve"/>
    </contour>
  </outline>
</glyph>
<glyph name="bracketleft" format="1">
  <advance width="345"/>
  <unicode hex="005B"/>
  <outline>
    <contour>
      <point x="313" y="707" type="line"/>
      <point x="86" y="707" type="line"/>
      <point x="86" y="639" type="line"/>
      <point x="86" y="-110" type="line"/>
      <point x="86" y="-183" type="line"/>
      <point x="313" y="-183" type="line"/>
      <point x="313" y="-102" type="line"/>
      <point x="218" y="-102" type="line"/>
      <point x="218" y="631" type="line"/>
      <point x="313" y="631" type="line"/>
    </contour>
  </outline>
</glyph>
<glyph name="backslash" format="1">
  <advance width="378"/>
  <unicode hex="005C"/>
  <outline>
    <contour>
      <point x="382" y="-9" type="line"/>
      <point x="114" y="688" type="line"/>
      <point x="0" y="688" type="line"/>
      <point x="269" y="-9" type="line"/>
    </contour>
  </outline>
</glyph>
<glyph name="bracketright" format="1">
  <advance width="345"/>
  <unicode hex="005D"/>
  <outline>
    <contour>
      <point x="32" y="712" type="line"/>
      <point x="32" y="631" type="line"/>
      <point x="127" y="631" type="line"/>
      <point x="127" y="-102" type="line"/>
      <point x="32" y="-102" type="line"/>
      <point x="32" y="-178" type="line"/>
      <point x="259" y="-178" type="line"/>
      <point x="259" y="-93" type="line"/>
      <point x="259" y="651" type="line"/>
      <point x="259" y="712" type="line"/>
    </contour>
  </outline>
</glyph>
<glyph name="a" format="1">
  <advance width="522"/>
  <unicode hex="0061"/>
  <outline>
    <contour>
      <point x="204" y="-13"/>
      <point x="280" y="18"/>
      <point x="321" y="69" type="curve"/>
      <point x="328" y="50"/>
      <point x="347" y="1"/>
      <point x="378" y="-5" type="curve"/>
      <point x="419" y="-5"/>
      <point x="435" y="-7"/>
      <point x="511" y="0" type="curve"/>
      <point x="511" y="60" type="line"/>
      <point x="511" y="60"/>
      <point x="495" y="62"/>
      <point x="495" y="62" type="curve" smooth="yes"/>
      <point x="455" y="66"/>
      <point x="439" y="66"/>
      <point x="439" y="107" type="curve" smooth="yes"/>
      <point x="439" y="135"/>
      <point x="439" y="296"/>
      <point x="439" y="327" type="curve" smooth="yes"/>
      <point x="439" y="446"/>
      <point x="370" y="475"/>
      <point x="243" y="475" type="curve"/>
      <point x="171" y="472"/>
      <point x="100" y="455"/>
      <point x="59" y="431" type="curve"/>
      <point x="59" y="431"/>
      <point x="74" y="292"/>
      <point x="74" y="292" type="curve"/>
      <point x="140" y="292" type="line"/>
      <point x="141" y="292"/>
      <point x="154" y="394"/>
      <point x="154" y="394" type="curve" smooth="yes"/>
      <point x="154" y="394"/>
      <point x="214" y="404"/>
      <point x="239" y="404" type="curve" smooth="yes"/>
      <point x="284" y="404"/>
      <point x="307" y="374"/>
      <point x="307" y="316" type="curve" smooth="yes"/>
      <point x="307" y="299"/>
      <point x="307" y="271"/>
      <point x="307" y="263" type="curve"/>
      <point x="235" y="251" type="line" smooth="yes"/>
      <point x="108" y="230"/>
      <point x="28" y="209"/>
      <point x="28" y="113" type="curve" smooth="yes"/>
      <point x="28" y="37"/>
      <point x="82" y="-13"/>
      <point x="161" y="-13" type="curve"/>
    </contour>
    <contour>
      <point x="307" y="222" type="line"/>
      <point x="307" y="214"/>
      <point x="307" y="178"/>
      <point x="307" y="169" type="curve" smooth="yes"/>
      <point x="307" y="113"/>
      <point x="286" y="64"/>
      <point x="223" y="64" type="curve"/>
      <point x="186" y="64"/>
      <point x="162" y="85"/>
      <point x="162" y="129" type="curve" smooth="yes"/>
      <point x="162" y="186"/>
      <point x="226" y="203"/>
      <point x="265" y="212" type="curve" smooth="yes"/>
    </contour>
  </outline>
</glyph>
<glyph name="b" format="1">
  <advance width="588"/>
  <unicode hex="0062"/>
  <outline>
    <contour>
      <point x="17" y="671" type="curve"/>
      <point x="17" y="617" type="line"/>
      <point x="85" y="601"/>
      <point x="97" y="581"/>
      <point x="97" y="575" type="curve" smooth="yes"/>
      <point x="97.0" y="0.0" type="line" smooth="yes"/>
      <point x="97" y="0"/>
      <point x="212" y="0"/>
      <point x="212" y="0" type="curve" smooth="yes"/>
      <point x="212" y="0"/>
      <point x="222" y="44"/>
      <point x="222" y="44" type="curve"/>
      <point x="245" y="15"/>
      <point x="307.0" y="-10.0"/>
      <point x="351.0" y="-10.0" type="curve" smooth="yes"/>
      <point x="468.0" y="-10.0"/>
      <point x="554.0" y="90.0"/>
      <point x="554.0" y="237.0" type="curve" smooth="yes"/>
      <point x="554.0" y="400.0"/>
      <point x="477.0" y="476.0"/>
      <point x="364.0" y="476.0" type="curve" smooth="yes"/>
      <point x="306.0" y="476.0"/>
      <point x="262.0" y="452.0"/>
      <point x="229.0" y="409.0" type="curve"/>
      <point x="229" y="574" type="line"/>
      <point x="229" y="682" type="line"/>
      <point x="159" y="677"/>
      <point x="80" y="673"/>
    </contour>
    <contour>
      <point x="412.0" y="234.0" type="curve" smooth="yes"/>
      <point x="412.0" y="115.0"/>
      <point x="368.0" y="69.0"/>
      <point x="307.0" y="69.0" type="curve" smooth="yes"/>
      <point x="279.0" y="69.0"/>
      <point x="243.0" y="81.0"/>
      <point x="227.0" y="105.0" type="curve"/>
      <point x="227.0" y="105.0"/>
      <point x="227.0" y="217.0"/>
      <point x="227.0" y="221.0" type="curve" smooth="yes"/>
      <point x="227.0" y="283.0"/>
      <point x="234.0" y="330.0"/>
      <point x="248.0" y="365.0" type="curve"/>
      <point x="264.0" y="380.0"/>
      <point x="287.0" y="388.0"/>
      <point x="313.0" y="388.0" type="curve" smooth="yes"/>
      <point x="372.0" y="388.0"/>
      <point x="412.0" y="348.0"/>
    </contour>
  </outline>
</glyph>
<glyph name="c" format="1">
  <advance width="478"/>
  <unicode hex="0063"/>
  <outline>
    <contour>
      <point x="463" y="85"/>
      <point x="415" y="140"/>
      <point x="415" y="140" type="curve"/>
      <point x="387" y="99"/>
      <point x="332" y="68"/>
      <point x="283" y="68" type="curve" smooth="yes"/>
      <point x="216" y="68"/>
      <point x="169" y="107"/>
      <point x="169" y="233" type="curve" smooth="yes"/>
      <point x="169" y="357"/>
      <point x="218" y="404"/>
      <point x="270" y="404" type="curve" smooth="yes"/>
      <point x="293" y="404"/>
      <point x="323" y="401"/>
      <point x="340" y="390" type="curve" smooth="yes"/>
      <point x="340" y="390"/>
      <point x="360" y="286"/>
      <point x="360" y="286" type="curve"/>
      <point x="360" y="286"/>
      <point x="425" y="286"/>
      <point x="425" y="286" type="curve"/>
      <point x="434" y="443" type="line"/>
      <point x="412" y="452"/>
      <point x="350" y="476"/>
      <point x="272" y="476" type="curve" smooth="yes"/>
      <point x="133" y="476"/>
      <point x="25" y="391"/>
      <point x="25" y="230" type="curve" smooth="yes"/>
      <point x="25" y="84"/>
      <point x="114" y="-13"/>
      <point x="259" y="-13" type="curve" smooth="yes"/>
      <point x="373" y="-13"/>
      <point x="436" y="44"/>
      <point x="463" y="85" type="curve"/>
    </contour>
  </outline>
</glyph>
<glyph name="d" format="1">
  <advance width="583"/>
  <unicode hex="0064"/>
  <outline>
    <contour>
      <point x="228.0" y="-13.0" type="curve" smooth="yes"/>
      <point x="292.0" y="-13.0"/>
      <point x="343.0" y="16.0"/>
      <point x="373.0" y="71.0" type="curve"/>
      <point x="373" y="0" type="line"/>
      <point x="574.0" y="0.0" type="line"/>
      <point x="574" y="53" type="line"/>
      <point x="532" y="58"/>
      <point x="491" y="77"/>
      <point x="491" y="81" type="curve" smooth="yes"/>
      <point x="491" y="574" type="line"/>
      <point x="491" y="683" type="line"/>
      <point x="415" y="675"/>
      <point x="342" y="673"/>
      <point x="279" y="671" type="curve"/>
      <point x="279" y="655"/>
      <point x="279" y="618"/>
      <point x="279" y="618" type="curve"/>
      <point x="329" y="604"/>
      <point x="359" y="587"/>
      <point x="359" y="575" type="curve" smooth="yes"/>
      <point x="359" y="430" type="line"/>
      <point x="349" y="442"/>
      <point x="293.263931003" y="474.0"/>
      <point x="246.0" y="474.0" type="curve" smooth="yes"/>
      <point x="127.0" y="474.0"/>
      <point x="34.0" y="392.0"/>
      <point x="34.0" y="219.0" type="curve" smooth="yes"/>
      <point x="34.0" y="63.0"/>
      <point x="121.0" y="-13.0"/>
    </contour>
    <contour>
      <point x="278.0" y="75.0" type="curve" smooth="yes"/>
      <point x="215.0" y="75.0"/>
      <point x="176.0" y="121.0"/>
      <point x="176.0" y="232.0" type="curve" smooth="yes"/>
      <point x="176.0" y="347.0"/>
      <point x="216.0" y="392.0"/>
      <point x="279.0" y="392.0" type="curve" smooth="yes"/>
      <point x="311.0" y="392.0"/>
      <point x="345" y="379"/>
      <point x="359" y="363" type="curve"/>
      <point x="359" y="363"/>
      <point x="359" y="258"/>
      <point x="359" y="201" type="curve" smooth="yes"/>
      <point x="359" y="126"/>
      <point x="335.039521643" y="75.0"/>
    </contour>
  </outline>
</glyph>
<glyph name="e" format="1">
  <advance width="517"/>
  <unicode hex="0065"/>
  <outline>
    <contour>
      <point x="473" y="228" type="line"/>
      <point x="475" y="240"/>
      <point x="475" y="252"/>
      <point x="475" y="263" type="curve" smooth="yes"/>
      <point x="475" y="399"/>
      <point x="397" y="476"/>
      <point x="266" y="476" type="curve" smooth="yes"/>
      <point x="128" y="476"/>
      <point x="34" y="381"/>
      <point x="34" y="229" type="curve" smooth="yes"/>
      <point x="34" y="79"/>
      <point x="136" y="-13"/>
      <point x="278" y="-13" type="curve" smooth="yes"/>
      <point x="372" y="-13"/>
      <point x="435" y="25"/>
      <point x="471" y="85" type="curve"/>
      <point x="471" y="85"/>
      <point x="423" y="140"/>
      <point x="423" y="140" type="curve"/>
      <point x="423" y="140"/>
      <point x="380" y="65"/>
      <point x="293" y="65" type="curve" smooth="yes"/>
      <point x="204" y="65"/>
      <point x="170" y="134"/>
      <point x="170" y="220" type="curve" smooth="yes"/>
      <point x="170" y="223"/>
      <point x="170" y="225"/>
      <point x="170" y="228" type="curve"/>
    </contour>
    <contour>
      <point x="172" y="283" type="line"/>
      <point x="177" y="349"/>
      <point x="203" y="415"/>
      <point x="266" y="415" type="curve" smooth="yes"/>
      <point x="331" y="415"/>
      <point x="357" y="361"/>
      <point x="367" y="294" type="curve"/>
    </contour>
  </outline>
</glyph>
<glyph name="f" format="1">
  <advance width="393"/>
  <unicode hex="0066"/>
  <outline>
    <contour>
      <point x="326" y="0" type="line"/>
      <point x="326" y="60" type="line"/>
      <point x="282" y="69"/>
      <point x="245" y="89"/>
      <point x="245" y="89" type="curve"/>
      <point x="245" y="392" type="line"/>
      <point x="365" y="392" type="line"/>
      <point x="365" y="462" type="line"/>
      <point x="245" y="462" type="line"/>
      <point x="241" y="492"/>
      <point x="239" y="517"/>
      <point x="239" y="538" type="curve" smooth="yes"/>
      <point x="239" y="622"/>
      <point x="269" y="641"/>
      <point x="294" y="641" type="curve" smooth="yes"/>
      <point x="323" y="641"/>
      <point x="333" y="605"/>
      <point x="346" y="568" type="curve"/>
      <point x="395" y="568" type="line"/>
      <point x="395" y="716" type="line"/>
      <point x="376" y="719"/>
      <point x="353" y="724"/>
      <point x="329" y="724" type="curve" smooth="yes"/>
      <point x="185" y="724"/>
      <point x="113" y="645"/>
      <point x="113" y="497" type="curve" smooth="yes"/>
      <point x="113" y="465" type="line"/>
      <point x="28" y="458" type="line"/>
      <point x="28" y="392" type="line"/>
      <point x="113" y="392" type="line"/>
      <point x="113" y="98" type="line"/>
      <point x="113" y="97"/>
      <point x="111" y="86"/>
      <point x="32" y="60" type="curve"/>
      <point x="32" y="0" type="line"/>
    </contour>
  </outline>
</glyph>
<glyph name="g" format="1">
  <advance width="531"/>
  <unicode hex="0067"/>
  <outline>
    <contour>
      <point x="246" y="-251" type="curve" smooth="yes"/>
      <point x="407" y="-251"/>
      <point x="501" y="-178"/>
      <point x="501" y="-77" type="curve" smooth="yes"/>
      <point x="501.0" y="110.74001305"/>
      <point x="156" y="47"/>
      <point x="163" y="108" type="curve" smooth="yes"/>
      <point x="165" y="125"/>
      <point x="177" y="142"/>
      <point x="199" y="148" type="curve"/>
      <point x="213" y="146"/>
      <point x="242" y="140"/>
      <point x="260" y="140" type="curve" smooth="yes"/>
      <point x="388" y="140"/>
      <point x="462" y="206"/>
      <point x="462" y="310" type="curve" smooth="yes"/>
      <point x="462" y="341"/>
      <point x="436" y="380"/>
      <point x="419" y="394" type="curve"/>
      <point x="512" y="394" type="line"/>
      <point x="512" y="464" type="line"/>
      <point x="364" y="457" type="line"/>
      <point x="339" y="466"/>
      <point x="295" y="475"/>
      <point x="262" y="475" type="curve" smooth="yes"/>
      <point x="144" y="475"/>
      <point x="61" y="411"/>
      <point x="61" y="310" type="curve" smooth="yes"/>
      <point x="61" y="244"/>
      <point x="98" y="203"/>
      <point x="149" y="182" type="curve"/>
      <point x="111" y="171"/>
      <point x="53" y="136"/>
      <point x="53" y="92" type="curve" smooth="yes"/>
      <point x="53" y="45"/>
      <point x="83" y="22"/>
      <point x="133" y="9" type="curve"/>
      <point x="132" y="9"/>
      <point x="131" y="9"/>
      <point x="130" y="9" type="curve" smooth="yes"/>
      <point x="113" y="9"/>
      <point x="50" y="-34"/>
      <point x="40" y="-42" type="curve"/>
      <point x="31" y="-56"/>
      <point x="24" y="-76"/>
      <point x="24" y="-95" type="curve" smooth="yes"/>
      <point x="24" y="-187"/>
      <point x="94" y="-251"/>
    </contour>
    <contour>
      <point x="388" y="-90" type="curve" smooth="yes"/>
      <point x="388" y="-139"/>
      <point x="349" y="-182"/>
      <point x="264" y="-182" type="curve" smooth="yes"/>
      <point x="176" y="-182"/>
      <point x="137" y="-135"/>
      <point x="137" y="-81" type="curve" smooth="yes"/>
      <point x="137" y="-53"/>
      <point x="182" y="-9"/>
      <point x="192" y="-10" type="curve" smooth="yes"/>
      <point x="367" y="-24"/>
      <point x="388.0" y="-53.4849672838"/>
    </contour>
    <contour>
      <point x="329" y="311" type="curve" smooth="yes"/>
      <point x="329" y="240"/>
      <point x="307" y="204"/>
      <point x="262" y="204" type="curve" smooth="yes"/>
      <point x="217" y="204"/>
      <point x="191" y="239"/>
      <point x="191" y="310" type="curve" smooth="yes"/>
      <point x="191" y="381"/>
      <point x="214" y="413"/>
      <point x="261" y="413" type="curve" smooth="yes"/>
      <point x="303" y="413"/>
      <point x="329" y="383"/>
    </contour>
  </outline>
</glyph>
<glyph name="h" format="1">
  <advance width="628"/>
  <unicode hex="0068"/>
  <outline>
    <contour>
      <point x="301.0" y="53.0" type="line"/>
      <point x="234.0" y="64.0"/>
      <point x="233.0" y="81.0"/>
      <point x="233.0" y="81.0" type="curve"/>
      <point x="233.0" y="277.0" type="line" smooth="yes"/>
      <point x="233.0" y="345.0"/>
      <point x="271.0" y="384.0"/>
      <point x="328.0" y="384.0" type="curve" smooth="yes"/>
      <point x="372.0" y="384.0"/>
      <point x="409.0" y="358.0"/>
      <point x="409.0" y="288.0" type="curve" smooth="yes"/>
      <point x="409.0" y="79.0" type="line"/>
      <point x="409.0" y="79.0"/>
      <point x="409.0" y="64.0"/>
      <point x="336.0" y="53.0" type="curve"/>
      <point x="336.0" y="0.0" type="line"/>
      <point x="609.0" y="0.0" type="line"/>
      <point x="609.0" y="53.0" type="line"/>
      <point x="541.0" y="63.0"/>
      <point x="541.0" y="76.0"/>
      <point x="541.0" y="76.0" type="curve"/>
      <point x="541.0" y="290.0" type="line" smooth="yes"/>
      <point x="541.0" y="430.0"/>
      <point x="482.0" y="476.0"/>
      <point x="375.0" y="476.0" type="curve" smooth="yes"/>
      <point x="312.0" y="476.0"/>
      <point x="263.0" y="445.0"/>
      <point x="233.0" y="404.0" type="curve"/>
      <point x="233.0" y="682.0" type="line"/>
      <point x="167.0" y="677.0"/>
      <point x="84.0" y="673.0"/>
      <point x="21.0" y="671.0" type="curve"/>
      <point x="21.0" y="618.0" type="line"/>
      <point x="57.0" y="606.0" type="line" smooth="yes"/>
      <point x="96.0" y="593.0"/>
      <point x="101.0" y="578.0"/>
      <point x="101.0" y="577.0" type="curve" smooth="yes"/>
      <point x="101.0" y="81.0" type="line"/>
      <point x="101.0" y="81.0"/>
      <point x="101.0" y="69.0"/>
      <point x="20.0" y="53.0" type="curve"/>
      <point x="20.0" y="0.0" type="line"/>
      <point x="301.0" y="0.0" type="line"/>
    </contour>
  </outline>
</glyph>
<glyph name="i" format="1">
  <advance width="326"/>
  <unicode hex="0069"/>
  <outline>
    <contour>
      <point x="217" y="561"/>
      <point x="242" y="591"/>
      <point x="242" y="630" type="curve" smooth="yes"/>
      <point x="242" y="669"/>
      <point x="215" y="699"/>
      <point x="174" y="699" type="curve" smooth="yes"/>
      <point x="133" y="699"/>
      <point x="107" y="669"/>
      <point x="107" y="630" type="curve" smooth="yes"/>
      <point x="107" y="591"/>
      <point x="135" y="561"/>
      <point x="176" y="561" type="curve" smooth="yes"/>
    </contour>
    <contour>
      <point x="318" y="0" type="line"/>
      <point x="318" y="55" type="line"/>
      <point x="273" y="61"/>
      <point x="246" y="75"/>
      <point x="241" y="81" type="curve"/>
      <point x="241" y="382" type="line"/>
      <point x="243" y="471" type="line"/>
      <point x="188" y="466"/>
      <point x="38" y="460"/>
      <point x="29" y="460" type="curve"/>
      <point x="29" y="407" type="line"/>
      <point x="102" y="388"/>
      <point x="109" y="364"/>
      <point x="109" y="363" type="curve" smooth="yes"/>
      <point x="109" y="82" type="line"/>
      <point x="109" y="82"/>
      <point x="107" y="69"/>
      <point x="27" y="53" type="curve"/>
      <point x="27" y="0" type="line"/>
    </contour>
  </outline>
</glyph>
<glyph name="k" format="1">
  <advance width="601"/>
  <unicode hex="006B"/>
  <outline>
    <contour>
      <point x="296" y="55" type="line"/>
      <point x="252" y="64"/>
      <point x="228" y="84"/>
      <point x="228" y="84" type="curve"/>
      <point x="228" y="192" type="line"/>
      <point x="269" y="225" type="line"/>
      <point x="387" y="79" type="line" smooth="yes"/>
      <point x="375" y="63"/>
      <point x="340" y="55"/>
      <point x="340" y="55" type="curve"/>
      <point x="340" y="0" type="line"/>
      <point x="593" y="0" type="line"/>
      <point x="593" y="55" type="line"/>
      <point x="564" y="60"/>
      <point x="530" y="73"/>
      <point x="523" y="81" type="curve" smooth="yes"/>
      <point x="363" y="285" type="line"/>
      <point x="487" y="394" type="line" smooth="yes"/>
      <point x="505" y="412"/>
      <point x="518" y="417"/>
      <point x="535" y="417" type="curve" smooth="yes"/>
      <point x="568" y="417" type="line"/>
      <point x="568" y="466" type="line"/>
      <point x="314" y="466" type="line"/>
      <point x="314" y="417" type="line"/>
      <point x="364" y="417" type="line" smooth="yes"/>
      <point x="371" y="417"/>
      <point x="380" y="413"/>
      <point x="380" y="403" type="curve" smooth="yes"/>
      <point x="380" y="395"/>
      <point x="376" y="383"/>
      <point x="331" y="344" type="curve" smooth="yes"/>
      <point x="228" y="265" type="line"/>
      <point x="228" y="685" type="line"/>
      <point x="161" y="677"/>
      <point x="79" y="673"/>
      <point x="16" y="671" type="curve"/>
      <point x="16" y="618" type="line"/>
      <point x="52" y="606" type="line" smooth="yes"/>
      <point x="91" y="593"/>
      <point x="96" y="578"/>
      <point x="96" y="577" type="curve"/>
      <point x="96" y="93" type="line"/>
      <point x="96" y="92"/>
      <point x="94" y="81"/>
      <point x="15" y="55" type="curve"/>
      <point x="15" y="0" type="line"/>
      <point x="296" y="0" type="line"/>
    </contour>
  </outline>
</glyph>
<glyph name="m" format="1">
  <advance width="896"/>
  <unicode hex="006D"/>
  <outline>
    <contour>
      <point x="294" y="0" type="line"/>
      <point x="294" y="55" type="line"/>
      <point x="250" y="64"/>
      <point x="236" y="84"/>
      <point x="236" y="84" type="curve"/>
      <point x="236" y="301" type="line"/>
      <point x="244" y="350"/>
      <point x="279" y="384"/>
      <point x="323" y="384" type="curve" smooth="yes"/>
      <point x="362" y="384"/>
      <point x="391" y="358"/>
      <point x="391" y="288" type="curve" smooth="yes"/>
      <point x="391" y="93" type="line"/>
      <point x="391" y="92"/>
      <point x="371" y="68"/>
      <point x="333" y="55" type="curve"/>
      <point x="333" y="0" type="line"/>
      <point x="579" y="0" type="line"/>
      <point x="579" y="55" type="line"/>
      <point x="535" y="64"/>
      <point x="523" y="84"/>
      <point x="523" y="84" type="curve"/>
      <point x="523" y="276" type="line" smooth="yes"/>
      <point x="523" y="343"/>
      <point x="567" y="384"/>
      <point x="615" y="384" type="curve" smooth="yes"/>
      <point x="654" y="384"/>
      <point x="678" y="358"/>
      <point x="678" y="288" type="curve" smooth="yes"/>
      <point x="678" y="88" type="line"/>
      <point x="675" y="82"/>
      <point x="662" y="71"/>
      <point x="612" y="55" type="curve"/>
      <point x="612" y="0" type="line"/>
      <point x="878" y="0" type="line"/>
      <point x="878" y="55" type="line"/>
      <point x="834" y="64"/>
      <point x="810" y="84"/>
      <point x="810" y="84" type="curve"/>
      <point x="810" y="290" type="line" smooth="yes"/>
      <point x="810" y="431"/>
      <point x="758" y="476"/>
      <point x="654" y="476" type="curve" smooth="yes"/>
      <point x="590" y="476"/>
      <point x="543" y="443"/>
      <point x="509" y="395" type="curve"/>
      <point x="490" y="452"/>
      <point x="440" y="476"/>
      <point x="375" y="476" type="curve" smooth="yes"/>
      <point x="314" y="476"/>
      <point x="259" y="450"/>
      <point x="221" y="382" type="curve"/>
      <point x="221" y="382"/>
      <point x="221" y="382"/>
      <point x="220" y="382" type="curve"/>
      <point x="222" y="471" type="line"/>
      <point x="166" y="463"/>
      <point x="106" y="454"/>
      <point x="28" y="451" type="curve"/>
      <point x="28" y="398" type="line"/>
      <point x="88" y="386"/>
      <point x="104" y="348"/>
      <point x="104" y="348" type="curve" smooth="yes"/>
      <point x="104" y="93" type="line"/>
      <point x="104" y="92"/>
      <point x="100" y="81"/>
      <point x="21" y="55" type="curve"/>
      <point x="21" y="0" type="line"/>
    </contour>
  </outline>
</glyph>
<glyph name="n" format="1">
  <advance width="630"/>
  <unicode hex="006E"/>
  <outline>
    <contour>
      <point x="304.0" y="0.0" type="line"/>
      <point x="304" y="56" type="line"/>
      <point x="266" y="65"/>
      <point x="236.0" y="80.0"/>
      <point x="236.0" y="80.0" type="curve" smooth="yes"/>
      <point x="236.0" y="301.0" type="line"/>
      <point x="245.0" y="353.0"/>
      <point x="284.0" y="384.0"/>
      <point x="332.0" y="384.0" type="curve" smooth="yes"/>
      <point x="376.0" y="384.0"/>
      <point x="411" y="358"/>
      <point x="411.0" y="288.0" type="curve" smooth="yes"/>
      <point x="411" y="83" type="line"/>
      <point x="411" y="82"/>
      <point x="406" y="69"/>
      <point x="340" y="55" type="curve"/>
      <point x="340.0" y="0.0" type="line"/>
      <point x="618" y="0" type="line"/>
      <point x="618" y="56" type="line"/>
      <point x="582" y="63"/>
      <point x="548" y="74"/>
      <point x="544" y="79" type="curve"/>
      <point x="544" y="80"/>
      <point x="543" y="81"/>
      <point x="543" y="81" type="curve" smooth="yes"/>
      <point x="543.0" y="292.0" type="line" smooth="yes"/>
      <point x="543.0" y="419.0"/>
      <point x="488.0" y="476.0"/>
      <point x="388.0" y="476.0" type="curve" smooth="yes"/>
      <point x="325.0" y="476.0"/>
      <point x="261.0" y="453.0"/>
      <point x="221.0" y="382.0" type="curve"/>
      <point x="221.0" y="382.0"/>
      <point x="221.0" y="382.0"/>
      <point x="220.0" y="382.0" type="curve"/>
      <point x="222" y="471" type="line"/>
      <point x="178" y="465"/>
      <point x="43" y="460"/>
      <point x="24" y="460" type="curve"/>
      <point x="24" y="407" type="line"/>
      <point x="89" y="392"/>
      <point x="104" y="364"/>
      <point x="104" y="363" type="curve" smooth="yes"/>
      <point x="104.0" y="81.0" type="line" smooth="yes"/>
      <point x="104" y="80"/>
      <point x="96" y="68"/>
      <point x="24" y="53" type="curve"/>
      <point x="24" y="0" type="line"/>
    </contour>
  </outline>
</glyph>
<glyph name="p" format="1">
  <advance width="594"/>
  <unicode hex="0070"/>
  <outline>
    <contour>
      <point x="30" y="451" type="curve"/>
      <point x="30" y="396" type="line"/>
      <point x="30" y="396"/>
      <point x="81" y="386"/>
      <point x="102" y="356" type="curve"/>
      <point x="102" y="-122" type="line" smooth="yes"/>
      <point x="102" y="-141"/>
      <point x="88" y="-158"/>
      <point x="16" y="-176" type="curve"/>
      <point x="16" y="-236" type="line"/>
      <point x="332" y="-236" type="line"/>
      <point x="332" y="-176" type="line"/>
      <point x="238" y="-148"/>
      <point x="234" y="-143"/>
      <point x="234" y="-122" type="curve" smooth="yes"/>
      <point x="234" y="28" type="line"/>
      <point x="235" y="28"/>
      <point x="235" y="28"/>
      <point x="235" y="28" type="curve"/>
      <point x="257" y="3"/>
      <point x="298" y="-13"/>
      <point x="348" y="-13" type="curve" smooth="yes"/>
      <point x="460" y="-13"/>
      <point x="560" y="73"/>
      <point x="560" y="235" type="curve" smooth="yes"/>
      <point x="560" y="396"/>
      <point x="488" y="476"/>
      <point x="369" y="476" type="curve" smooth="yes"/>
      <point x="302" y="476"/>
      <point x="251" y="445"/>
      <point x="221" y="390" type="curve"/>
      <point x="221" y="390"/>
      <point x="221" y="390"/>
      <point x="220" y="390" type="curve"/>
      <point x="222" y="471" type="line"/>
      <point x="164" y="463"/>
      <point x="88" y="456"/>
    </contour>
    <contour>
      <point x="313" y="69" type="curve" smooth="yes"/>
      <point x="236" y="69"/>
      <point x="232" y="132"/>
      <point x="232" y="211" type="curve" smooth="yes"/>
      <point x="232" y="269"/>
      <point x="238" y="316"/>
      <point x="247" y="354" type="curve"/>
      <point x="264" y="375"/>
      <point x="288" y="387"/>
      <point x="317" y="387" type="curve" smooth="yes"/>
      <point x="381" y="387"/>
      <point x="418" y="343"/>
      <point x="418" y="230" type="curve" smooth="yes"/>
      <point x="418" y="118"/>
      <point x="373" y="69"/>
    </contour>
  </outline>
</glyph>
<glyph name="q" format="1">
  <advance width="576"/>
  <unicode hex="0071"/>
  <outline>
    <contour>
      <point x="323" y="80"/>
      <point x="299" y="73"/>
      <point x="275" y="73" type="curve" smooth="yes"/>
      <point x="220" y="73"/>
      <point x="176" y="118"/>
      <point x="176" y="231" type="curve" smooth="yes"/>
      <point x="176" y="346"/>
      <point x="217" y="389"/>
      <point x="281" y="389" type="curve" smooth="yes"/>
      <point x="359" y="389"/>
      <point x="360" y="315"/>
      <point x="360" y="225" type="curve" smooth="yes"/>
      <point x="360" y="168"/>
      <point x="352" y="125"/>
      <point x="338" y="93" type="curve"/>
    </contour>
    <contour>
      <point x="584" y="-236" type="line"/>
      <point x="584" y="-176" type="line"/>
      <point x="499" y="-155"/>
      <point x="491" y="-143"/>
      <point x="491" y="-122" type="curve"/>
      <point x="491" y="299" type="line" smooth="yes"/>
      <point x="491" y="387"/>
      <point x="500" y="441"/>
      <point x="500" y="442" type="curve"/>
      <point x="500" y="451" type="line"/>
      <point x="393" y="461" type="line"/>
      <point x="368" y="394" type="line"/>
      <point x="347" y="455"/>
      <point x="272" y="470"/>
      <point x="234" y="470" type="curve" smooth="yes"/>
      <point x="119" y="470"/>
      <point x="34" y="378"/>
      <point x="34" y="218" type="curve" smooth="yes"/>
      <point x="34" y="68"/>
      <point x="116" y="-13"/>
      <point x="226" y="-13" type="curve" smooth="yes"/>
      <point x="282" y="-13"/>
      <point x="329" y="10"/>
      <point x="358" y="48" type="curve"/>
      <point x="358" y="48"/>
      <point x="358" y="48"/>
      <point x="359" y="48" type="curve"/>
      <point x="359" y="-122" type="line"/>
      <point x="359" y="-141"/>
      <point x="350" y="-155"/>
      <point x="268" y="-176" type="curve"/>
      <point x="268" y="-236" type="line"/>
    </contour>
  </outline>
</glyph>
<glyph name="r" format="1">
  <advance width="457"/>
  <unicode hex="0072"/>
  <outline>
    <contour>
      <point x="21" y="0" type="line"/>
      <point x="345" y="0" type="line"/>
      <point x="345" y="60" type="line"/>
      <point x="282" y="64" type="line" smooth="yes"/>
      <point x="237" y="67"/>
      <point x="237" y="76"/>
      <point x="237" y="117" type="curve" smooth="yes"/>
      <point x="237" y="272" type="line"/>
      <point x="247" y="328"/>
      <point x="285" y="368"/>
      <point x="323" y="368" type="curve" smooth="yes"/>
      <point x="342" y="368"/>
      <point x="348" y="346"/>
      <point x="348" y="321" type="curve"/>
      <point x="421" y="321" type="line"/>
      <point x="431" y="467" type="line"/>
      <point x="408" y="474"/>
      <point x="388" y="475"/>
      <point x="365" y="475" type="curve"/>
      <point x="304" y="472"/>
      <point x="261" y="442"/>
      <point x="221" y="359" type="curve"/>
      <point x="223" y="471" type="line"/>
      <point x="167" y="463"/>
      <point x="90" y="455"/>
      <point x="30" y="451" type="curve"/>
      <point x="30" y="410" type="line"/>
      <point x="62" y="396" type="line"/>
      <point x="89" y="387"/>
      <point x="98" y="373"/>
      <point x="105" y="330" type="curve"/>
      <point x="105" y="117" type="line" smooth="yes"/>
      <point x="105" y="79"/>
      <point x="107" y="68"/>
      <point x="64" y="64" type="curve" smooth="yes"/>
      <point x="21" y="60" type="line"/>
    </contour>
  </outline>
</glyph>
<glyph name="s" format="1">
  <advance width="455"/>
  <unicode hex="0073"/>
  <outline>
    <contour>
      <point x="322" y="-13"/>
      <point x="415" y="42"/>
      <point x="415" y="142" type="curve" smooth="yes"/>
      <point x="415" y="242"/>
      <point x="326" y="264"/>
      <point x="227" y="304" type="curve" smooth="yes"/>
      <point x="195" y="317"/>
      <point x="176" y="336"/>
      <point x="176" y="364" type="curve" smooth="yes"/>
      <point x="176" y="392"/>
      <point x="204" y="408"/>
      <point x="236" y="408" type="curve" smooth="yes"/>
      <point x="270" y="408"/>
      <point x="309" y="389"/>
      <point x="314" y="318" type="curve" smooth="yes"/>
      <point x="314" y="318"/>
      <point x="379" y="318"/>
      <point x="379" y="318" type="curve"/>
      <point x="395" y="444" type="line"/>
      <point x="366" y="457"/>
      <point x="308" y="476"/>
      <point x="245" y="476" type="curve" smooth="yes"/>
      <point x="136" y="476"/>
      <point x="45" y="421"/>
      <point x="45" y="333" type="curve" smooth="yes"/>
      <point x="45" y="250"/>
      <point x="113" y="213"/>
      <point x="199" y="182" type="curve" smooth="yes"/>
      <point x="263" y="158"/>
      <point x="283" y="140"/>
      <point x="283" y="108" type="curve" smooth="yes"/>
      <point x="283.0" y="75.7988958091"/>
      <point x="250.237495902" y="56.0"/>
      <point x="210" y="56" type="curve" smooth="yes"/>
      <point x="163" y="56"/>
      <point x="125" y="87"/>
      <point x="125" y="145" type="curve"/>
      <point x="125" y="145"/>
      <point x="60" y="145"/>
      <point x="60" y="145" type="curve"/>
      <point x="44" y="19" type="line"/>
      <point x="76" y="4"/>
      <point x="145" y="-13"/>
      <point x="211" y="-13" type="curve" smooth="yes"/>
    </contour>
  </outline>
</glyph>
<glyph name="t" format="1">
  <advance width="411"/>
  <unicode hex="0074"/>
  <outline>
    <contour>
      <point x="101" y="141" type="line" smooth="yes"/>
      <point x="101" y="25"/>
      <point x="177" y="-14"/>
      <point x="254" y="-14" type="curve" smooth="yes"/>
      <point x="323" y="-14"/>
      <point x="375" y="21"/>
      <point x="406" y="116" type="curve"/>
      <point x="406" y="116"/>
      <point x="357" y="141"/>
      <point x="357" y="141" type="curve"/>
      <point x="332" y="82"/>
      <point x="311" y="69"/>
      <point x="285" y="69" type="curve" smooth="yes"/>
      <point x="260" y="69"/>
      <point x="233" y="85"/>
      <point x="233" y="144" type="curve" smooth="yes"/>
      <point x="233" y="392" type="line"/>
      <point x="369" y="392" type="line"/>
      <point x="369" y="462" type="line"/>
      <point x="233" y="462" type="line"/>
      <point x="233" y="592" type="line"/>
      <point x="175" y="592" type="line"/>
      <point x="154" y="520"/>
      <point x="136" y="455"/>
      <point x="17" y="455" type="curve"/>
      <point x="17" y="392" type="line"/>
      <point x="101" y="392" type="line"/>
    </contour>
  </outline>
</glyph>
<glyph name="u" format="1">
  <advance width="628"/>
  <unicode hex="0075"/>
  <outline>
    <contour>
      <point x="413" y="0" type="line"/>
      <point x="613" y="0" type="line"/>
      <point x="613" y="55" type="line"/>
      <point x="578" y="60"/>
      <point x="536.0" y="79.0"/>
      <point x="536" y="81" type="curve" smooth="yes"/>
      <point x="536" y="471" type="line"/>
      <point x="469" y="467"/>
      <point x="389" y="460"/>
      <point x="324" y="460" type="curve"/>
      <point x="324" y="407" type="line"/>
      <point x="376" y="396"/>
      <point x="404" y="369"/>
      <point x="404" y="363" type="curve" smooth="yes"/>
      <point x="404.0" y="194.0" type="line" smooth="yes"/>
      <point x="404" y="118"/>
      <point x="368.0" y="78.0"/>
      <point x="308.0" y="78.0" type="curve" smooth="yes"/>
      <point x="260.0" y="78.0"/>
      <point x="230" y="104"/>
      <point x="230" y="160" type="curve" smooth="yes"/>
      <point x="230" y="368" type="line"/>
      <point x="233" y="471" type="line"/>
      <point x="166" y="463"/>
      <point x="23" y="460"/>
      <point x="18" y="460" type="curve"/>
      <point x="18" y="407" type="line"/>
      <point x="50" y="401"/>
      <point x="98" y="376"/>
      <point x="98" y="361" type="curve" smooth="yes"/>
      <point x="98" y="164" type="line" smooth="yes"/>
      <point x="98" y="39"/>
      <point x="151" y="-13"/>
      <point x="252" y="-13" type="curve" smooth="yes"/>
      <point x="328" y="-13"/>
      <point x="381.0" y="17.0"/>
      <point x="412.0" y="72.0" type="curve"/>
      <point x="412.0" y="72.0"/>
      <point x="412.0" y="72.0"/>
      <point x="413.0" y="72.0" type="curve"/>
    </contour>
  </outline>
</glyph>
<glyph name="v" format="1">
  <advance width="520"/>
  <unicode hex="0076"/>
  <outline>
    <contour>
      <point x="530" y="465" type="line"/>
      <point x="315" y="465" type="line"/>
      <point x="315" y="401" type="line"/>
      <point x="355" y="401"/>
      <point x="370" y="393"/>
      <point x="370" y="382" type="curve" smooth="yes"/>
      <point x="370" y="379"/>
      <point x="369" y="375"/>
      <point x="367" y="372" type="curve"/>
      <point x="281" y="120" type="line"/>
      <point x="281" y="120"/>
      <point x="281" y="120"/>
      <point x="280" y="120" type="curve"/>
      <point x="191" y="363" type="line" smooth="yes"/>
      <point x="189" y="369"/>
      <point x="187" y="373"/>
      <point x="187" y="377" type="curve" smooth="yes"/>
      <point x="187" y="386"/>
      <point x="196" y="392"/>
      <point x="233" y="404" type="curve"/>
      <point x="233" y="465" type="line"/>
      <point x="-13" y="465" type="line"/>
      <point x="-13" y="400" type="line"/>
      <point x="18" y="398" type="line" smooth="yes"/>
      <point x="47" y="394"/>
      <point x="46" y="380"/>
      <point x="58" y="357" type="curve"/>
      <point x="208" y="-3" type="line"/>
      <point x="311" y="-3" type="line"/>
      <point x="459" y="361" type="line" smooth="yes"/>
      <point x="468" y="382"/>
      <point x="472" y="399"/>
      <point x="498" y="399" type="curve"/>
      <point x="530" y="401" type="line"/>
    </contour>
  </outline>
</glyph>
<glyph name="y" format="1">
  <advance width="544"/>
  <unicode hex="0079"/>
  <outline>
    <contour>
      <point x="506" y="355" type="line"/>
      <point x="518" y="377"/>
      <point x="519" y="399"/>
      <point x="546" y="400" type="curve" smooth="yes"/>
      <point x="579" y="402" type="line"/>
      <point x="579" y="462" type="line"/>
      <point x="336" y="462" type="line"/>
      <point x="336" y="401" type="line"/>
      <point x="374" y="399" type="line" smooth="yes"/>
      <point x="389" y="398"/>
      <point x="399" y="398"/>
      <point x="405" y="389" type="curve"/>
      <point x="403" y="380"/>
      <point x="399" y="370"/>
      <point x="395" y="358" type="curve" smooth="yes"/>
      <point x="297" y="117" type="line"/>
      <point x="213" y="349" type="line" smooth="yes"/>
      <point x="209" y="361"/>
      <point x="203" y="374"/>
      <point x="203" y="387" type="curve" smooth="yes"/>
      <point x="203" y="400"/>
      <point x="226" y="400"/>
      <point x="262" y="400" type="curve"/>
      <point x="262" y="465" type="line"/>
      <point x="-17" y="465" type="line"/>
      <point x="-17" y="400" type="line"/>
      <point x="29" y="398" type="line" smooth="yes"/>
      <point x="60" y="395"/>
      <point x="61" y="380"/>
      <point x="76" y="345" type="curve"/>
      <point x="210" y="6" type="line"/>
      <point x="216" y="-10" type="line"/>
      <point x="216" y="-10"/>
      <point x="152" y="-153"/>
      <point x="152" y="-153" type="curve" smooth="yes"/>
      <point x="75" y="-168" type="line"/>
      <point x="75" y="-236" type="line"/>
      <point x="361" y="-236" type="line"/>
      <point x="361" y="-168" type="line"/>
      <point x="278" y="-153" type="line"/>
      <point x="278" y="-153"/>
      <point x="340" y="-13"/>
      <point x="381" y="84" type="curve" smooth="yes"/>
    </contour>
  </outline>
</glyph>
<glyph name="z" format="1">
  <advance width="494"/>
  <unicode hex="007A"/>
  <outline>
    <contour>
      <point x="35" y="0" type="line"/>
      <point x="456" y="0" type="line"/>
      <point x="456" y="179" type="line"/>
      <point x="379" y="179" type="line"/>
      <point x="374" y="144" type="line"/>
      <point x="372" y="90"/>
      <point x="360" y="87"/>
      <point x="316" y="87" type="curve" smooth="yes"/>
      <point x="169" y="87" type="line"/>
      <point x="255" y="186"/>
      <point x="363" y="300"/>
      <point x="448" y="389" type="curve"/>
      <point x="442" y="462" type="line"/>
      <point x="51" y="462" type="line"/>
      <point x="51" y="289" type="line"/>
      <point x="128" y="288" type="line"/>
      <point x="130" y="330"/>
      <point x="133" y="363"/>
      <point x="156" y="377" type="curve"/>
      <point x="298" y="377" type="line"/>
      <point x="217" y="291"/>
      <point x="110" y="172"/>
      <point x="30" y="74" type="curve"/>
    </contour>
  </outline>
</glyph>
<glyph name="braceleft" format="1">
  <advance width="338"/>
  <unicode hex="007B"/>
  <outline>
    <contour>
      <point x="18.0" y="710.0" type="curve"/>
      <point x="18.0" y="657.0" type="line"/>
      <point x="78.0" y="653.0"/>
      <point x="107.0" y="626.0"/>
      <point x="107.0" y="561.0" type="curve" smooth="yes"/>
      <point x="107.0" y="503.0"/>
      <point x="93.0" y="429.0"/>
      <point x="93.0" y="372.0" type="curve"/>
      <point x="97.0" y="316.0"/>
      <point x="128.0" y="276.0"/>
      <point x="217.0" y="268.0" type="curve"/>
      <point x="217.0" y="261.0" type="line"/>
      <point x="128.0" y="252.0"/>
      <point x="93.0" y="210.0"/>
      <point x="93.0" y="155.0" type="curve" smooth="yes"/>
      <point x="93.0" y="94.0"/>
      <point x="107.0" y="27.0"/>
      <point x="107.0" y="-32.0" type="curve" smooth="yes"/>
      <point x="107.0" y="-96.0"/>
      <point x="65.0" y="-125.0"/>
      <point x="18.0" y="-128.0" type="curve"/>
      <point x="18.0" y="-181.0" type="line"/>
      <point x="18.0" y="-181.0"/>
      <point x="42.0" y="-181.0"/>
      <point x="54.0" y="-181.0" type="curve" smooth="yes"/>
      <point x="168.0" y="-181.0"/>
      <point x="237.0" y="-147.0"/>
      <point x="237.0" y="-30.0" type="curve" smooth="yes"/>
      <point x="237.0" y="37.0"/>
      <point x="228.0" y="124.0"/>
      <point x="228.0" y="176.0" type="curve" smooth="yes"/>
      <point x="228.0" y="220.0"/>
      <point x="253.0" y="235.0"/>
      <point x="307.0" y="240.0" type="curve"/>
      <point x="307.0" y="240.0"/>
      <point x="307.0" y="296.0"/>
      <point x="307.0" y="296.0" type="curve"/>
      <point x="247.0" y="307.0"/>
      <point x="221.0" y="327.0"/>
      <point x="221.0" y="376.0" type="curve" smooth="yes"/>
      <point x="221.0" y="423.0"/>
      <point x="237.0" y="500.0"/>
      <point x="237.0" y="559.0" type="curve" smooth="yes"/>
      <point x="237.0" y="671.0"/>
      <point x="177.0" y="710.0"/>
      <point x="52.0" y="710.0" type="curve" smooth="yes"/>
      <point x="41.0" y="710.0"/>
      <point x="18.0" y="710.0"/>
    </contour>
  </outline>
</glyph>
<glyph name="braceright" format="1">
  <advance width="338"/>
  <unicode hex="007D"/>
  <outline>
    <contour>
      <point x="18" y="710" type="curve"/>
      <point x="18" y="657" type="line"/>
      <point x="78" y="653"/>
      <point x="107" y="626"/>
      <point x="107" y="561" type="curve" smooth="yes"/>
      <point x="107" y="503"/>
      <point x="93" y="429"/>
      <point x="93" y="372" type="curve"/>
      <point x="97" y="316"/>
      <point x="128" y="276"/>
      <point x="217" y="268" type="curve"/>
      <point x="217" y="261" type="line"/>
      <point x="128" y="252"/>
      <point x="93" y="210"/>
      <point x="93" y="155" type="curve" smooth="yes"/>
      <point x="93" y="94"/>
      <point x="107" y="27"/>
      <point x="107" y="-32" type="curve" smooth="yes"/>
      <point x="107" y="-96"/>
      <point x="65" y="-125"/>
      <point x="18" y="-128" type="curve"/>
      <point x="18" y="-181" type="line"/>
      <point x="18" y="-181"/>
      <point x="42" y="-181"/>
      <point x="54" y="-181" type="curve" smooth="yes"/>
      <point x="168" y="-181"/>
      <point x="237" y="-147"/>
      <point x="237" y="-30" type="curve" smooth="yes"/>
      <point x="237" y="37"/>
      <point x="228" y="124"/>
      <point x="228" y="176" type="curve" smooth="yes"/>
      <point x="228" y="220"/>
      <point x="253" y="235"/>
      <point x="307" y="240" type="curve"/>
      <point x="307" y="240"/>
      <point x="307" y="296"/>
      <point x="307" y="296" type="curve"/>
      <point x="247" y="307"/>
      <point x="221" y="327"/>
      <point x="221" y="376" type="curve" smooth="yes"/>
      <point x="221" y="423"/>
      <point x="237" y="500"/>
      <point x="237" y="559" type="curve" smooth="yes"/>
      <point x="237" y="671"/>
      <point x="177" y="710"/>
      <point x="52" y="710" type="curve" smooth="yes"/>
      <point x="41" y="710"/>
      <point x="18" y="710"/>
    </contour>
  </outline>
</glyph>
<glyph name="exclamdown" format="1">
  <advance width="319"/>
  <unicode hex="00A1"/>
  <outline>
    <contour>
      <point x="92" y="-181" type="curve"/>
      <point x="117" y="-202"/>
      <point x="149" y="-213"/>
      <point x="202" y="-213" type="curve"/>
      <point x="229" y="-199"/>
      <point x="234" y="-176"/>
      <point x="234" y="-140" type="curve"/>
      <point x="228" y="-38"/>
      <point x="215" y="106"/>
      <point x="203" y="272" type="curve"/>
      <point x="126" y="272" type="line"/>
      <point x="114" y="92"/>
      <point x="99" y="-66"/>
    </contour>
    <contour>
      <point x="88" y="398" type="curve" smooth="yes"/>
      <point x="88" y="353"/>
      <point x="116" y="319"/>
      <point x="163" y="319" type="curve" smooth="yes"/>
      <point x="210" y="319"/>
      <point x="238" y="353"/>
      <point x="238" y="398" type="curve" smooth="yes"/>
      <point x="238" y="443"/>
      <point x="210" y="476"/>
      <point x="163" y="476" type="curve" smooth="yes"/>
      <point x="116" y="476"/>
      <point x="88" y="443"/>
    </contour>
  </outline>
</glyph>
<glyph name="cent" format="1">
  <advance width="538"/>
  <unicode hex="00A2"/>
  <outline>
    <contour>
      <point x="262" y="498" type="line"/>
      <point x="117" y="485"/>
      <point x="55" y="380"/>
      <point x="55" y="242" type="curve" smooth="yes"/>
      <point x="55" y="104"/>
      <point x="117" y="-1"/>
      <point x="262" y="-14" type="curve"/>
      <point x="262" y="-82" type="line"/>
      <point x="320" y="-82" type="line"/>
      <point x="320" y="-14" type="line"/>
      <point x="469" y="-7"/>
      <point x="501" y="74"/>
      <point x="501" y="178" type="curve"/>
      <point x="405" y="178" type="line"/>
      <point x="401" y="94"/>
      <point x="379" y="56"/>
      <point x="320" y="50" type="curve"/>
      <point x="320" y="442" type="line"/>
      <point x="387" y="440"/>
      <point x="393" y="403"/>
      <point x="395" y="321" type="curve"/>
      <point x="491" y="321" type="line"/>
      <point x="491" y="468" type="line"/>
      <point x="436" y="487"/>
      <point x="378" y="497"/>
      <point x="320" y="500" type="curve"/>
      <point x="320" y="555" type="line"/>
      <point x="262" y="555" type="line"/>
    </contour>
    <contour>
      <point x="262" y="54" type="line"/>
      <point x="214" y="68"/>
      <point x="189" y="119"/>
      <point x="189" y="249" type="curve" smooth="yes"/>
      <point x="189" y="369"/>
      <point x="217" y="417"/>
      <point x="262" y="434" type="curve"/>
    </contour>
  </outline>
</glyph>
<glyph name="sterling" format="1">
  <advance width="538"/>
  <unicode hex="00A3"/>
  <outline>
    <contour>
      <point x="491" y="0" type="line"/>
      <point x="491" y="160" type="line"/>
      <point x="400" y="160" type="line"/>
      <point x="393" y="102"/>
      <point x="386" y="88"/>
      <point x="353" y="88" type="curve" smooth="yes"/>
      <point x="217" y="88" type="line"/>
      <point x="244" y="121"/>
      <point x="266" y="165"/>
      <point x="266" y="222" type="curve" smooth="yes"/>
      <point x="266" y="249"/>
      <point x="263" y="276"/>
      <point x="259" y="304" type="curve"/>
      <point x="422" y="304" type="line"/>
      <point x="422" y="371" type="line"/>
      <point x="246" y="371" type="line"/>
      <point x="232" y="416"/>
      <point x="217" y="460"/>
      <point x="217" y="500" type="curve" smooth="yes"/>
      <point x="217" y="575"/>
      <point x="253" y="611"/>
      <point x="307" y="611" type="curve" smooth="yes"/>
      <point x="328" y="611"/>
      <point x="343" y="605"/>
      <point x="357" y="597" type="curve"/>
      <point x="370" y="568"/>
      <point x="376" y="531"/>
      <point x="378" y="488" type="curve"/>
      <point x="460" y="493" type="line"/>
      <point x="466" y="658" type="line"/>
      <point x="432" y="670"/>
      <point x="380" y="679"/>
      <point x="325" y="681" type="curve"/>
      <point x="174" y="681"/>
      <point x="90" y="624"/>
      <point x="90" y="491" type="curve" smooth="yes"/>
      <point x="90" y="451"/>
      <point x="100" y="411"/>
      <point x="111" y="371" type="curve"/>
      <point x="39" y="371" type="line"/>
      <point x="39" y="304" type="line"/>
      <point x="126" y="304" type="line"/>
      <point x="135" y="258"/>
      <point x="142" y="214"/>
      <point x="142" y="172" type="curve" smooth="yes"/>
      <point x="142" y="91"/>
      <point x="121" y="78"/>
      <point x="43" y="78" type="curve"/>
      <point x="43" y="0" type="line"/>
    </contour>
  </outline>
</glyph>
<glyph name="yen" format="1">
  <advance width="538"/>
  <unicode hex="00A5"/>
  <outline>
    <contour>
      <point x="445.0" y="0.0" type="line"/>
      <point x="445.0" y="64.0" type="line"/>
      <point x="386.0" y="68.0" type="line" smooth="yes"/>
      <point x="347.0" y="71.0"/>
      <point x="342.0" y="71.0"/>
      <point x="342.0" y="113.0" type="curve" smooth="yes"/>
      <point x="342.0" y="143.0" type="line"/>
      <point x="459.0" y="143.0" type="line"/>
      <point x="459.0" y="203.0" type="line"/>
      <point x="84.0" y="202.0" type="line"/>
      <point x="84.0" y="142.0" type="line"/>
      <point x="200.0" y="142.0" type="line"/>
      <point x="200.0" y="113.0" type="line" smooth="yes"/>
      <point x="200.0" y="71.0"/>
      <point x="195.0" y="71.0"/>
      <point x="156.0" y="68.0" type="curve" smooth="yes"/>
      <point x="102.0" y="64.0" type="line"/>
      <point x="102.0" y="0.0" type="line"/>
    </contour>
    <contour>
      <point x="459.0" y="255.0" type="line"/>
      <point x="459.0" y="315.0" type="line"/>
      <point x="378.0" y="315.0" type="line"/>
      <point x="420.0" y="398.0"/>
      <point x="471.0" y="487.0"/>
      <point x="514.0" y="562.0" type="curve"/>
      <point x="533.0" y="600.0"/>
      <point x="553.0" y="597.0"/>
      <point x="591.0" y="602.0" type="curve"/>
      <point x="593.0" y="667.0" type="line"/>
      <point x="336.0" y="667.0" type="line"/>
      <point x="336.0" y="602.0" type="line"/>
      <point x="390.0" y="598.0" type="line" smooth="yes"/>
      <point x="407.0" y="597.0"/>
      <point x="415.0" y="594.0"/>
      <point x="421.0" y="587.0" type="curve"/>
      <point x="417.0" y="577.0"/>
      <point x="412.0" y="565.0"/>
      <point x="406.0" y="552.0" type="curve" smooth="yes"/>
      <point x="362.0" y="467.0" type="line" smooth="yes"/>
      <point x="339.0" y="423.0"/>
      <point x="318.0" y="377.0"/>
      <point x="298.0" y="333.0" type="curve"/>
      <point x="277.0" y="377.0"/>
      <point x="256.0" y="422.0"/>
      <point x="233.0" y="466.0" type="curve" smooth="yes"/>
      <point x="188.0" y="551.0" type="line" smooth="yes"/>
      <point x="182.0" y="562.0"/>
      <point x="175.0" y="574.0"/>
      <point x="172.0" y="587.0" type="curve"/>
      <point x="187.0" y="601.0"/>
      <point x="224.0" y="599.0"/>
      <point x="254.0" y="602.0" type="curve"/>
      <point x="257.0" y="667.0" type="line"/>
      <point x="-53.0" y="667.0" type="line"/>
      <point x="-56.0" y="602.0" type="line"/>
      <point x="-36.0" y="599.0"/>
      <point x="-17.0" y="598.0"/>
      <point x="0.0" y="590.0" type="curve"/>
      <point x="46.0" y="532.0"/>
      <point x="112.0" y="410.0"/>
      <point x="161.0" y="315.0" type="curve"/>
      <point x="84.0" y="315.0" type="line"/>
      <point x="84.0" y="254.0" type="line"/>
    </contour>
  </outline>
</glyph>
<glyph name="dieresis" format="1">
  <advance width="389"/>
  <unicode hex="00A8"/>
  <outline>
    <contour>
      <point x="160" y="632" type="curve" smooth="yes"/>
      <point x="160" y="671"/>
      <point x="133" y="699"/>
      <point x="96" y="699" type="curve" smooth="yes"/>
      <point x="58" y="699"/>
      <point x="31" y="671"/>
      <point x="31" y="632" type="curve" smooth="yes"/>
      <point x="31" y="593"/>
      <point x="58" y="564"/>
      <point x="96" y="564" type="curve" smooth="yes"/>
      <point x="133" y="564"/>
      <point x="160" y="593"/>
    </contour>
    <contour>
      <point x="361" y="632" type="curve" smooth="yes"/>
      <point x="361" y="671"/>
      <point x="334" y="699"/>
      <point x="296" y="699" type="curve" smooth="yes"/>
      <point x="259" y="699"/>
      <point x="232" y="671"/>
      <point x="232" y="632" type="curve" smooth="yes"/>
      <point x="232" y="593"/>
      <point x="259" y="564"/>
      <point x="296" y="564" type="curve" smooth="yes"/>
      <point x="334" y="564"/>
      <point x="361" y="593"/>
    </contour>
  </outline>
</glyph>
<glyph name="copyright" format="1">
  <advance width="779"/>
  <unicode hex="00A9"/>
  <outline>
    <contour>
      <point x="724" y="334" type="curve" smooth="yes"/>
      <point x="724" y="520"/>
      <point x="576" y="668"/>
      <point x="390" y="668" type="curve" smooth="yes"/>
      <point x="204" y="668"/>
      <point x="55" y="520"/>
      <point x="55" y="334" type="curve" smooth="yes"/>
      <point x="55" y="148"/>
      <point x="204" y="0"/>
      <point x="390" y="0" type="curve" smooth="yes"/>
      <point x="576" y="0"/>
      <point x="724" y="148"/>
    </contour>
    <contour>
      <point x="658" y="334" type="curve" smooth="yes"/>
      <point x="658" y="179"/>
      <point x="541" y="57"/>
      <point x="390" y="57" type="curve" smooth="yes"/>
      <point x="238" y="57"/>
      <point x="121" y="179"/>
      <point x="121" y="334" type="curve" smooth="yes"/>
      <point x="121" y="488"/>
      <point x="238" y="610"/>
      <point x="390" y="610" type="curve" smooth="yes"/>
      <point x="541" y="610"/>
      <point x="658" y="488"/>
    </contour>
    <contour>
      <point x="537" y="178" type="curve"/>
      <point x="545" y="271" type="line"/>
      <point x="508" y="275" type="line"/>
      <point x="495" y="228"/>
      <point x="463" y="191"/>
      <point x="408" y="191" type="curve" smooth="yes"/>
      <point x="346" y="191"/>
      <point x="298" y="238"/>
      <point x="298" y="339" type="curve" smooth="yes"/>
      <point x="298" y="433"/>
      <point x="344" y="487"/>
      <point x="400" y="487" type="curve" smooth="yes"/>
      <point x="467" y="487"/>
      <point x="490" y="447"/>
      <point x="493" y="405" type="curve"/>
      <point x="532" y="407" type="line"/>
      <point x="537" y="496" type="line"/>
      <point x="505" y="518"/>
      <point x="455" y="531"/>
      <point x="407" y="531" type="curve" smooth="yes"/>
      <point x="287" y="531"/>
      <point x="201" y="452"/>
      <point x="201" y="336" type="curve" smooth="yes"/>
      <point x="201" y="218"/>
      <point x="288" y="146"/>
      <point x="407" y="146" type="curve" smooth="yes"/>
      <point x="460" y="146"/>
      <point x="507" y="158"/>
    </contour>
  </outline>
</glyph>
<glyph name="guillemotleft" format="1">
  <advance width="515"/>
  <unicode hex="00AB"/>
  <outline>
    <contour>
      <point x="477" y="8" type="line"/>
      <point x="371" y="235" type="line"/>
      <point x="477" y="447" type="line"/>
      <point x="403" y="447" type="line"/>
      <point x="254" y="256" type="line"/>
      <point x="245" y="227" type="line"/>
      <point x="403" y="6" type="line"/>
    </contour>
    <contour>
      <point x="271" y="6" type="line"/>
      <point x="165" y="235" type="line"/>
      <point x="271" y="447" type="line"/>
      <point x="197" y="447" type="line"/>
      <point x="48" y="256" type="line"/>
      <point x="39" y="227" type="line"/>
      <point x="197" y="6" type="line"/>
    </contour>
  </outline>
</glyph>
<glyph name="logicalnot" format="1">
  <advance width="550"/>
  <unicode hex="00AC"/>
  <outline>
    <contour>
      <point x="511" y="109" type="line"/>
      <point x="511" y="378" type="line"/>
      <point x="37" y="378" type="line"/>
      <point x="37" y="277" type="line"/>
      <point x="409" y="277" type="line"/>
      <point x="409" y="109" type="line"/>
    </contour>
  </outline>
</glyph>
<glyph name="registered" format="1">
  <advance width="779"/>
  <unicode hex="00AE"/>
  <outline>
    <contour>
      <point x="56" y="326" type="curve" smooth="yes"/>
      <point x="56" y="136"/>
      <point x="210" y="-18"/>
      <point x="400" y="-18" type="curve" smooth="yes"/>
      <point x="590" y="-18"/>
      <point x="744" y="136"/>
      <point x="744" y="326" type="curve" smooth="yes"/>
      <point x="744" y="516"/>
      <point x="590" y="670"/>
      <point x="400" y="670" type="curve" smooth="yes"/>
      <point x="210" y="670"/>
      <point x="56" y="516"/>
    </contour>
    <contour>
      <point x="400" y="46" type="curve" smooth="yes"/>
      <point x="250" y="46"/>
      <point x="132" y="170"/>
      <point x="132" y="326" type="curve" smooth="yes"/>
      <point x="132" y="482"/>
      <point x="250" y="606"/>
      <point x="400" y="606" type="curve" smooth="yes"/>
      <point x="550" y="606"/>
      <point x="668" y="482"/>
      <point x="668" y="326" type="curve" smooth="yes"/>
      <point x="668" y="170"/>
      <point x="550" y="46"/>
    </contour>
    <contour>
      <point x="356" y="489" type="line"/>
      <point x="386" y="489" type="line" smooth="yes"/>
      <point x="423" y="489"/>
      <point x="452" y="474"/>
      <point x="452" y="419" type="curve" smooth="yes"/>
      <point x="452" y="370"/>
      <point x="432" y="335"/>
      <point x="387" y="335" type="curve" smooth="yes"/>
      <point x="356" y="335" type="line"/>
    </contour>
    <contour>
      <point x="236" y="150" type="line"/>
      <point x="400" y="150" type="line"/>
      <point x="400" y="174" type="line"/>
      <point x="369" y="174"/>
      <point x="356" y="181"/>
      <point x="356" y="212" type="curve" smooth="yes"/>
      <point x="356" y="307" type="line"/>
      <point x="383" y="307" type="line"/>
      <point x="452" y="191" type="line" smooth="yes"/>
      <point x="468" y="164"/>
      <point x="486" y="150"/>
      <point x="522" y="150" type="curve" smooth="yes"/>
      <point x="579" y="150" type="line"/>
      <point x="579" y="174" type="line"/>
      <point x="557" y="175"/>
      <point x="547" y="180"/>
      <point x="522" y="222" type="curve" smooth="yes"/>
      <point x="462" y="324" type="line"/>
      <point x="507" y="338"/>
      <point x="536" y="373"/>
      <point x="536" y="420" type="curve" smooth="yes"/>
      <point x="536" y="487"/>
      <point x="494" y="517"/>
      <point x="412" y="517" type="curve" smooth="yes"/>
      <point x="236" y="517" type="line"/>
      <point x="236" y="493" type="line"/>
      <point x="267" y="493"/>
      <point x="280" y="486"/>
      <point x="280" y="455" type="curve" smooth="yes"/>
      <point x="280" y="212" type="line" smooth="yes"/>
      <point x="280" y="181"/>
      <point x="267" y="174"/>
      <point x="236" y="174" type="curve"/>
    </contour>
  </outline>
</glyph>
<glyph name="macron" format="1">
  <advance width="389"/>
  <unicode hex="00AF"/>
  <outline>
    <contour>
      <point x="332" y="589" type="line"/>
      <point x="332" y="667" type="line"/>
      <point x="56" y="667" type="line"/>
      <point x="56" y="589" type="line"/>
    </contour>
  </outline>
</glyph>
<glyph name="degree" format="1">
  <advance width="362"/>
  <unicode hex="00B0"/>
  <outline>
    <contour>
      <point x="322" y="551" type="curve" smooth="yes"/>
      <point x="322" y="629"/>
      <point x="261" y="687"/>
      <point x="183" y="687" type="curve" smooth="yes"/>
      <point x="102" y="687"/>
      <point x="39" y="628"/>
      <point x="39" y="546" type="curve" smooth="yes"/>
      <point x="39" y="468"/>
      <point x="102" y="411"/>
      <point x="178" y="411" type="curve" smooth="yes"/>
      <point x="257" y="411"/>
      <point x="322" y="468"/>
    </contour>
    <contour>
      <point x="245" y="550" type="curve" smooth="yes"/>
      <point x="245" y="510"/>
      <point x="219" y="481"/>
      <point x="180" y="481" type="curve" smooth="yes"/>
      <point x="144" y="481"/>
      <point x="115" y="509"/>
      <point x="115" y="550" type="curve" smooth="yes"/>
      <point x="115" y="592"/>
      <point x="145" y="619"/>
      <point x="181" y="619" type="curve" smooth="yes"/>
      <point x="217" y="619"/>
      <point x="245" y="592"/>
    </contour>
  </outline>
</glyph>
<glyph name="plusminus" format="1">
  <advance width="550"/>
  <unicode hex="00B1"/>
  <outline>
    <contour>
      <point x="495" y="261" type="line"/>
      <point x="495" y="356" type="line"/>
      <point x="324" y="356" type="line"/>
      <point x="324" y="488" type="line"/>
      <point x="225" y="488" type="line"/>
      <point x="225" y="356" type="line"/>
      <point x="55" y="356" type="line"/>
      <point x="55" y="261" type="line"/>
      <point x="225" y="261" type="line"/>
      <point x="225" y="129" type="line"/>
      <point x="324" y="129" type="line"/>
      <point x="324" y="261" type="line"/>
    </contour>
    <contour>
      <point x="495" y="0" type="line"/>
      <point x="495" y="96" type="line"/>
      <point x="55" y="96" type="line"/>
      <point x="55" y="0" type="line"/>
    </contour>
  </outline>
</glyph>
<glyph name="paragraph" format="1">
  <advance width="560"/>
  <unicode hex="00B6"/>
  <outline>
    <contour>
      <point x="235" y="296" type="line"/>
      <point x="177" y="296"/>
      <point x="133" y="343"/>
      <point x="133" y="450" type="curve" smooth="yes"/>
      <point x="133" y="556"/>
      <point x="177" y="603"/>
      <point x="235" y="603" type="curve"/>
    </contour>
    <contour>
      <point x="385" y="-88" type="line"/>
      <point x="550" y="-88" type="line"/>
      <point x="550" y="-39" type="line"/>
      <point x="525" y="-39" type="line" smooth="yes"/>
      <point x="474" y="-39"/>
      <point x="469" y="-22"/>
      <point x="469" y="24" type="curve" smooth="yes"/>
      <point x="469" y="540" type="line" smooth="yes"/>
      <point x="469" y="586"/>
      <point x="474" y="603"/>
      <point x="525" y="603" type="curve" smooth="yes"/>
      <point x="550" y="603" type="line"/>
      <point x="550" y="652" type="line"/>
      <point x="247" y="652" type="line" smooth="yes"/>
      <point x="119" y="652"/>
      <point x="37" y="580"/>
      <point x="37" y="447" type="curve" smooth="yes"/>
      <point x="37" y="314"/>
      <point x="122" y="244"/>
      <point x="235" y="244" type="curve"/>
      <point x="235" y="24" type="line" smooth="yes"/>
      <point x="235" y="-22"/>
      <point x="230" y="-39"/>
      <point x="179" y="-39" type="curve" smooth="yes"/>
      <point x="154" y="-39" type="line"/>
      <point x="154" y="-88" type="line"/>
      <point x="319" y="-88" type="line"/>
      <point x="319" y="603" type="line"/>
      <point x="385" y="603" type="line"/>
    </contour>
  </outline>
</glyph>
<glyph name="ordmasculine" format="1">
  <advance width="372"/>
  <unicode hex="00BA"/>
  <outline>
    <contour>
      <point x="346" y="539" type="curve" smooth="yes"/>
      <point x="346" y="625"/>
      <point x="292" y="682"/>
      <point x="189" y="682" type="curve" smooth="yes"/>
      <point x="86" y="682"/>
      <point x="26" y="624"/>
      <point x="26" y="533" type="curve" smooth="yes"/>
      <point x="26" y="444"/>
      <point x="85" y="390"/>
      <point x="183" y="390" type="curve" smooth="yes"/>
      <point x="284" y="390"/>
      <point x="346" y="446"/>
    </contour>
    <contour>
      <point x="249" y="536" type="curve" smooth="yes"/>
      <point x="249" y="462"/>
      <point x="230" y="433"/>
      <point x="186" y="433" type="curve" smooth="yes"/>
      <point x="145" y="433"/>
      <point x="123" y="459"/>
      <point x="123" y="536" type="curve" smooth="yes"/>
      <point x="123" y="612"/>
      <point x="146" y="639"/>
      <point x="186" y="639" type="curve" smooth="yes"/>
      <point x="226" y="639"/>
      <point x="249" y="613"/>
    </contour>
  </outline>
</glyph>
<glyph name="questiondown" format="1">
  <advance width="438"/>
  <unicode hex="00BF"/>
  <outline>
    <contour>
      <point x="28" y="-49" type="curve" smooth="yes"/>
      <point x="28" y="-156"/>
      <point x="106" y="-220"/>
      <point x="224" y="-220" type="curve" smooth="yes"/>
      <point x="316" y="-220"/>
      <point x="372" y="-187"/>
      <point x="388" y="-131" type="curve"/>
      <point x="383" y="-50" type="line"/>
      <point x="348" y="-60"/>
      <point x="289" y="-56"/>
      <point x="273" y="-84" type="curve"/>
      <point x="267" y="-114"/>
      <point x="251" y="-128"/>
      <point x="226" y="-128" type="curve" smooth="yes"/>
      <point x="188" y="-128"/>
      <point x="159" y="-102"/>
      <point x="159" y="-44" type="curve" smooth="yes"/>
      <point x="159" y="64"/>
      <point x="271" y="97"/>
      <point x="320" y="149" type="curve"/>
      <point x="280" y="276" type="line"/>
      <point x="203" y="276" type="line"/>
      <point x="203" y="197" type="line"/>
      <point x="158" y="136"/>
      <point x="28" y="79"/>
    </contour>
    <contour>
      <point x="160" y="397" type="curve" smooth="yes"/>
      <point x="160" y="352"/>
      <point x="188" y="318"/>
      <point x="235" y="318" type="curve" smooth="yes"/>
      <point x="282" y="318"/>
      <point x="311" y="352"/>
      <point x="311" y="397" type="curve" smooth="yes"/>
      <point x="311" y="442"/>
      <point x="282" y="475"/>
      <point x="235" y="475" type="curve" smooth="yes"/>
      <point x="188" y="475"/>
      <point x="160" y="442"/>
    </contour>
  </outline>
</glyph>
<glyph name="Atilde" format="1">
  <advance width="722"/>
  <unicode hex="00C3"/>
  <outline>
    <contour>
      <point x="719" y="0" type="line"/>
      <point x="717" y="64" type="line"/>
      <point x="688" y="67"/>
      <point x="669" y="69"/>
      <point x="652" y="80" type="curve"/>
      <point x="644" y="93"/>
      <point x="636" y="109"/>
      <point x="629" y="127" type="curve" smooth="yes"/>
      <point x="556" y="301"/>
      <point x="476" y="512"/>
      <point x="423" y="667" type="curve"/>
      <point x="287" y="667" type="line"/>
      <point x="221" y="478"/>
      <point x="147" y="280"/>
      <point x="79" y="112" type="curve" smooth="yes"/>
      <point x="73" y="97"/>
      <point x="66" y="85"/>
      <point x="58" y="74" type="curve"/>
      <point x="43" y="70"/>
      <point x="26" y="67"/>
      <point x="5" y="64" type="curve"/>
      <point x="2" y="0" type="line"/>
      <point x="256" y="0" type="line"/>
      <point x="256" y="65" type="line"/>
      <point x="204" y="68" type="line" smooth="yes"/>
      <point x="189" y="69"/>
      <point x="177" y="72"/>
      <point x="170" y="78" type="curve"/>
      <point x="178" y="101"/>
      <point x="189" y="128"/>
      <point x="215" y="201" type="curve"/>
      <point x="447" y="201" type="line"/>
      <point x="474" y="125"/>
      <point x="482" y="107"/>
      <point x="490" y="82" type="curve"/>
      <point x="483" y="71"/>
      <point x="469" y="70"/>
      <point x="444" y="68" type="curve" smooth="yes"/>
      <point x="402" y="65" type="line"/>
      <point x="402" y="0" type="line"/>
    </contour>
    <contour>
      <point x="425" y="272" type="curve"/>
      <point x="238" y="272" type="line"/>
      <point x="264" y="346"/>
      <point x="304" y="465"/>
      <point x="330" y="547" type="curve"/>
      <point x="334" y="547" type="line"/>
      <point x="360" y="465"/>
      <point x="394" y="362"/>
    </contour>
    <contour>
      <point x="532" y="835" type="curve"/>
      <point x="480" y="842" type="line"/>
      <point x="472" y="817"/>
      <point x="461" y="797"/>
      <point x="436" y="797" type="curve" smooth="yes"/>
      <point x="396" y="797"/>
      <point x="342" y="839"/>
      <point x="292" y="839" type="curve" smooth="yes"/>
      <point x="231" y="839"/>
      <point x="199" y="792"/>
      <point x="186" y="724" type="curve"/>
      <point x="234" y="715" type="line"/>
      <point x="244" y="744"/>
      <point x="257" y="761"/>
      <point x="284" y="761" type="curve" smooth="yes"/>
      <point x="323" y="761"/>
      <point x="381" y="718"/>
      <point x="428" y="718" type="curve" smooth="yes"/>
      <point x="489" y="718"/>
      <point x="523" y="766"/>
    </contour>
  </outline>
</glyph>
<glyph name="Aring" format="1">
  <advance width="722"/>
  <unicode hex="00C5"/>
  <outline>
    <contour>
      <point x="253" y="774" type="curve" smooth="yes"/>
      <point x="253" y="719"/>
      <point x="299" y="671"/>
      <point x="356" y="671" type="curve" smooth="yes"/>
      <point x="411" y="671"/>
      <point x="459" y="718"/>
      <point x="459" y="774" type="curve" smooth="yes"/>
      <point x="459" y="829"/>
      <point x="411" y="877"/>
      <point x="356" y="877" type="curve" smooth="yes"/>
      <point x="299" y="877"/>
      <point x="253" y="828"/>
    </contour>
    <contour>
      <point x="356" y="720" type="curve" smooth="yes"/>
      <point x="327" y="720"/>
      <point x="302" y="745"/>
      <point x="302" y="774" type="curve" smooth="yes"/>
      <point x="302" y="803"/>
      <point x="327" y="828"/>
      <point x="356" y="828" type="curve" smooth="yes"/>
      <point x="385" y="828"/>
      <point x="410" y="803"/>
      <point x="410" y="774" type="curve" smooth="yes"/>
      <point x="410" y="745"/>
      <point x="385" y="720"/>
    </contour>
    <contour>
      <point x="438" y="260" type="line"/>
      <point x="242" y="260" type="line"/>
      <point x="340" y="556" type="line"/>
      <point x="342" y="556" type="line"/>
    </contour>
    <contour>
      <point x="407" y="0" type="line"/>
      <point x="701" y="0" type="line"/>
      <point x="701" y="55" type="line"/>
      <point x="646" y="55"/>
      <point x="635" y="59"/>
      <point x="617" y="108" type="curve" smooth="yes"/>
      <point x="420" y="652" type="line"/>
      <point x="286" y="652" type="line"/>
      <point x="82" y="84" type="line" smooth="yes"/>
      <point x="74" y="61"/>
      <point x="65" y="55"/>
      <point x="21" y="55" type="curve"/>
      <point x="21" y="0" type="line"/>
      <point x="261" y="0" type="line"/>
      <point x="261" y="55" type="line"/>
      <point x="205" y="55" type="line" smooth="yes"/>
      <point x="188" y="55"/>
      <point x="179" y="58"/>
      <point x="179" y="69" type="curve" smooth="yes"/>
      <point x="179" y="78"/>
      <point x="183" y="91"/>
      <point x="220" y="196" type="curve"/>
      <point x="458" y="196" type="line"/>
      <point x="492" y="101"/>
      <point x="497" y="88"/>
      <point x="497" y="77" type="curve" smooth="yes"/>
      <point x="497" y="59"/>
      <point x="484" y="55"/>
      <point x="447" y="55" type="curve" smooth="yes"/>
      <point x="407" y="55" type="line"/>
    </contour>
  </outline>
</glyph>
<glyph name="AE" format="1">
  <advance width="972"/>
  <unicode hex="00C6"/>
  <outline>
    <contour>
      <point x="899" y="179" type="curve"/>
      <point x="819" y="183" type="line"/>
      <point x="813" y="129"/>
      <point x="807" y="99"/>
      <point x="789" y="76" type="curve"/>
      <point x="775" y="74"/>
      <point x="757" y="73"/>
      <point x="734" y="73" type="curve" smooth="yes"/>
      <point x="593" y="73" type="line"/>
      <point x="576" y="308" type="line"/>
      <point x="674" y="308" type="line" smooth="yes"/>
      <point x="691" y="308"/>
      <point x="706" y="308"/>
      <point x="719" y="305" type="curve"/>
      <point x="731" y="286"/>
      <point x="736" y="259"/>
      <point x="740" y="218" type="curve"/>
      <point x="814" y="220" type="line"/>
      <point x="814" y="355" type="line"/>
      <point x="814" y="460" type="line"/>
      <point x="740" y="463" type="line"/>
      <point x="736" y="424"/>
      <point x="730" y="399"/>
      <point x="718" y="381" type="curve"/>
      <point x="706" y="378"/>
      <point x="692" y="378"/>
      <point x="677" y="378" type="curve" smooth="yes"/>
      <point x="572" y="378" type="line"/>
      <point x="556" y="593" type="line"/>
      <point x="718" y="593" type="line" smooth="yes"/>
      <point x="738" y="593"/>
      <point x="755" y="593"/>
      <point x="770" y="591" type="curve"/>
      <point x="783" y="571"/>
      <point x="787" y="544"/>
      <point x="791" y="495" type="curve"/>
      <point x="871" y="501" type="line"/>
      <point x="871" y="667" type="line"/>
      <point x="238" y="667" type="line"/>
      <point x="235" y="602" type="line"/>
      <point x="259" y="600"/>
      <point x="298" y="602"/>
      <point x="310" y="591" type="curve"/>
      <point x="307" y="580"/>
      <point x="303" y="572"/>
      <point x="289" y="543" type="curve" smooth="yes"/>
      <point x="221" y="407"/>
      <point x="142" y="242"/>
      <point x="82" y="108" type="curve" smooth="yes"/>
      <point x="62" y="63"/>
      <point x="47" y="70"/>
      <point x="5" y="64" type="curve"/>
      <point x="2" y="0" type="line"/>
      <point x="247" y="0" type="line"/>
      <point x="247" y="64" type="line"/>
      <point x="204" y="68" type="line" smooth="yes"/>
      <point x="192" y="69"/>
      <point x="180" y="73"/>
      <point x="174" y="80" type="curve"/>
      <point x="189" y="119"/>
      <point x="206" y="161"/>
      <point x="250" y="251" type="curve"/>
      <point x="447" y="251" type="line"/>
      <point x="453" y="180"/>
      <point x="454" y="148"/>
      <point x="454" y="114" type="curve" smooth="yes"/>
      <point x="454" y="100"/>
      <point x="453" y="87"/>
      <point x="450" y="75" type="curve"/>
      <point x="441" y="71"/>
      <point x="428" y="69"/>
      <point x="414" y="68" type="curve" smooth="yes"/>
      <point x="364" y="64" type="line"/>
      <point x="364" y="0" type="line"/>
      <point x="774" y="0" type="line" smooth="yes"/>
      <point x="809" y="0"/>
      <point x="868" y="-2"/>
      <point x="898" y="-3" type="curve"/>
      <point x="898" y="58"/>
      <point x="899" y="118"/>
    </contour>
    <contour>
      <point x="442" y="322" type="line"/>
      <point x="280" y="322" type="line"/>
      <point x="324" y="419"/>
      <point x="369" y="516"/>
      <point x="410" y="604" type="curve"/>
      <point x="420" y="604" type="line"/>
    </contour>
  </outline>
</glyph>
<glyph name="Ccedilla" format="1">
  <advance width="699"/>
  <unicode hex="00C7"/>
  <outline>
    <contour>
      <point x="303" y="-100" type="line"/>
      <point x="325" y="-119" type="line"/>
      <point x="336" y="-113"/>
      <point x="350" y="-111"/>
      <point x="369" y="-111" type="curve" smooth="yes"/>
      <point x="399" y="-111"/>
      <point x="410" y="-125"/>
      <point x="410" y="-145" type="curve" smooth="yes"/>
      <point x="410" y="-167"/>
      <point x="389" y="-181"/>
      <point x="361" y="-181" type="curve" smooth="yes"/>
      <point x="332" y="-181"/>
      <point x="304" y="-172"/>
      <point x="285" y="-162" type="curve"/>
      <point x="264" y="-207" type="line"/>
      <point x="277" y="-214"/>
      <point x="321" y="-233"/>
      <point x="367" y="-233" type="curve" smooth="yes"/>
      <point x="446" y="-233"/>
      <point x="490" y="-190"/>
      <point x="490" y="-139" type="curve" smooth="yes"/>
      <point x="490" y="-95"/>
      <point x="458" y="-67"/>
      <point x="411" y="-67" type="curve" smooth="yes"/>
      <point x="394" y="-67"/>
      <point x="379" y="-69"/>
      <point x="365" y="-76" type="curve"/>
      <point x="387" y="-18" type="line"/>
      <point x="463" y="-18"/>
      <point x="563" y="-1"/>
      <point x="598" y="16" type="curve"/>
      <point x="598" y="197" type="line"/>
      <point x="502" y="197" type="line"/>
      <point x="502" y="143" type="line" smooth="yes"/>
      <point x="502" y="65"/>
      <point x="456" y="46"/>
      <point x="384" y="46" type="curve" smooth="yes"/>
      <point x="228" y="46"/>
      <point x="194" y="162"/>
      <point x="194" y="321" type="curve" smooth="yes"/>
      <point x="194" y="558"/>
      <point x="292" y="606"/>
      <point x="389" y="606" type="curve" smooth="yes"/>
      <point x="451" y="606"/>
      <point x="484" y="586"/>
      <point x="490" y="525" type="curve" smooth="yes"/>
      <point x="496" y="462" type="line"/>
      <point x="589" y="462" type="line"/>
      <point x="589" y="641" type="line"/>
      <point x="550" y="654"/>
      <point x="456" y="670"/>
      <point x="396" y="670" type="curve" smooth="yes"/>
      <point x="156" y="670"/>
      <point x="60" y="523"/>
      <point x="60" y="311" type="curve" smooth="yes"/>
      <point x="60" y="100"/>
      <point x="157" y="-3"/>
      <point x="339" y="-18" type="curve"/>
    </contour>
  </outline>
</glyph>
<glyph name="Igrave" format="1">
  <advance width="416"/>
  <unicode hex="00CC"/>
  <outline>
    <contour>
      <point x="381" y="0" type="line"/>
      <point x="381" y="64" type="line"/>
      <point x="324" y="68" type="line" smooth="yes"/>
      <point x="307" y="69"/>
      <point x="295" y="71"/>
      <point x="284" y="75" type="curve"/>
      <point x="281" y="89"/>
      <point x="280" y="104"/>
      <point x="280" y="123" type="curve" smooth="yes"/>
      <point x="280" y="543" type="line" smooth="yes"/>
      <point x="280" y="562"/>
      <point x="281" y="578"/>
      <point x="284" y="591" type="curve"/>
      <point x="305" y="599"/>
      <point x="346" y="599"/>
      <point x="379" y="602" type="curve"/>
      <point x="381" y="667" type="line"/>
      <point x="38" y="667" type="line"/>
      <point x="35" y="602" type="line"/>
      <point x="68" y="599"/>
      <point x="110" y="599"/>
      <point x="132" y="591" type="curve"/>
      <point x="135" y="578"/>
      <point x="136" y="562"/>
      <point x="136" y="543" type="curve" smooth="yes"/>
      <point x="136" y="123" type="line" smooth="yes"/>
      <point x="136" y="104"/>
      <point x="135" y="89"/>
      <point x="132" y="75" type="curve"/>
      <point x="121" y="71"/>
      <point x="108" y="69"/>
      <point x="91" y="68" type="curve" smooth="yes"/>
      <point x="37" y="64" type="line"/>
      <point x="37" y="0" type="line"/>
    </contour>
    <contour>
      <point x="277" y="710" type="line"/>
      <point x="201" y="839" type="line"/>
      <point x="61" y="839" type="line"/>
      <point x="193" y="710" type="line"/>
    </contour>
  </outline>
</glyph>
<glyph name="Ntilde" format="1">
  <advance width="822"/>
  <unicode hex="00D1"/>
  <outline>
    <contour>
      <point x="790" y="667" type="line"/>
      <point x="497" y="667" type="line"/>
      <point x="494" y="602" type="line"/>
      <point x="533" y="599"/>
      <point x="582" y="599"/>
      <point x="609" y="591" type="curve"/>
      <point x="612" y="576"/>
      <point x="613" y="560"/>
      <point x="614" y="539" type="curve"/>
      <point x="616" y="196" type="line"/>
      <point x="520" y="347"/>
      <point x="390" y="531"/>
      <point x="296" y="667" type="curve"/>
      <point x="37" y="667" type="line"/>
      <point x="34" y="602" type="line"/>
      <point x="67" y="599"/>
      <point x="111" y="599"/>
      <point x="132" y="591" type="curve"/>
      <point x="135" y="574"/>
      <point x="136" y="555"/>
      <point x="136" y="533" type="curve" smooth="yes"/>
      <point x="136" y="134" type="line" smooth="yes"/>
      <point x="136" y="111"/>
      <point x="135" y="92"/>
      <point x="132" y="75" type="curve"/>
      <point x="122" y="71"/>
      <point x="109" y="69"/>
      <point x="92" y="68" type="curve" smooth="yes"/>
      <point x="37" y="64" type="line"/>
      <point x="37" y="0" type="line"/>
      <point x="340" y="0" type="line"/>
      <point x="340" y="65" type="line"/>
      <point x="275" y="68" type="line" smooth="yes"/>
      <point x="256" y="69"/>
      <point x="240" y="71"/>
      <point x="227" y="75" type="curve"/>
      <point x="224" y="92"/>
      <point x="223" y="112"/>
      <point x="223" y="134" type="curve" smooth="yes"/>
      <point x="220" y="536" type="line"/>
      <point x="221" y="536"/>
      <point x="221" y="536"/>
      <point x="221" y="536" type="curve"/>
      <point x="321" y="392"/>
      <point x="476" y="169"/>
      <point x="585" y="-6" type="curve"/>
      <point x="700" y="1" type="line"/>
      <point x="700" y="533" type="line" smooth="yes"/>
      <point x="700" y="555"/>
      <point x="701" y="574"/>
      <point x="704" y="591" type="curve"/>
      <point x="722" y="598"/>
      <point x="757" y="599"/>
      <point x="788" y="602" type="curve"/>
    </contour>
    <contour>
      <point x="582" y="835" type="curve"/>
      <point x="530" y="842" type="line"/>
      <point x="522" y="816"/>
      <point x="511" y="797"/>
      <point x="487" y="797" type="curve" smooth="yes"/>
      <point x="445" y="797"/>
      <point x="392" y="839"/>
      <point x="343" y="839" type="curve" smooth="yes"/>
      <point x="282" y="839"/>
      <point x="250" y="792"/>
      <point x="237" y="724" type="curve"/>
      <point x="284" y="715" type="line"/>
      <point x="295" y="744"/>
      <point x="308" y="761"/>
      <point x="334" y="761" type="curve" smooth="yes"/>
      <point x="373" y="761"/>
      <point x="432" y="718"/>
      <point x="478" y="718" type="curve" smooth="yes"/>
      <point x="540" y="718"/>
      <point x="573" y="766"/>
    </contour>
  </outline>
</glyph>
<glyph name="Otilde" format="1">
  <advance width="765"/>
  <unicode hex="00D5"/>
  <outline>
    <contour>
      <point x="716" y="340" type="curve" smooth="yes"/>
      <point x="716" y="549"/>
      <point x="587" y="682"/>
      <point x="387" y="682" type="curve" smooth="yes"/>
      <point x="178" y="682"/>
      <point x="49" y="547"/>
      <point x="49" y="326" type="curve" smooth="yes"/>
      <point x="49" y="111"/>
      <point x="183" y="-14"/>
      <point x="377" y="-14" type="curve" smooth="yes"/>
      <point x="582" y="-14"/>
      <point x="716" y="113"/>
    </contour>
    <contour>
      <point x="559" y="335" type="curve" smooth="yes"/>
      <point x="559" y="152"/>
      <point x="497" y="60"/>
      <point x="382" y="60" type="curve" smooth="yes"/>
      <point x="268" y="60"/>
      <point x="206" y="144"/>
      <point x="206" y="333" type="curve" smooth="yes"/>
      <point x="206" y="527"/>
      <point x="274" y="608"/>
      <point x="385" y="608" type="curve" smooth="yes"/>
      <point x="494" y="608"/>
      <point x="559" y="527"/>
    </contour>
    <contour>
      <point x="555" y="835" type="curve"/>
      <point x="503" y="842" type="line"/>
      <point x="495" y="815"/>
      <point x="483" y="796"/>
      <point x="455" y="796" type="curve" smooth="yes"/>
      <point x="415" y="796"/>
      <point x="363" y="839"/>
      <point x="315" y="839" type="curve" smooth="yes"/>
      <point x="254" y="839"/>
      <point x="222" y="792"/>
      <point x="209" y="724" type="curve"/>
      <point x="257" y="715" type="line"/>
      <point x="267" y="744"/>
      <point x="280" y="761"/>
      <point x="307" y="761" type="curve" smooth="yes"/>
      <point x="346" y="761"/>
      <point x="404" y="718"/>
      <point x="451" y="718" type="curve" smooth="yes"/>
      <point x="512" y="718"/>
      <point x="546" y="766"/>
    </contour>
  </outline>
</glyph>
<glyph name="Odieresis" format="1">
  <advance width="765"/>
  <unicode hex="00D6"/>
  <outline>
    <contour>
      <point x="716" y="340" type="curve" smooth="yes"/>
      <point x="716" y="549"/>
      <point x="587" y="682"/>
      <point x="387" y="682" type="curve" smooth="yes"/>
      <point x="178" y="682"/>
      <point x="49" y="547"/>
      <point x="49" y="326" type="curve" smooth="yes"/>
      <point x="49" y="111"/>
      <point x="183" y="-14"/>
      <point x="377" y="-14" type="curve" smooth="yes"/>
      <point x="582" y="-14"/>
      <point x="716" y="113"/>
    </contour>
    <contour>
      <point x="559" y="335" type="curve" smooth="yes"/>
      <point x="559" y="152"/>
      <point x="497" y="60"/>
      <point x="382" y="60" type="curve" smooth="yes"/>
      <point x="268" y="60"/>
      <point x="206" y="144"/>
      <point x="206" y="333" type="curve" smooth="yes"/>
      <point x="206" y="527"/>
      <point x="274" y="608"/>
      <point x="385" y="608" type="curve" smooth="yes"/>
      <point x="494" y="608"/>
      <point x="559" y="527"/>
    </contour>
    <contour>
      <point x="442" y="775" type="curve" smooth="yes"/>
      <point x="442" y="814"/>
      <point x="415" y="842"/>
      <point x="377" y="842" type="curve" smooth="yes"/>
      <point x="340" y="842"/>
      <point x="313" y="814"/>
      <point x="313" y="775" type="curve" smooth="yes"/>
      <point x="313" y="736"/>
      <point x="340" y="707"/>
      <point x="377" y="707" type="curve" smooth="yes"/>
      <point x="415" y="707"/>
      <point x="442" y="736"/>
    </contour>
    <contour>
      <point x="455" y="775" type="curve" smooth="yes"/>
      <point x="455" y="814"/>
      <point x="428" y="842"/>
      <point x="391" y="842" type="curve" smooth="yes"/>
      <point x="353" y="842"/>
      <point x="326" y="814"/>
      <point x="326" y="775" type="curve" smooth="yes"/>
      <point x="326" y="736"/>
      <point x="353" y="707"/>
      <point x="391" y="707" type="curve" smooth="yes"/>
      <point x="428" y="707"/>
      <point x="455" y="736"/>
    </contour>
  </outline>
</glyph>
<glyph name="multiply" format="1">
  <advance width="550"/>
  <unicode hex="00D7"/>
  <outline>
    <contour>
      <point x="405" y="48" type="line"/>
      <point x="473" y="116" type="line"/>
      <point x="343" y="246" type="line"/>
      <point x="473" y="376" type="line"/>
      <point x="405" y="444" type="line"/>
      <point x="275" y="314" type="line"/>
      <point x="144" y="444" type="line"/>
      <point x="76" y="376" type="line"/>
      <point x="206" y="246" type="line"/>
      <point x="76" y="116" type="line"/>
      <point x="144" y="48" type="line"/>
      <point x="275" y="178" type="line"/>
    </contour>
  </outline>
</glyph>
<glyph name="Ucircumflex" format="1">
  <advance width="766"/>
  <unicode hex="00DB"/>
  <outline>
    <contour>
      <point x="735" y="667" type="line"/>
      <point x="459" y="667" type="line"/>
      <point x="455" y="602" type="line"/>
      <point x="488" y="599"/>
      <point x="525" y="599"/>
      <point x="547" y="591" type="curve"/>
      <point x="550" y="577"/>
      <point x="552" y="560"/>
      <point x="552" y="540" type="curve" smooth="yes"/>
      <point x="553" y="222" type="line" smooth="yes"/>
      <point x="553" y="118"/>
      <point x="497" y="67"/>
      <point x="401" y="67" type="curve" smooth="yes"/>
      <point x="294" y="67"/>
      <point x="262" y="131"/>
      <point x="262" y="230" type="curve" smooth="yes"/>
      <point x="262" y="540" type="line" smooth="yes"/>
      <point x="262" y="560"/>
      <point x="263" y="577"/>
      <point x="266" y="591" type="curve"/>
      <point x="287" y="599"/>
      <point x="328" y="599"/>
      <point x="362" y="602" type="curve"/>
      <point x="364" y="667" type="line"/>
      <point x="35" y="667" type="line"/>
      <point x="32" y="602" type="line"/>
      <point x="61" y="599"/>
      <point x="96" y="599"/>
      <point x="116" y="591" type="curve"/>
      <point x="119" y="576"/>
      <point x="120" y="560"/>
      <point x="120" y="539" type="curve" smooth="yes"/>
      <point x="120" y="226" type="line" smooth="yes"/>
      <point x="120" y="58"/>
      <point x="213" y="-14"/>
      <point x="398" y="-14" type="curve" smooth="yes"/>
      <point x="558" y="-14"/>
      <point x="647" y="82"/>
      <point x="647" y="224" type="curve" smooth="yes"/>
      <point x="647" y="539" type="line" smooth="yes"/>
      <point x="647" y="560"/>
      <point x="648" y="576"/>
      <point x="651" y="591" type="curve"/>
      <point x="669" y="598"/>
      <point x="703" y="599"/>
      <point x="732" y="602" type="curve"/>
    </contour>
    <contour>
      <point x="549" y="708" type="line"/>
      <point x="440" y="845" type="line"/>
      <point x="335" y="845" type="line"/>
      <point x="226" y="711" type="line"/>
      <point x="313" y="711" type="line"/>
      <point x="387" y="784" type="line"/>
      <point x="459" y="708" type="line"/>
    </contour>
  </outline>
</glyph>
<glyph name="Udieresis" format="1">
  <advance width="766"/>
  <unicode hex="00DC"/>
  <outline>
    <contour>
      <point x="735" y="667" type="line"/>
      <point x="459" y="667" type="line"/>
      <point x="455" y="602" type="line"/>
      <point x="488" y="599"/>
      <point x="525" y="599"/>
      <point x="547" y="591" type="curve"/>
      <point x="550" y="577"/>
      <point x="552" y="560"/>
      <point x="552" y="540" type="curve" smooth="yes"/>
      <point x="553" y="222" type="line" smooth="yes"/>
      <point x="553" y="118"/>
      <point x="497" y="67"/>
      <point x="401" y="67" type="curve" smooth="yes"/>
      <point x="294" y="67"/>
      <point x="262" y="131"/>
      <point x="262" y="230" type="curve" smooth="yes"/>
      <point x="262" y="540" type="line" smooth="yes"/>
      <point x="262" y="560"/>
      <point x="263" y="577"/>
      <point x="266" y="591" type="curve"/>
      <point x="287" y="599"/>
      <point x="328" y="599"/>
      <point x="362" y="602" type="curve"/>
      <point x="364" y="667" type="line"/>
      <point x="35" y="667" type="line"/>
      <point x="32" y="602" type="line"/>
      <point x="61" y="599"/>
      <point x="96" y="599"/>
      <point x="116" y="591" type="curve"/>
      <point x="119" y="576"/>
      <point x="120" y="560"/>
      <point x="120" y="539" type="curve" smooth="yes"/>
      <point x="120" y="226" type="line" smooth="yes"/>
      <point x="120" y="58"/>
      <point x="213" y="-14"/>
      <point x="398" y="-14" type="curve" smooth="yes"/>
      <point x="558" y="-14"/>
      <point x="647" y="82"/>
      <point x="647" y="224" type="curve" smooth="yes"/>
      <point x="647" y="539" type="line" smooth="yes"/>
      <point x="647" y="560"/>
      <point x="648" y="576"/>
      <point x="651" y="591" type="curve"/>
      <point x="669" y="598"/>
      <point x="703" y="599"/>
      <point x="732" y="602" type="curve"/>
    </contour>
    <contour>
      <point x="555" y="775" type="curve" smooth="yes"/>
      <point x="555" y="814"/>
      <point x="528" y="842"/>
      <point x="491" y="842" type="curve" smooth="yes"/>
      <point x="453" y="842"/>
      <point x="426" y="814"/>
      <point x="426" y="775" type="curve" smooth="yes"/>
      <point x="426" y="736"/>
      <point x="453" y="707"/>
      <point x="491" y="707" type="curve" smooth="yes"/>
      <point x="528" y="707"/>
      <point x="555" y="736"/>
    </contour>
    <contour>
      <point x="357" y="775" type="curve" smooth="yes"/>
      <point x="357" y="814"/>
      <point x="330" y="842"/>
      <point x="292" y="842" type="curve" smooth="yes"/>
      <point x="255" y="842"/>
      <point x="228" y="814"/>
      <point x="228" y="775" type="curve" smooth="yes"/>
      <point x="228" y="736"/>
      <point x="255" y="707"/>
      <point x="292" y="707" type="curve" smooth="yes"/>
      <point x="330" y="707"/>
      <point x="357" y="736"/>
    </contour>
  </outline>
</glyph>
<glyph name="atilde" format="1">
  <advance width="522"/>
  <unicode hex="00E3"/>
  <outline>
    <contour>
      <point x="511" y="62" type="line"/>
      <point x="503" y="60"/>
      <point x="491" y="58"/>
      <point x="480" y="58" type="curve" smooth="yes"/>
      <point x="440" y="58"/>
      <point x="431" y="76"/>
      <point x="431" y="113" type="curve" smooth="yes"/>
      <point x="431" y="141"/>
      <point x="436" y="296"/>
      <point x="436" y="327" type="curve" smooth="yes"/>
      <point x="436" y="446"/>
      <point x="370" y="475"/>
      <point x="243" y="475" type="curve"/>
      <point x="171" y="472"/>
      <point x="120" y="449"/>
      <point x="76" y="409" type="curve"/>
      <point x="70" y="387"/>
      <point x="68" y="364"/>
      <point x="68" y="341" type="curve" smooth="yes"/>
      <point x="68" y="332"/>
      <point x="68" y="324"/>
      <point x="69" y="315" type="curve"/>
      <point x="161" y="307" type="line"/>
      <point x="165" y="343"/>
      <point x="182" y="403"/>
      <point x="228" y="403" type="curve" smooth="yes"/>
      <point x="283" y="403"/>
      <point x="308" y="375"/>
      <point x="308" y="313" type="curve" smooth="yes"/>
      <point x="308" y="296"/>
      <point x="307" y="261"/>
      <point x="307" y="253" type="curve"/>
      <point x="245" y="252" type="line" smooth="yes"/>
      <point x="119" y="250"/>
      <point x="28" y="223"/>
      <point x="28" y="113" type="curve" smooth="yes"/>
      <point x="28" y="45"/>
      <point x="72" y="-4"/>
      <point x="140" y="-11" type="curve"/>
      <point x="206" y="-11"/>
      <point x="277" y="11"/>
      <point x="321" y="69" type="curve"/>
      <point x="328" y="50"/>
      <point x="347" y="1"/>
      <point x="378" y="-5" type="curve"/>
      <point x="419" y="-5"/>
      <point x="468" y="-2"/>
      <point x="509" y="5" type="curve"/>
    </contour>
    <contour>
      <point x="307" y="202" type="line"/>
      <point x="305" y="141"/>
      <point x="315" y="72"/>
      <point x="223" y="64" type="curve"/>
      <point x="186" y="64"/>
      <point x="162" y="85"/>
      <point x="162" y="129" type="curve" smooth="yes"/>
      <point x="162" y="186"/>
      <point x="216" y="196"/>
      <point x="266" y="200" type="curve"/>
    </contour>
    <contour>
      <point x="436" y="679" type="curve"/>
      <point x="384" y="687" type="line"/>
      <point x="376" y="659"/>
      <point x="363" y="639"/>
      <point x="336" y="639" type="curve" smooth="yes"/>
      <point x="295" y="639"/>
      <point x="243" y="684"/>
      <point x="194" y="684" type="curve" smooth="yes"/>
      <point x="132" y="684"/>
      <point x="100" y="636"/>
      <point x="87" y="564" type="curve"/>
      <point x="135" y="555" type="line"/>
      <point x="145" y="585"/>
      <point x="159" y="602"/>
      <point x="186" y="602" type="curve" smooth="yes"/>
      <point x="225" y="602"/>
      <point x="284" y="557"/>
      <point x="331" y="557" type="curve" smooth="yes"/>
      <point x="393" y="557"/>
      <point x="427" y="607"/>
    </contour>
  </outline>
</glyph>
<glyph name="ae" format="1">
  <advance width="771"/>
  <unicode hex="00E6"/>
  <outline>
    <contour>
      <point x="727" y="108" type="curve"/>
      <point x="663" y="141" type="line"/>
      <point x="642" y="116"/>
      <point x="620" y="98"/>
      <point x="596" y="90" type="curve"/>
      <point x="581" y="76"/>
      <point x="562" y="68"/>
      <point x="539" y="68" type="curve" smooth="yes"/>
      <point x="459" y="68"/>
      <point x="433" y="134"/>
      <point x="433" y="208" type="curve" smooth="yes"/>
      <point x="433" y="215"/>
      <point x="434" y="222"/>
      <point x="434" y="228" type="curve"/>
      <point x="725" y="228" type="line"/>
      <point x="727" y="252" type="line"/>
      <point x="727" y="391"/>
      <point x="671" y="476"/>
      <point x="527" y="476" type="curve" smooth="yes"/>
      <point x="464" y="476"/>
      <point x="417" y="452"/>
      <point x="386" y="416" type="curve"/>
      <point x="369" y="455"/>
      <point x="324" y="475"/>
      <point x="264" y="475" type="curve" smooth="yes"/>
      <point x="178" y="475"/>
      <point x="121" y="448"/>
      <point x="79" y="407" type="curve"/>
      <point x="75" y="386"/>
      <point x="73" y="364"/>
      <point x="73" y="343" type="curve" smooth="yes"/>
      <point x="73" y="333"/>
      <point x="73" y="324"/>
      <point x="74" y="315" type="curve"/>
      <point x="166" y="307" type="line"/>
      <point x="171" y="340"/>
      <point x="179" y="371"/>
      <point x="197" y="396" type="curve"/>
      <point x="207" y="400"/>
      <point x="224" y="403"/>
      <point x="242" y="403" type="curve" smooth="yes"/>
      <point x="313" y="403"/>
      <point x="317" y="358"/>
      <point x="317" y="253" type="curve"/>
      <point x="225" y="251" type="line" smooth="yes"/>
      <point x="209" y="251"/>
      <point x="193" y="249"/>
      <point x="177" y="248" type="curve" smooth="yes"/>
      <point x="72" y="240"/>
      <point x="33" y="175"/>
      <point x="33" y="114" type="curve" smooth="yes"/>
      <point x="33" y="41"/>
      <point x="80" y="-13"/>
      <point x="166" y="-13" type="curve"/>
      <point x="235" y="-5"/>
      <point x="315" y="32"/>
      <point x="350" y="84" type="curve"/>
      <point x="388" y="10"/>
      <point x="454" y="-13"/>
      <point x="528" y="-13" type="curve" smooth="yes"/>
      <point x="618" y="-13"/>
      <point x="702" y="16"/>
    </contour>
    <contour>
      <point x="599" y="294" type="curve"/>
      <point x="435" y="289" type="line"/>
      <point x="435" y="335"/>
      <point x="450" y="413"/>
      <point x="521" y="413" type="curve" smooth="yes"/>
      <point x="588" y="413"/>
      <point x="599" y="349"/>
    </contour>
    <contour>
      <point x="268" y="75" type="curve"/>
      <point x="268" y="75"/>
      <point x="246" y="66"/>
      <point x="233" y="63" type="curve"/>
      <point x="193" y="63"/>
      <point x="167" y="88"/>
      <point x="167" y="129" type="curve" smooth="yes"/>
      <point x="167" y="185"/>
      <point x="220" y="196"/>
      <point x="271" y="199" type="curve" smooth="yes"/>
      <point x="317" y="202" type="line"/>
      <point x="316" y="147"/>
      <point x="311" y="81"/>
    </contour>
  </outline>
</glyph>
<glyph name="ccedilla" format="1">
  <advance width="478"/>
  <unicode hex="00E7"/>
  <outline>
    <contour>
      <point x="189" y="-100" type="line"/>
      <point x="211" y="-119" type="line"/>
      <point x="222" y="-113"/>
      <point x="236" y="-111"/>
      <point x="255" y="-111" type="curve" smooth="yes"/>
      <point x="285" y="-111"/>
      <point x="296" y="-125"/>
      <point x="296" y="-145" type="curve" smooth="yes"/>
      <point x="296" y="-167"/>
      <point x="275" y="-181"/>
      <point x="247" y="-181" type="curve" smooth="yes"/>
      <point x="218" y="-181"/>
      <point x="190" y="-172"/>
      <point x="171" y="-162" type="curve"/>
      <point x="150" y="-207" type="line"/>
      <point x="163" y="-214"/>
      <point x="207" y="-233"/>
      <point x="253" y="-233" type="curve" smooth="yes"/>
      <point x="332" y="-233"/>
      <point x="376" y="-190"/>
      <point x="376" y="-139" type="curve" smooth="yes"/>
      <point x="376" y="-95"/>
      <point x="344" y="-67"/>
      <point x="297" y="-67" type="curve" smooth="yes"/>
      <point x="280" y="-67"/>
      <point x="265" y="-69"/>
      <point x="251" y="-76" type="curve"/>
      <point x="274" y="-16" type="line"/>
      <point x="432" y="-11"/>
      <point x="466" y="71"/>
      <point x="466" y="178" type="curve"/>
      <point x="370" y="178" type="line"/>
      <point x="365" y="84"/>
      <point x="339" y="48"/>
      <point x="264" y="48" type="curve" smooth="yes"/>
      <point x="193" y="48"/>
      <point x="154" y="88"/>
      <point x="154" y="249" type="curve" smooth="yes"/>
      <point x="154" y="412"/>
      <point x="206" y="442"/>
      <point x="282" y="442" type="curve" smooth="yes"/>
      <point x="342" y="442"/>
      <point x="358" y="405"/>
      <point x="360" y="321" type="curve"/>
      <point x="456" y="321" type="line"/>
      <point x="456" y="468" type="line"/>
      <point x="393" y="490"/>
      <point x="325" y="500"/>
      <point x="260" y="500" type="curve" smooth="yes"/>
      <point x="92" y="500"/>
      <point x="20" y="390"/>
      <point x="20" y="242" type="curve" smooth="yes"/>
      <point x="20" y="105"/>
      <point x="82" y="0"/>
      <point x="226" y="-16" type="curve"/>
    </contour>
  </outline>
</glyph>
<glyph name="eacute" format="1">
  <advance width="517"/>
  <unicode hex="00E9"/>
  <outline>
    <contour>
      <point x="474" y="110" type="curve"/>
      <point x="407" y="144" type="line"/>
      <point x="387" y="91"/>
      <point x="349" y="65"/>
      <point x="293" y="65" type="curve" smooth="yes"/>
      <point x="201" y="65"/>
      <point x="174" y="135"/>
      <point x="174" y="228" type="curve"/>
      <point x="473" y="228" type="line"/>
      <point x="475" y="240"/>
      <point x="475" y="252"/>
      <point x="475" y="263" type="curve" smooth="yes"/>
      <point x="475" y="399"/>
      <point x="410" y="476"/>
      <point x="266" y="476" type="curve" smooth="yes"/>
      <point x="128" y="476"/>
      <point x="34" y="381"/>
      <point x="34" y="229" type="curve" smooth="yes"/>
      <point x="34" y="79"/>
      <point x="128" y="-13"/>
      <point x="270" y="-13" type="curve" smooth="yes"/>
      <point x="391" y="-13"/>
      <point x="450" y="42"/>
    </contour>
    <contour>
      <point x="347" y="294" type="curve"/>
      <point x="175" y="289" type="line"/>
      <point x="175" y="362"/>
      <point x="201" y="415"/>
      <point x="264" y="415" type="curve" smooth="yes"/>
      <point x="329" y="415"/>
      <point x="347" y="361"/>
    </contour>
    <contour>
      <point x="447" y="717" type="line"/>
      <point x="295" y="717" type="line"/>
      <point x="220" y="532" type="line"/>
      <point x="292" y="532" type="line"/>
    </contour>
  </outline>
</glyph>
<glyph name="ecircumflex" format="1">
  <advance width="517"/>
  <unicode hex="00EA"/>
  <outline>
    <contour>
      <point x="450" y="540" type="line"/>
      <point x="308" y="709" type="line"/>
      <point x="226" y="709" type="line"/>
      <point x="85" y="540" type="line"/>
      <point x="173" y="540" type="line"/>
      <point x="268" y="632" type="line"/>
      <point x="364" y="540" type="line"/>
    </contour>
    <component base="e"/>
  </outline>
</glyph>
<glyph name="edieresis" format="1">
  <advance width="517"/>
  <unicode hex="00EB"/>
  <outline>
    <contour>
      <point x="474" y="110" type="curve"/>
      <point x="407" y="144" type="line"/>
      <point x="387" y="91"/>
      <point x="349" y="65"/>
      <point x="293" y="65" type="curve" smooth="yes"/>
      <point x="201" y="65"/>
      <point x="174" y="135"/>
      <point x="174" y="228" type="curve"/>
      <point x="473" y="228" type="line"/>
      <point x="475" y="240"/>
      <point x="475" y="252"/>
      <point x="475" y="263" type="curve" smooth="yes"/>
      <point x="475" y="399"/>
      <point x="410" y="476"/>
      <point x="266" y="476" type="curve" smooth="yes"/>
      <point x="128" y="476"/>
      <point x="34" y="381"/>
      <point x="34" y="229" type="curve" smooth="yes"/>
      <point x="34" y="79"/>
      <point x="128" y="-13"/>
      <point x="270" y="-13" type="curve" smooth="yes"/>
      <point x="391" y="-13"/>
      <point x="450" y="42"/>
    </contour>
    <contour>
      <point x="347" y="294" type="curve"/>
      <point x="175" y="289" type="line"/>
      <point x="175" y="362"/>
      <point x="201" y="415"/>
      <point x="264" y="415" type="curve" smooth="yes"/>
      <point x="329" y="415"/>
      <point x="347" y="361"/>
    </contour>
    <contour>
      <point x="431" y="627" type="curve" smooth="yes"/>
      <point x="431" y="666"/>
      <point x="404" y="694"/>
      <point x="366" y="694" type="curve" smooth="yes"/>
      <point x="329" y="694"/>
      <point x="302" y="666"/>
      <point x="302" y="627" type="curve" smooth="yes"/>
      <point x="302" y="588"/>
      <point x="329" y="559"/>
      <point x="366" y="559" type="curve" smooth="yes"/>
      <point x="404" y="559"/>
      <point x="431" y="588"/>
    </contour>
    <contour>
      <point x="232" y="627" type="curve" smooth="yes"/>
      <point x="232" y="666"/>
      <point x="205" y="694"/>
      <point x="168" y="694" type="curve" smooth="yes"/>
      <point x="130" y="694"/>
      <point x="103" y="666"/>
      <point x="103" y="627" type="curve" smooth="yes"/>
      <point x="103" y="588"/>
      <point x="130" y="559"/>
      <point x="168" y="559" type="curve" smooth="yes"/>
      <point x="205" y="559"/>
      <point x="232" y="588"/>
    </contour>
  </outline>
</glyph>
<glyph name="igrave" format="1">
  <advance width="330"/>
  <unicode hex="00EC"/>
  <outline>
    <contour>
      <point x="318" y="0" type="line"/>
      <point x="318" y="60" type="line"/>
      <point x="284" y="63" type="line" smooth="yes"/>
      <point x="237" y="67"/>
      <point x="237" y="78"/>
      <point x="237" y="120" type="curve" smooth="yes"/>
      <point x="237" y="367" type="line"/>
      <point x="242" y="471" type="line"/>
      <point x="174" y="463"/>
      <point x="94" y="456"/>
      <point x="33" y="451" type="curve"/>
      <point x="33" y="410" type="line"/>
      <point x="62" y="396" type="line"/>
      <point x="89" y="387"/>
      <point x="98" y="373"/>
      <point x="105" y="330" type="curve"/>
      <point x="105" y="120" type="line" smooth="yes"/>
      <point x="105" y="75"/>
      <point x="104" y="67"/>
      <point x="57" y="63" type="curve" smooth="yes"/>
      <point x="21" y="60" type="line"/>
      <point x="21" y="0" type="line"/>
    </contour>
    <contour>
      <point x="241" y="536" type="line"/>
      <point x="166" y="707" type="line"/>
      <point x="24" y="707" type="line"/>
      <point x="168" y="536" type="line"/>
    </contour>
  </outline>
</glyph>
<glyph name="icircumflex" format="1">
  <advance width="330"/>
  <unicode hex="00EE"/>
  <outline>
    <contour>
      <point x="318" y="0" type="line"/>
      <point x="318" y="60" type="line"/>
      <point x="284" y="63" type="line" smooth="yes"/>
      <point x="237" y="67"/>
      <point x="237" y="78"/>
      <point x="237" y="120" type="curve" smooth="yes"/>
      <point x="237" y="367" type="line"/>
      <point x="242" y="471" type="line"/>
      <point x="174" y="463"/>
      <point x="94" y="456"/>
      <point x="33" y="451" type="curve"/>
      <point x="33" y="410" type="line"/>
      <point x="62" y="396" type="line"/>
      <point x="89" y="387"/>
      <point x="98" y="373"/>
      <point x="105" y="330" type="curve"/>
      <point x="105" y="120" type="line" smooth="yes"/>
      <point x="105" y="75"/>
      <point x="104" y="67"/>
      <point x="57" y="63" type="curve" smooth="yes"/>
      <point x="21" y="60" type="line"/>
      <point x="21" y="0" type="line"/>
    </contour>
    <contour>
      <point x="309" y="536" type="line"/>
      <point x="208" y="707" type="line"/>
      <point x="114" y="707" type="line"/>
      <point x="14" y="539" type="line"/>
      <point x="82" y="539" type="line"/>
      <point x="161" y="632" type="line"/>
      <point x="239" y="536" type="line"/>
    </contour>
  </outline>
</glyph>
<glyph name="idieresis" format="1">
  <advance width="330"/>
  <unicode hex="00EF"/>
  <outline>
    <contour>
      <point x="318" y="0" type="line"/>
      <point x="318" y="60" type="line"/>
      <point x="284" y="63" type="line" smooth="yes"/>
      <point x="237" y="67"/>
      <point x="237" y="78"/>
      <point x="237" y="120" type="curve" smooth="yes"/>
      <point x="237" y="367" type="line"/>
      <point x="242" y="471" type="line"/>
      <point x="174" y="463"/>
      <point x="94" y="456"/>
      <point x="33" y="451" type="curve"/>
      <point x="33" y="410" type="line"/>
      <point x="62" y="396" type="line"/>
      <point x="89" y="387"/>
      <point x="98" y="373"/>
      <point x="105" y="330" type="curve"/>
      <point x="105" y="120" type="line" smooth="yes"/>
      <point x="105" y="75"/>
      <point x="104" y="67"/>
      <point x="57" y="63" type="curve" smooth="yes"/>
      <point x="21" y="60" type="line"/>
      <point x="21" y="0" type="line"/>
    </contour>
    <contour>
      <point x="329" y="627" type="curve" smooth="yes"/>
      <point x="329" y="666"/>
      <point x="302" y="694"/>
      <point x="264" y="694" type="curve" smooth="yes"/>
      <point x="227" y="694"/>
      <point x="200" y="666"/>
      <point x="200" y="627" type="curve" smooth="yes"/>
      <point x="200" y="588"/>
      <point x="227" y="559"/>
      <point x="264" y="559" type="curve" smooth="yes"/>
      <point x="302" y="559"/>
      <point x="329" y="588"/>
    </contour>
    <contour>
      <point x="130" y="627" type="curve" smooth="yes"/>
      <point x="130" y="666"/>
      <point x="103" y="694"/>
      <point x="66" y="694" type="curve" smooth="yes"/>
      <point x="28" y="694"/>
      <point x="1" y="666"/>
      <point x="1" y="627" type="curve" smooth="yes"/>
      <point x="1" y="588"/>
      <point x="28" y="559"/>
      <point x="66" y="559" type="curve" smooth="yes"/>
      <point x="103" y="559"/>
      <point x="130" y="588"/>
    </contour>
  </outline>
</glyph>
<glyph name="ntilde" format="1">
  <advance width="630"/>
  <unicode hex="00F1"/>
  <outline>
    <contour>
      <point x="619" y="0" type="line"/>
      <point x="619" y="60" type="line"/>
      <point x="587" y="63" type="line"/>
      <point x="537" y="65"/>
      <point x="542" y="84"/>
      <point x="542" y="123" type="curve" smooth="yes"/>
      <point x="542" y="286" type="line" smooth="yes"/>
      <point x="542" y="423"/>
      <point x="487" y="476"/>
      <point x="374" y="476" type="curve" smooth="yes"/>
      <point x="314" y="476"/>
      <point x="259" y="450"/>
      <point x="221" y="382" type="curve"/>
      <point x="221" y="382"/>
      <point x="221" y="382"/>
      <point x="220" y="382" type="curve"/>
      <point x="222" y="471" type="line"/>
      <point x="166" y="463"/>
      <point x="90" y="456"/>
      <point x="33" y="451" type="curve"/>
      <point x="33" y="410" type="line"/>
      <point x="62" y="396" type="line"/>
      <point x="89" y="387"/>
      <point x="98" y="373"/>
      <point x="105" y="330" type="curve"/>
      <point x="105" y="120" type="line" smooth="yes"/>
      <point x="105" y="75"/>
      <point x="104" y="67"/>
      <point x="57" y="63" type="curve" smooth="yes"/>
      <point x="21" y="60" type="line"/>
      <point x="21" y="0" type="line"/>
      <point x="293" y="0" type="line"/>
      <point x="293" y="60" type="line"/>
      <point x="275" y="63" type="line"/>
      <point x="231" y="65"/>
      <point x="236" y="89"/>
      <point x="236" y="122" type="curve" smooth="yes"/>
      <point x="236" y="277" type="line" smooth="yes"/>
      <point x="236" y="344"/>
      <point x="274" y="384"/>
      <point x="330" y="384" type="curve" smooth="yes"/>
      <point x="374" y="384"/>
      <point x="411" y="358"/>
      <point x="411" y="288" type="curve" smooth="yes"/>
      <point x="411" y="120" type="line" smooth="yes"/>
      <point x="411" y="101"/>
      <point x="411" y="86"/>
      <point x="407" y="74" type="curve"/>
      <point x="393" y="65"/>
      <point x="377" y="62"/>
      <point x="354" y="60" type="curve"/>
      <point x="353" y="0" type="line"/>
    </contour>
    <contour>
      <point x="497" y="679" type="curve"/>
      <point x="444" y="687" type="line"/>
      <point x="436" y="659"/>
      <point x="424" y="639"/>
      <point x="396" y="639" type="curve" smooth="yes"/>
      <point x="356" y="639"/>
      <point x="303" y="684"/>
      <point x="255" y="684" type="curve" smooth="yes"/>
      <point x="193" y="684"/>
      <point x="161" y="636"/>
      <point x="148" y="564" type="curve"/>
      <point x="195" y="555" type="line"/>
      <point x="206" y="585"/>
      <point x="219" y="602"/>
      <point x="246" y="602" type="curve" smooth="yes"/>
      <point x="285" y="602"/>
      <point x="345" y="557"/>
      <point x="392" y="557" type="curve" smooth="yes"/>
      <point x="454" y="557"/>
      <point x="487" y="607"/>
    </contour>
  </outline>
</glyph>
<glyph name="oslash" format="1">
  <advance width="551"/>
  <unicode hex="00F8"/>
  <outline>
    <contour>
      <point x="520" y="500" type="line"/>
      <point x="478" y="517" type="line"/>
      <point x="417" y="439" type="line"/>
      <point x="381" y="463"/>
      <point x="334" y="476"/>
      <point x="279" y="476" type="curve" smooth="yes"/>
      <point x="123" y="476"/>
      <point x="34" y="374"/>
      <point x="34" y="226" type="curve" smooth="yes"/>
      <point x="34" y="152"/>
      <point x="60" y="91"/>
      <point x="104" y="50" type="curve"/>
      <point x="37" y="-36" type="line"/>
      <point x="79" y="-53" type="line"/>
      <point x="138" y="22" type="line"/>
      <point x="173" y="-1"/>
      <point x="218" y="-13"/>
      <point x="270" y="-13" type="curve" smooth="yes"/>
      <point x="424" y="-13"/>
      <point x="516" y="86"/>
      <point x="516" y="236" type="curve" smooth="yes"/>
      <point x="516" y="309"/>
      <point x="493" y="369"/>
      <point x="451" y="410" type="curve"/>
    </contour>
    <contour>
      <point x="351" y="356" type="curve"/>
      <point x="184" y="151" type="line"/>
      <point x="179" y="173"/>
      <point x="176" y="202"/>
      <point x="176" y="230" type="curve" smooth="yes"/>
      <point x="176" y="358"/>
      <point x="213" y="403"/>
      <point x="275" y="403" type="curve" smooth="yes"/>
      <point x="309" y="403"/>
      <point x="334" y="388"/>
    </contour>
    <contour>
      <point x="374" y="232" type="curve" smooth="yes"/>
      <point x="374" y="114"/>
      <point x="341" y="60"/>
      <point x="274" y="60" type="curve" smooth="yes"/>
      <point x="242" y="60"/>
      <point x="218" y="74"/>
      <point x="202" y="103" type="curve"/>
      <point x="368" y="306" type="line"/>
      <point x="372" y="286"/>
      <point x="374" y="261"/>
    </contour>
  </outline>
</glyph>
<glyph name="thorn" format="1">
  <advance width="594"/>
  <unicode hex="00FE"/>
  <outline>
    <contour>
      <point x="418" y="118"/>
      <point x="373" y="69"/>
      <point x="313" y="69" type="curve" smooth="yes"/>
      <point x="236" y="69"/>
      <point x="232" y="132"/>
      <point x="232" y="211" type="curve" smooth="yes"/>
      <point x="232" y="269"/>
      <point x="238" y="316"/>
      <point x="247" y="354" type="curve"/>
      <point x="264" y="375"/>
      <point x="288" y="387"/>
      <point x="317" y="387" type="curve" smooth="yes"/>
      <point x="381" y="387"/>
      <point x="418" y="343"/>
      <point x="418" y="230" type="curve" smooth="yes"/>
    </contour>
    <contour>
      <point x="332" y="-176" type="line"/>
      <point x="238" y="-148"/>
      <point x="234" y="-143"/>
      <point x="234" y="-122" type="curve" smooth="yes"/>
      <point x="234" y="28" type="line"/>
      <point x="235" y="28"/>
      <point x="235" y="28"/>
      <point x="235" y="28" type="curve"/>
      <point x="257" y="3"/>
      <point x="298" y="-13"/>
      <point x="348" y="-13" type="curve" smooth="yes"/>
      <point x="460" y="-13"/>
      <point x="560" y="73"/>
      <point x="560" y="235" type="curve" smooth="yes"/>
      <point x="560" y="396"/>
      <point x="488" y="476"/>
      <point x="369" y="476" type="curve" smooth="yes"/>
      <point x="311" y="476"/>
      <point x="265" y="453"/>
      <point x="234" y="411" type="curve"/>
      <point x="234" y="618" type="line"/>
      <point x="239" y="722" type="line"/>
      <point x="171" y="714"/>
      <point x="70" y="713"/>
      <point x="22" y="711" type="curve"/>
      <point x="22" y="658" type="line"/>
      <point x="102" y="630"/>
      <point x="102" y="625"/>
      <point x="102" y="560" type="curve" smooth="yes"/>
      <point x="102" y="304" type="line"/>
      <point x="102" y="303"/>
      <point x="102" y="301"/>
      <point x="102" y="300" type="curve" smooth="yes"/>
      <point x="102" y="-122" type="line" smooth="yes"/>
      <point x="102" y="-141"/>
      <point x="88" y="-158"/>
      <point x="16" y="-176" type="curve"/>
      <point x="16" y="-236" type="line"/>
      <point x="332" y="-236" type="line"/>
    </contour>
  </outline>
</glyph>
<glyph name="dotlessi" format="1">
  <advance width="330"/>
  <unicode hex="0131"/>
  <outline>
    <contour>
      <point x="318.0" y="0.0" type="line"/>
      <point x="318.0" y="60.0" type="line"/>
      <point x="284.0" y="63.0" type="line" smooth="yes"/>
      <point x="237.0" y="67.0"/>
      <point x="237.0" y="78.0"/>
      <point x="237.0" y="120.0" type="curve" smooth="yes"/>
      <point x="237.0" y="367.0" type="line"/>
      <point x="242.0" y="471.0" type="line"/>
      <point x="174.0" y="463.0"/>
      <point x="73.0" y="462.0"/>
      <point x="25.0" y="460.0" type="curve"/>
      <point x="25.0" y="407.0" type="line"/>
      <point x="105.0" y="379.0"/>
      <point x="105.0" y="374.0"/>
      <point x="105.0" y="309.0" type="curve" smooth="yes"/>
      <point x="105.0" y="120.0" type="line" smooth="yes"/>
      <point x="105.0" y="75.0"/>
      <point x="104.0" y="67.0"/>
      <point x="57.0" y="63.0" type="curve" smooth="yes"/>
      <point x="21.0" y="60.0" type="line"/>
      <point x="21.0" y="0.0" type="line"/>
    </contour>
  </outline>
</glyph>
<glyph name="oe" format="1">
  <advance width="841"/>
  <unicode hex="0153"/>
  <outline>
    <contour>
      <point x="797" y="107" type="curve"/>
      <point x="733" y="141" type="line"/>
      <point x="712" y="93"/>
      <point x="673" y="65"/>
      <point x="621" y="65" type="curve" smooth="yes"/>
      <point x="529" y="65"/>
      <point x="503" y="131"/>
      <point x="503" y="228" type="curve"/>
      <point x="795" y="228" type="line"/>
      <point x="796" y="240"/>
      <point x="797" y="252"/>
      <point x="797" y="263" type="curve" smooth="yes"/>
      <point x="797" y="399"/>
      <point x="732" y="476"/>
      <point x="597" y="476" type="curve" smooth="yes"/>
      <point x="535" y="476"/>
      <point x="475" y="452"/>
      <point x="441" y="402" type="curve"/>
      <point x="409" y="448"/>
      <point x="357" y="476"/>
      <point x="280" y="476" type="curve" smooth="yes"/>
      <point x="125" y="476"/>
      <point x="37" y="377"/>
      <point x="37" y="226" type="curve" smooth="yes"/>
      <point x="37" y="81"/>
      <point x="124" y="-13"/>
      <point x="272" y="-13" type="curve" smooth="yes"/>
      <point x="344" y="-13"/>
      <point x="403" y="14"/>
      <point x="436" y="58" type="curve"/>
      <point x="477" y="7"/>
      <point x="533" y="-13"/>
      <point x="604" y="-13" type="curve" smooth="yes"/>
      <point x="695" y="-13"/>
      <point x="774" y="20"/>
    </contour>
    <contour>
      <point x="668" y="294" type="curve"/>
      <point x="504" y="289" type="line"/>
      <point x="504" y="335"/>
      <point x="520" y="413"/>
      <point x="590" y="413" type="curve" smooth="yes"/>
      <point x="658" y="413"/>
      <point x="668" y="348"/>
    </contour>
    <contour>
      <point x="374" y="232" type="curve" smooth="yes"/>
      <point x="374" y="113"/>
      <point x="345" y="60"/>
      <point x="276" y="60" type="curve" smooth="yes"/>
      <point x="213" y="60"/>
      <point x="179" y="109"/>
      <point x="179" y="231" type="curve" smooth="yes"/>
      <point x="179" y="359"/>
      <point x="215" y="403"/>
      <point x="277" y="403" type="curve" smooth="yes"/>
      <point x="340" y="403"/>
      <point x="374" y="356"/>
    </contour>
  </outline>
</glyph>
<glyph name="Ydieresis" format="1">
  <advance width="669"/>
  <unicode hex="0178"/>
  <outline>
    <contour>
      <point x="659" y="667" type="line"/>
      <point x="402" y="667" type="line"/>
      <point x="400" y="602" type="line"/>
      <point x="438" y="599"/>
      <point x="471" y="599"/>
      <point x="487" y="587" type="curve"/>
      <point x="470" y="534"/>
      <point x="398" y="413"/>
      <point x="364" y="333" type="curve"/>
      <point x="328" y="411"/>
      <point x="258" y="527"/>
      <point x="238" y="587" type="curve"/>
      <point x="253" y="601"/>
      <point x="290" y="599"/>
      <point x="320" y="602" type="curve"/>
      <point x="323" y="667" type="line"/>
      <point x="13" y="667" type="line"/>
      <point x="10" y="602" type="line"/>
      <point x="30" y="599"/>
      <point x="49" y="598"/>
      <point x="66" y="590" type="curve"/>
      <point x="126" y="517"/>
      <point x="213" y="344"/>
      <point x="266" y="239" type="curve"/>
      <point x="266" y="120" type="line" smooth="yes"/>
      <point x="266" y="102"/>
      <point x="265" y="88"/>
      <point x="262" y="75" type="curve"/>
      <point x="252" y="71"/>
      <point x="239" y="69"/>
      <point x="222" y="68" type="curve" smooth="yes"/>
      <point x="168" y="64" type="line"/>
      <point x="168" y="0" type="line"/>
      <point x="511" y="0" type="line"/>
      <point x="511" y="64" type="line"/>
      <point x="452" y="68" type="line" smooth="yes"/>
      <point x="435" y="69"/>
      <point x="422" y="71"/>
      <point x="412" y="75" type="curve"/>
      <point x="409" y="88"/>
      <point x="408" y="102"/>
      <point x="408" y="120" type="curve" smooth="yes"/>
      <point x="408" y="239" type="line"/>
      <point x="456" y="340"/>
      <point x="522" y="458"/>
      <point x="577" y="558" type="curve" smooth="yes"/>
      <point x="600" y="599"/>
      <point x="616" y="597"/>
      <point x="657" y="602" type="curve"/>
    </contour>
    <contour>
      <point x="502" y="775" type="curve" smooth="yes"/>
      <point x="502" y="814"/>
      <point x="475" y="842"/>
      <point x="438" y="842" type="curve" smooth="yes"/>
      <point x="400" y="842"/>
      <point x="373" y="814"/>
      <point x="373" y="775" type="curve" smooth="yes"/>
      <point x="373" y="736"/>
      <point x="400" y="707"/>
      <point x="438" y="707" type="curve" smooth="yes"/>
      <point x="475" y="707"/>
      <point x="502" y="736"/>
    </contour>
    <contour>
      <point x="304" y="775" type="curve" smooth="yes"/>
      <point x="304" y="814"/>
      <point x="277" y="842"/>
      <point x="239" y="842" type="curve" smooth="yes"/>
      <point x="202" y="842"/>
      <point x="175" y="814"/>
      <point x="175" y="775" type="curve" smooth="yes"/>
      <point x="175" y="736"/>
      <point x="202" y="707"/>
      <point x="239" y="707" type="curve" smooth="yes"/>
      <point x="277" y="707"/>
      <point x="304" y="736"/>
    </contour>
  </outline>
</glyph>
<glyph name="dotaccent" format="1">
  <advance width="389"/>
  <unicode hex="02D9"/>
  <outline>
    <contour>
      <point x="259" y="636" type="curve" smooth="yes"/>
      <point x="259" y="675"/>
      <point x="231" y="703"/>
      <point x="194" y="703" type="curve" smooth="yes"/>
      <point x="156" y="703"/>
      <point x="129" y="675"/>
      <point x="129" y="636" type="curve" smooth="yes"/>
      <point x="129" y="597"/>
      <point x="156" y="568"/>
      <point x="194" y="568" type="curve" smooth="yes"/>
      <point x="231" y="568"/>
      <point x="259" y="597"/>
    </contour>
  </outline>
</glyph>
<glyph name="tilde" format="1">
  <advance width="389"/>
  <unicode hex="02DC"/>
  <outline>
    <contour>
      <point x="341" y="687" type="line"/>
      <point x="314" y="640"/>
      <point x="303" y="636"/>
      <point x="285" y="636" type="curve" smooth="yes"/>
      <point x="241" y="636"/>
      <point x="186" y="684"/>
      <point x="132" y="684" type="curve" smooth="yes"/>
      <point x="70" y="684"/>
      <point x="48" y="656"/>
      <point x="15" y="584" type="curve"/>
      <point x="49" y="572" type="line"/>
      <point x="70" y="600"/>
      <point x="80" y="612"/>
      <point x="99" y="612" type="curve" smooth="yes"/>
      <point x="144" y="612"/>
      <point x="206" y="560"/>
      <point x="262" y="560" type="curve" smooth="yes"/>
      <point x="324" y="560"/>
      <point x="345" y="597"/>
      <point x="375" y="669" type="curve"/>
    </contour>
  </outline>
</glyph>
<glyph name="Delta" format="1">
  <advance width="641"/>
  <unicode hex="0394"/>
  <outline>
    <contour>
      <point x="606" y="0" type="line"/>
      <point x="606" y="31" type="line"/>
      <point x="341" y="672" type="line"/>
      <point x="290" y="659" type="line"/>
      <point x="34" y="31" type="line"/>
      <point x="34" y="0" type="line"/>
    </contour>
    <contour>
      <point x="97" y="55" type="line"/>
      <point x="280" y="520" type="line"/>
      <point x="467" y="55" type="line"/>
    </contour>
  </outline>
</glyph>
<glyph name="endash" format="1">
  <advance width="500"/>
  <unicode hex="2013"/>
  <outline>
    <contour>
      <point x="483" y="199" type="line"/>
      <point x="483" y="282" type="line"/>
      <point x="16" y="282" type="line"/>
      <point x="16" y="199" type="line"/>
    </contour>
  </outline>
</glyph>
<glyph name="quotesinglbase" format="1">
  <advance width="251"/>
  <unicode hex="201A"/>
  <outline>
    <contour>
      <point x="205" y="42" type="curve" smooth="yes"/>
      <point x="207" y="54"/>
      <point x="209" y="65"/>
      <point x="209" y="76" type="curve" smooth="yes"/>
      <point x="209" y="113"/>
      <point x="188" y="137"/>
      <point x="132" y="137" type="curve" smooth="yes"/>
      <point x="79" y="137"/>
      <point x="62" y="112"/>
      <point x="58" y="71" type="curve" smooth="yes"/>
      <point x="58" y="65"/>
      <point x="59" y="57"/>
      <point x="60" y="53" type="curve"/>
      <point x="75" y="53"/>
      <point x="89" y="54"/>
      <point x="104" y="54" type="curve"/>
      <point x="92" y="-20"/>
      <point x="75" y="-62"/>
      <point x="33" y="-100" type="curve"/>
      <point x="74" y="-130" type="line"/>
      <point x="137" y="-97"/>
      <point x="189" y="-30"/>
    </contour>
  </outline>
</glyph>
<glyph name="quotedblbase" format="1">
  <advance width="481"/>
  <unicode hex="201E"/>
  <outline>
    <contour>
      <point x="228" y="42" type="curve" smooth="yes"/>
      <point x="230" y="54"/>
      <point x="232" y="65"/>
      <point x="232" y="76" type="curve" smooth="yes"/>
      <point x="232" y="113"/>
      <point x="211" y="137"/>
      <point x="155" y="137" type="curve" smooth="yes"/>
      <point x="102" y="137"/>
      <point x="85" y="112"/>
      <point x="81" y="71" type="curve" smooth="yes"/>
      <point x="81" y="65"/>
      <point x="82" y="57"/>
      <point x="83" y="53" type="curve"/>
      <point x="98" y="53"/>
      <point x="112" y="54"/>
      <point x="127" y="54" type="curve"/>
      <point x="125" y="43"/>
      <point x="124" y="32"/>
      <point x="122" y="20" type="curve" smooth="yes"/>
      <point x="116" y="-30"/>
      <point x="85" y="-73"/>
      <point x="56" y="-100" type="curve"/>
      <point x="97" y="-130" type="line"/>
      <point x="160" y="-97"/>
      <point x="212" y="-30"/>
    </contour>
    <contour>
      <point x="423" y="42" type="curve" smooth="yes"/>
      <point x="425" y="53"/>
      <point x="426" y="63"/>
      <point x="426" y="73" type="curve" smooth="yes"/>
      <point x="426" y="112"/>
      <point x="408" y="137"/>
      <point x="349" y="137" type="curve" smooth="yes"/>
      <point x="297" y="137"/>
      <point x="279" y="113"/>
      <point x="276" y="71" type="curve" smooth="yes"/>
      <point x="276" y="65"/>
      <point x="277" y="57"/>
      <point x="278" y="53" type="curve"/>
      <point x="292" y="53"/>
      <point x="307" y="54"/>
      <point x="321" y="54" type="curve"/>
      <point x="315" y="-15"/>
      <point x="290" y="-64"/>
      <point x="250" y="-100" type="curve"/>
      <point x="292" y="-130" type="line"/>
      <point x="355" y="-97"/>
      <point x="406" y="-30"/>
    </contour>
  </outline>
</glyph>
<glyph name="daggerdbl" format="1">
  <advance width="538"/>
  <unicode hex="2021"/>
  <outline>
    <contour>
      <point x="474" y="61" type="line"/>
      <point x="474" y="153" type="line"/>
      <point x="322" y="153" type="line"/>
      <point x="322" y="344" type="line"/>
      <point x="474" y="344" type="line"/>
      <point x="474" y="436" type="line"/>
      <point x="322" y="436" type="line"/>
      <point x="322" y="584" type="line"/>
      <point x="209" y="584" type="line"/>
      <point x="209" y="430" type="line"/>
      <point x="63" y="430" type="line"/>
      <point x="63" y="338" type="line"/>
      <point x="215" y="338" type="line"/>
      <point x="215" y="147" type="line"/>
      <point x="63" y="147" type="line"/>
      <point x="63" y="54" type="line"/>
      <point x="215" y="54" type="line"/>
      <point x="215" y="-92" type="line"/>
      <point x="328" y="-92" type="line"/>
      <point x="328" y="61" type="line"/>
    </contour>
  </outline>
</glyph>
<glyph name="ellipsis" format="1">
  <advance width="828"/>
  <unicode hex="2026"/>
  <outline>
    <contour>
      <point x="221" y="64" type="curve" smooth="yes"/>
      <point x="221" y="109"/>
      <point x="193" y="143"/>
      <point x="146" y="143" type="curve" smooth="yes"/>
      <point x="99" y="143"/>
      <point x="70" y="109"/>
      <point x="70" y="64" type="curve" smooth="yes"/>
      <point x="70" y="20"/>
      <point x="99" y="-13"/>
      <point x="146" y="-13" type="curve" smooth="yes"/>
      <point x="193" y="-13"/>
      <point x="221" y="20"/>
    </contour>
    <contour>
      <point x="602" y="64" type="curve" smooth="yes"/>
      <point x="602" y="109"/>
      <point x="574" y="143"/>
      <point x="527" y="143" type="curve" smooth="yes"/>
      <point x="480" y="143"/>
      <point x="451" y="109"/>
      <point x="451" y="64" type="curve" smooth="yes"/>
      <point x="451" y="20"/>
      <point x="480" y="-13"/>
      <point x="527" y="-13" type="curve" smooth="yes"/>
      <point x="574" y="-13"/>
      <point x="602" y="20"/>
    </contour>
    <contour>
      <point x="661" y="64" type="curve" smooth="yes"/>
      <point x="661" y="109"/>
      <point x="633" y="143"/>
      <point x="586" y="143" type="curve" smooth="yes"/>
      <point x="539" y="143"/>
      <point x="511" y="109"/>
      <point x="511" y="64" type="curve" smooth="yes"/>
      <point x="511" y="20"/>
      <point x="539" y="-13"/>
      <point x="586" y="-13" type="curve" smooth="yes"/>
      <point x="633" y="-13"/>
      <point x="661" y="20"/>
    </contour>
  </outline>
</glyph>
<glyph name="perthousand" format="1">
  <advance width="1039"/>
  <unicode hex="2030"/>
  <outline>
    <contour>
      <point x="1010" y="163" type="curve" smooth="yes"/>
      <point x="1010" y="278"/>
      <point x="962" y="339"/>
      <point x="865" y="339" type="curve" smooth="yes"/>
      <point x="768" y="339"/>
      <point x="717" y="277"/>
      <point x="717" y="163" type="curve" smooth="yes"/>
      <point x="717" y="46"/>
      <point x="766" y="-14"/>
      <point x="863" y="-14" type="curve" smooth="yes"/>
      <point x="960" y="-14"/>
      <point x="1010" y="48"/>
    </contour>
    <contour>
      <point x="320" y="505" type="curve" smooth="yes"/>
      <point x="320" y="620"/>
      <point x="272" y="682"/>
      <point x="175" y="682" type="curve" smooth="yes"/>
      <point x="78" y="682"/>
      <point x="27" y="620"/>
      <point x="27" y="505" type="curve" smooth="yes"/>
      <point x="27" y="388"/>
      <point x="76" y="328"/>
      <point x="173" y="328" type="curve" smooth="yes"/>
      <point x="270" y="328"/>
      <point x="320" y="391"/>
    </contour>
    <contour>
      <point x="678" y="163" type="curve" smooth="yes"/>
      <point x="678" y="278"/>
      <point x="630" y="339"/>
      <point x="533" y="339" type="curve" smooth="yes"/>
      <point x="436" y="339"/>
      <point x="385" y="277"/>
      <point x="385" y="163" type="curve" smooth="yes"/>
      <point x="385" y="46"/>
      <point x="434" y="-14"/>
      <point x="531" y="-14" type="curve" smooth="yes"/>
      <point x="628" y="-14"/>
      <point x="678" y="48"/>
    </contour>
    <contour>
      <point x="595" y="682" type="line"/>
      <point x="516" y="682" type="line"/>
      <point x="108" y="-15" type="line"/>
      <point x="188" y="-15" type="line"/>
    </contour>
    <contour>
      <point x="916" y="164" type="curve" smooth="yes"/>
      <point x="916" y="88"/>
      <point x="905" y="40"/>
      <point x="864" y="40" type="curve" smooth="yes"/>
      <point x="824" y="40"/>
      <point x="811" y="82"/>
      <point x="811" y="164" type="curve" smooth="yes"/>
      <point x="811" y="250"/>
      <point x="827" y="287"/>
      <point x="864" y="287" type="curve" smooth="yes"/>
      <point x="900" y="287"/>
      <point x="916" y="254"/>
    </contour>
    <contour>
      <point x="226" y="506" type="curve" smooth="yes"/>
      <point x="226" y="430"/>
      <point x="214" y="382"/>
      <point x="173" y="382" type="curve" smooth="yes"/>
      <point x="133" y="382"/>
      <point x="121" y="425"/>
      <point x="121" y="506" type="curve" smooth="yes"/>
      <point x="121" y="593"/>
      <point x="137" y="629"/>
      <point x="173" y="629" type="curve" smooth="yes"/>
      <point x="210" y="629"/>
      <point x="226" y="596"/>
    </contour>
    <contour>
      <point x="584" y="164" type="curve" smooth="yes"/>
      <point x="584" y="88"/>
      <point x="573" y="40"/>
      <point x="532" y="40" type="curve" smooth="yes"/>
      <point x="492" y="40"/>
      <point x="479" y="82"/>
      <point x="479" y="164" type="curve" smooth="yes"/>
      <point x="479" y="250"/>
      <point x="495" y="287"/>
      <point x="532" y="287" type="curve" smooth="yes"/>
      <point x="568" y="287"/>
      <point x="584" y="254"/>
    </contour>
  </outline>
</glyph>
<glyph name="guilsinglleft" format="1">
  <advance width="289"/>
  <unicode hex="2039"/>
  <outline>
    <contour>
      <point x="261" y="6" type="line"/>
      <point x="155" y="235" type="line"/>
      <point x="261" y="447" type="line"/>
      <point x="187" y="447" type="line"/>
      <point x="38" y="256" type="line"/>
      <point x="29" y="227" type="line"/>
      <point x="187" y="6" type="line"/>
    </contour>
  </outline>
</glyph>
<glyph name="guilsinglright" format="1">
  <advance width="289"/>
  <unicode hex="203A"/>
  <outline>
    <contour>
      <point x="28" y="449" type="line"/>
      <point x="134" y="221" type="line"/>
      <point x="28" y="8" type="line"/>
      <point x="102" y="8" type="line"/>
      <point x="251" y="200" type="line"/>
      <point x="260" y="228" type="line"/>
      <point x="102" y="449" type="line"/>
    </contour>
  </outline>
</glyph>
<glyph name="fraction" format="1">
  <advance width="355"/>
  <unicode hex="2044"/>
  <outline>
    <contour>
      <point x="422" y="679" type="line"/>
      <point x="327" y="679" type="line"/>
      <point x="-54" y="-12" type="line"/>
      <point x="42" y="-12" type="line"/>
    </contour>
  </outline>
</glyph>
<glyph name="partialdiff" format="1">
  <advance width="540"/>
  <unicode hex="2202"/>
  <outline>
    <contour>
      <point x="263" y="412" type="line"/>
      <point x="145" y="412"/>
      <point x="41" y="321"/>
      <point x="41" y="178" type="curve" smooth="yes"/>
      <point x="41" y="57"/>
      <point x="116" y="-16"/>
      <point x="228" y="-16" type="curve" smooth="yes"/>
      <point x="416" y="-16"/>
      <point x="490" y="192"/>
      <point x="490" y="369" type="curve" smooth="yes"/>
      <point x="490" y="511"/>
      <point x="421" y="733"/>
      <point x="224" y="733" type="curve" smooth="yes"/>
      <point x="165" y="733"/>
      <point x="78" y="710"/>
      <point x="78" y="682" type="curve" smooth="yes"/>
      <point x="78" y="654"/>
      <point x="101" y="617"/>
      <point x="117" y="617" type="curve"/>
      <point x="152" y="646"/>
      <point x="204" y="679"/>
      <point x="259" y="679" type="curve" smooth="yes"/>
      <point x="373" y="679"/>
      <point x="399" y="558"/>
      <point x="399" y="477" type="curve" smooth="yes"/>
      <point x="399" y="434"/>
      <point x="394" y="387"/>
      <point x="389" y="351" type="curve"/>
      <point x="359" y="392"/>
      <point x="308" y="412"/>
      <point x="264" y="412" type="curve"/>
    </contour>
    <contour>
      <point x="230" y="18" type="curve" smooth="yes"/>
      <point x="179" y="18"/>
      <point x="151" y="60"/>
      <point x="151" y="123" type="curve" smooth="yes"/>
      <point x="151" y="191"/>
      <point x="165" y="264"/>
      <point x="194" y="313" type="curve"/>
      <point x="224" y="357"/>
      <point x="257" y="367"/>
      <point x="290" y="367" type="curve"/>
      <point x="291" y="367" type="line"/>
      <point x="335" y="367"/>
      <point x="369" y="330"/>
      <point x="380" y="306" type="curve"/>
      <point x="362" y="177"/>
      <point x="319" y="18"/>
    </contour>
  </outline>
</glyph>
<glyph name="radical" format="1">
  <advance width="551"/>
  <unicode hex="221A"/>
  <outline>
    <contour>
      <point x="538" y="842" type="line"/>
      <point x="493" y="852" type="line"/>
      <point x="359" y="42" type="line"/>
      <point x="356" y="42" type="line"/>
      <point x="205" y="436" type="line"/>
      <point x="33" y="357" type="line"/>
      <point x="45" y="320" type="line"/>
      <point x="131" y="360" type="line"/>
      <point x="342" y="-164" type="line"/>
      <point x="368" y="-152" type="line"/>
    </contour>
  </outline>
</glyph>
<glyph name="integral" format="1">
  <advance width="387"/>
  <unicode hex="222B"/>
  <outline>
    <contour>
      <point x="158" y="-2" type="line" smooth="yes"/>
      <point x="159" y="-18"/>
      <point x="159" y="-32"/>
      <point x="159" y="-46" type="curve" smooth="yes"/>
      <point x="159" y="-111"/>
      <point x="149" y="-151"/>
      <point x="127" y="-151" type="curve" smooth="yes"/>
      <point x="106" y="-151"/>
      <point x="107" y="-89"/>
      <point x="76" y="-89" type="curve" smooth="yes"/>
      <point x="45" y="-89"/>
      <point x="15" y="-113"/>
      <point x="15" y="-146" type="curve" smooth="yes"/>
      <point x="15" y="-175"/>
      <point x="45" y="-200"/>
      <point x="84" y="-200" type="curve" smooth="yes"/>
      <point x="173" y="-200"/>
      <point x="255" y="-109"/>
      <point x="255" y="163" type="curve"/>
      <point x="254" y="189"/>
      <point x="254" y="217"/>
      <point x="253" y="247" type="curve" smooth="yes"/>
      <point x="235" y="605" type="line" smooth="yes"/>
      <point x="234" y="622"/>
      <point x="234" y="637"/>
      <point x="234" y="650" type="curve" smooth="yes"/>
      <point x="234" y="736"/>
      <point x="249" y="756"/>
      <point x="266" y="756" type="curve" smooth="yes"/>
      <point x="287" y="756"/>
      <point x="284" y="700"/>
      <point x="320" y="700" type="curve" smooth="yes"/>
      <point x="346" y="700"/>
      <point x="373" y="717"/>
      <point x="373" y="752" type="curve" smooth="yes"/>
      <point x="373" y="787"/>
      <point x="334" y="805"/>
      <point x="304" y="805" type="curve" smooth="yes"/>
      <point x="229" y="805"/>
      <point x="136" y="744"/>
      <point x="136" y="461" type="curve"/>
      <point x="135" y="437"/>
      <point x="136" y="411"/>
      <point x="138" y="384" type="curve"/>
    </contour>
  </outline>
</glyph>
<glyph name="approxequal" format="1">
  <advance width="528"/>
  <unicode hex="2248"/>
  <outline>
    <contour>
      <point x="447" y="428" type="line"/>
      <point x="420" y="386"/>
      <point x="396" y="360"/>
      <point x="360" y="360" type="curve" smooth="yes"/>
      <point x="329" y="360"/>
      <point x="312" y="373"/>
      <point x="277" y="394" type="curve" smooth="yes"/>
      <point x="252" y="408"/>
      <point x="219" y="428"/>
      <point x="176" y="428" type="curve" smooth="yes"/>
      <point x="117" y="428"/>
      <point x="63" y="387"/>
      <point x="34" y="332" type="curve"/>
      <point x="79" y="292" type="line"/>
      <point x="103" y="327"/>
      <point x="128" y="360"/>
      <point x="170" y="360" type="curve" smooth="yes"/>
      <point x="201" y="360"/>
      <point x="226" y="346"/>
      <point x="253" y="329" type="curve" smooth="yes"/>
      <point x="293" y="304"/>
      <point x="321" y="291"/>
      <point x="360" y="291" type="curve" smooth="yes"/>
      <point x="414" y="291"/>
      <point x="460" y="332"/>
      <point x="491" y="388" type="curve"/>
    </contour>
    <contour>
      <point x="360" y="115" type="curve" smooth="yes"/>
      <point x="415" y="115"/>
      <point x="460" y="156"/>
      <point x="491" y="212" type="curve"/>
      <point x="447" y="253" type="line"/>
      <point x="419" y="210"/>
      <point x="397" y="184"/>
      <point x="359" y="184" type="curve" smooth="yes"/>
      <point x="298" y="184"/>
      <point x="268" y="252"/>
      <point x="176" y="252" type="curve" smooth="yes"/>
      <point x="117" y="252"/>
      <point x="63" y="211"/>
      <point x="34" y="156" type="curve"/>
      <point x="79" y="116" type="line"/>
      <point x="103" y="150"/>
      <point x="127" y="185"/>
      <point x="171" y="185" type="curve" smooth="yes"/>
      <point x="200" y="185"/>
      <point x="224" y="170"/>
      <point x="253" y="153" type="curve" smooth="yes"/>
      <point x="293" y="129"/>
      <point x="321" y="115"/>
    </contour>
  </outline>
</glyph>
